<svg width="168" height="158" viewBox="0 0 168 158" fill="none" xmlns="http://www.w3.org/2000/svg">
<path d="M148.861 39.5217C135.04 62.1067 118.677 83.0341 100.093 101.895C82.5944 121.753 62.8624 139.525 41.2882 154.858C55.0001 132.236 71.3304 111.308 89.941 92.5086C107.516 72.6768 127.282 54.901 148.861 39.5217Z" fill="#FF8812"/>
<path d="M101.018 42.4947C94.2579 61.8077 84.7504 80.046 72.7885 96.6474C61.7728 113.696 48.3283 129.045 32.88 142.211C39.4845 122.861 48.9618 104.614 60.9938 88.0826C72.0498 71.0229 85.533 55.6656 101.018 42.4947Z" fill="#FF8812"/>
<path d="M75.3412 13.4752C71.1164 34.5287 64.012 54.9 54.2281 74.0148C45.6232 93.7295 34.2849 112.134 20.5471 128.687C24.8066 107.619 31.9502 87.2397 41.7762 68.1233C50.3883 48.4453 61.6839 30.0545 75.3412 13.4752Z" fill="#FF8812"/>
</svg>
