<svg width="818" height="761" viewBox="0 0 818 761" fill="none" xmlns="http://www.w3.org/2000/svg">
<path d="M320.75 205.206C324.065 207.308 327.587 209.062 331.262 210.442C334.771 211.782 338.349 212.935 341.981 213.896C345.595 214.918 349.296 215.548 352.992 216.219C356.772 216.87 360.6 217.208 364.436 217.228L364.634 217.251C368.623 217.473 372.63 217.537 376.651 217.483C372.763 216.389 369.104 215.401 365.282 214.435C361.959 212.469 358.474 210.788 354.866 209.411C351.287 208.074 347.615 207.003 343.878 206.207C340.131 205.391 336.326 204.868 332.498 204.644C328.573 204.377 324.631 204.566 320.75 205.206Z" fill="#472417"/>
<path d="M736.636 462.405L736.676 462.41L736.631 462.445L736.636 462.405Z" fill="url(#paint0_radial_45_14652)"/>
<path opacity="0.5" d="M736.636 462.405L736.676 462.41L736.631 462.445L736.636 462.405Z" fill="#FFED00"/>
<path d="M740.714 460.113L740.673 460.108L740.678 460.068L740.714 460.113Z" fill="url(#paint1_radial_45_14652)"/>
<path opacity="0.5" d="M740.714 460.113L740.673 460.108L740.678 460.068L740.714 460.113Z" fill="#FFED00"/>
<path d="M730.511 466.39L730.551 466.395L730.506 466.43L730.511 466.39Z" fill="url(#paint2_radial_45_14652)"/>
<path opacity="0.5" d="M730.511 466.39L730.551 466.395L730.506 466.43L730.511 466.39Z" fill="#FFED00"/>
<path d="M733.881 463.974L736.819 462.188C735.885 462.854 734.903 463.451 733.881 463.974Z" fill="#9A4A3A"/>
<path d="M767.961 436.021L767.925 435.976L768.007 435.985L767.961 436.021Z" fill="url(#paint3_radial_45_14652)"/>
<path opacity="0.5" d="M767.961 436.021L767.925 435.976L768.007 435.985L767.961 436.021Z" fill="#FFED00"/>
<path d="M59.2389 220.825L59.2067 221.102L58.8538 220.339C58.8538 220.339 59.1689 220.737 59.2389 220.825Z" fill="#ED7237"/>
<path d="M107.59 270.083L108.854 270.952L111.303 272.682L121.15 279.487L125.499 282.481C118.587 278.533 112.037 273.983 105.923 268.885L106.37 269.178L107.59 270.083Z" fill="#ED7237"/>
<path d="M127.761 237.099L125.815 236.23C125.22 236.161 125.099 235.826 125.082 235.623C125.049 235.409 125.074 235.19 125.156 234.99C125.397 235.205 125.677 235.374 125.981 235.487C129.233 237.199 132.333 239.184 135.248 241.421C133.324 240.355 131.494 239.179 129.997 238.242C129.292 237.786 128.543 237.403 127.761 237.099Z" fill="#ED7237"/>
<path d="M192.254 185.097C192.945 185.136 193.633 185.216 194.314 185.336L194.908 185.405L196.852 185.953L197.169 185.989C197.921 186.077 198.593 186.516 199.204 186.788C200.47 189.384 201.939 191.877 203.596 194.243C209.071 202.347 216.466 208.971 225.122 213.525L226.527 214.21C226.472 214.686 226.412 215.201 226.352 215.716C226.187 217.142 225.709 218.491 225.464 219.908L224.395 226.689C224.128 228.986 223.866 231.244 223.603 233.501L222.812 240.314C221.758 249.385 220.941 258.484 220.288 267.561C219.996 272.143 219.551 276.668 219.418 281.269L219.141 288.142L219.132 291.674L219.127 293.44L219.04 294.192L219.017 294.39L218.92 295.222C219.091 296.491 219.362 297.744 219.729 298.969C220.071 300.173 220.427 301.258 220.827 302.309C221.555 304.167 221.99 306.127 222.119 308.119L222.082 308.436L221.958 309.505L221.76 311.209C221.503 312.394 221.363 313.601 221.341 314.813L221.258 315.526L220.901 315.485L218.955 314.616L217.167 313.766L215.547 312.855L214.173 311.893L212.976 310.79L208.624 306.792L207.772 314.12L207.698 314.754L207.671 314.991C207.679 315.215 207.721 315.437 207.795 315.648C207.88 315.977 207.99 316.298 208.125 316.61L207.887 316.582C206.081 315.89 204.27 315.238 202.45 314.666L197.01 313.11C193.391 312.127 189.802 311.229 186.359 310.106C184.61 309.501 182.918 308.863 181.283 308.191L178.849 307.025L176.552 305.715L174.256 307.857L175.82 310.287L174.814 309.969L174.282 309.706C173.472 309.351 172.688 308.938 171.937 308.47C171.146 308.017 170.365 307.485 169.619 306.997C168.047 306.011 166.485 304.946 164.869 303.996C164.039 303.538 163.174 303.036 162.3 302.613L159.743 301.473L154.813 299.335L152.411 297.891C149.324 296.128 146.831 294.433 144.395 292.945C144.064 292.648 143.752 292.33 143.462 291.994C143.198 291.661 142.957 291.311 142.74 290.947L142.36 290.421L142.383 290.223L142.173 289.957L141.564 289.325L140.728 289.95C140.728 289.95 140.215 289.529 139.693 289.187L137.112 287.563L132.063 284.367L127.162 280.947C125.569 279.798 123.932 278.685 122.348 277.457L112.794 270.204L110.394 268.4L109.253 267.505L108.078 266.565L103.371 262.847L98.7045 259.133C97.1255 257.866 95.6746 256.533 94.1794 255.235L89.694 251.342L87.4315 249.393L86.888 248.888L86.6503 248.861L86.3564 248.626L85.274 247.577L84.2312 246.532L83.3468 245.506C82.7439 244.858 82.1937 244.163 81.7014 243.428C80.6886 241.984 79.8855 240.404 79.3162 238.735C79.0518 237.901 78.8757 236.998 78.6509 236.169L78.3209 233.481L78.2074 230.657L78.2902 229.944L78.3547 229.39L78.3961 229.033L78.1887 227.363L78.2394 226.927C78.9533 226.19 79.9239 225.757 80.9493 225.717C84.6551 225.264 84.9083 223.086 82.1216 221.156C80.0415 219.71 79.414 217.509 78.0137 215.741L77.9033 216.692C78.128 219.618 77.3795 222.537 75.7742 224.995L74.9102 225.176L72.7722 225.61L70.7014 225.811C70.3692 225.794 70.0384 225.756 69.7112 225.696L68.7209 225.581L66.8197 225.36C66.2485 225.093 65.6636 224.944 65.0878 224.717L64.2624 224.219C63.9782 224.108 63.7118 223.955 63.472 223.766L62.7001 223.155C62.4599 222.953 62.2302 222.738 62.0119 222.513L60.6586 221.031L60.0589 220.319L59.4648 220.25L58.9894 220.194L59.0124 219.996L58.3823 219.2L57.4315 217.364C57.1436 216.736 56.8968 216.091 56.6926 215.431C56.5564 215.116 56.4733 214.781 56.4465 214.439L56.2752 213.496C56.1944 213.176 56.1517 212.848 56.148 212.518L56.2538 211.607C56.229 211.299 56.265 210.989 56.3597 210.696L56.461 209.824C56.6236 209.278 56.8463 208.752 57.125 208.255C57.2687 208 57.4445 207.764 57.6481 207.553L58.1713 206.852C58.6576 206.466 59.1393 206.121 59.5907 205.692L59.2858 205.897C59.8557 205.564 60.3865 205.167 60.8683 204.716C60.8683 204.716 61.1078 204.383 61.2496 204.198L61.5297 204.552L62.3302 205.608C62.2577 206.204 62.3657 206.807 62.6402 207.34C62.9147 207.873 63.3431 208.311 63.8697 208.598C64.684 209.722 65.758 210.632 67.0001 211.252C68.2422 211.872 69.6156 212.182 71.0035 212.156C74.3297 211.86 75.3783 215.274 78.0792 215.869C77.8561 214.679 77.6285 213.528 77.3401 212.21L79.2644 212.233C81.0745 212.203 83.4364 213.641 84.5362 212.123C85.6359 210.605 83.5152 208.472 82.3904 207.096C80.3065 204.646 82.4186 202.363 82.4387 200.117C82.4687 195.022 78.8519 190.908 79.6133 185.738C79.9723 182.648 80.9513 179.751 81.6972 176.787C83.5211 175.013 84.8818 172.819 85.6603 170.396C86.4387 167.974 86.6109 165.398 86.1619 162.893C84.9535 167.6 83.4506 172.225 81.6622 176.742C79.5511 178.055 77.1927 178.92 74.7334 179.283C72.2742 179.647 69.7665 179.501 67.3659 178.855L66.5212 177.833L67.3264 178.85C67.4619 181.167 68.0284 183.439 68.9969 185.548C69.4244 186.36 69.9523 187.345 71.0052 187.267C72.0581 187.188 72.0773 185.986 72.2578 185.124C72.9337 182.071 75.0007 180.866 78.4273 180.742C78.015 182.724 77.7809 184.739 77.7277 186.763C77.8897 188.926 78.3733 191.052 79.1625 193.072C79.9173 195.263 80.381 197.544 80.542 199.856C80.9326 201.516 80.8402 203.252 80.2755 204.861C79.7109 206.47 78.6977 207.883 77.3555 208.935C76.0134 209.986 74.3984 210.631 72.7014 210.794C71.0043 210.957 69.296 210.631 67.7783 209.855L63.9185 208.523C64.075 207.176 64.2315 205.829 62.3836 205.494L61.5785 204.477L61.2588 204.119L61.6355 203.641C61.8511 203.199 62.0131 202.732 62.1181 202.252C62.2529 201.069 62.0735 199.871 61.5983 198.779C61.4473 198.38 61.3473 197.964 61.3006 197.54L60.944 195.772C60.8556 195.25 60.8096 194.721 60.8066 194.191L60.6997 192.693C60.7627 191.644 60.8841 190.599 61.0633 189.564L61.2474 187.979C61.1607 187.43 61.1179 186.875 61.1192 186.319C61.1791 185.804 61.2389 185.289 61.5761 184.806L62.2263 183.356C62.6732 182.398 63.1702 181.464 63.7155 180.558C63.7754 180.043 64.3409 179.668 64.6384 179.18L65.5567 177.842L65.3218 178.136C65.5943 177.834 65.846 177.515 66.0753 177.179C66.3124 176.767 66.5106 176.333 66.6675 175.883C66.9051 175.142 66.9958 174.362 66.9344 173.586C66.7557 172.361 66.6644 172.109 66.6736 172.03C66.6148 170.816 66.6621 169.599 66.8152 168.393C66.875 167.878 66.9349 167.364 66.9947 166.849L67.3861 165.208C67.5066 164.675 67.688 164.157 67.9267 163.665C68.1055 163.143 68.3124 162.631 68.5465 162.131C69.0098 161.136 69.577 160.193 70.2385 159.317C70.524 158.867 70.8551 158.448 71.2267 158.067C71.5896 157.708 71.9222 157.264 72.3247 156.91C73.0941 156.198 73.9475 155.583 74.866 155.077L75.5154 154.671L76.2302 154.393C76.6925 154.187 77.1686 154.015 77.6552 153.876L79.1364 153.566L80.6296 153.499C81.1364 153.499 81.6415 153.558 82.1347 153.674C82.6548 153.675 83.1731 153.735 83.6795 153.853L85.1922 154.31C85.6922 154.5 86.1756 154.731 86.6375 155C87.6495 155.47 88.6054 156.052 89.4868 156.736L89.8433 156.778L90.0413 156.801L90.3702 157.08L90.5683 157.103L91.5834 158.385L94.034 161.48C94.8788 162.501 95.7585 163.567 96.7968 164.651C97.3739 165.228 97.9972 165.757 98.6604 166.233C98.3707 172.181 95.791 178.143 98.2316 184.087C98.7623 185.394 98.5202 187.132 100.98 188.421C98.5999 181.611 98.5983 174.196 100.975 167.385L101.649 167.463C102.279 167.447 102.903 167.33 103.496 167.116L104.837 166.629L105.191 165.305L105.237 164.909L105.901 164.384L106.652 163.789C107.125 163.415 107.575 163.011 107.997 162.58C108.502 162.104 108.977 161.596 109.418 161.059C109.583 160.879 109.727 160.68 109.848 160.467C111.748 160.343 113.65 160.674 115.397 161.433L116.58 163.337L117.367 164.512L117.738 165.117L117.904 165.418L119.191 167.815L119.907 169.946C120.378 171.535 120.672 173.172 120.785 174.825C120.895 175.683 120.942 176.547 120.927 177.411C120.83 178.243 120.927 179.137 120.865 180.013C120.663 181.756 120.455 183.539 120.446 185.344L120.115 188.196C120.121 188.33 120.106 188.463 120.069 188.592C119.88 190.216 119.692 191.84 119.498 193.504C119.305 195.167 118.415 196.951 120.979 197.69C121.162 198.455 121.397 199.206 121.681 199.94C121.529 201.247 121.792 202.442 122.916 203.134C123.548 204.599 124.187 206.012 124.832 207.371C125.18 208.175 125.594 209.106 125.872 209.821L126.819 212.38C127.324 214.044 127.676 215.751 127.872 217.48C127.993 218.351 128.052 219.23 128.049 220.11C128.093 220.99 128.057 221.873 127.943 222.747C127.92 223.639 127.817 224.527 127.635 225.401C127.5 226.287 127.304 227.163 127.049 228.023C126.75 228.871 126.564 229.773 126.191 230.573L125.42 232.37C125.122 232.745 124.884 233.164 124.713 233.612C124.686 233.688 124.676 233.77 124.686 233.85C124.351 234.199 124.108 234.626 123.979 235.093C123.887 235.885 124.513 236.72 125.123 236.992C126.474 237.77 127.782 238.619 129.043 239.535C130.447 240.581 132.047 242.012 134.044 243.488C135.124 244.271 136.265 244.967 137.455 245.571L141.255 247.417C144.014 248.876 146.851 250.184 149.752 251.335C156.758 254.211 163.949 256.616 171.276 258.533L177.447 260.013L179.048 260.4L180.949 260.621C181.971 260.696 182.995 260.526 183.937 260.125C184.912 259.701 185.753 259.022 186.374 258.16C187.287 256.807 187.817 255.231 187.907 253.601L188.298 250.234C188.561 247.977 188.828 245.679 188.782 243.305C189.048 238.599 189.403 233.823 189.458 228.851C189.514 223.88 189.5 218.82 189.535 213.685C189.512 211.114 189.574 208.511 189.512 205.935C189.45 203.358 189.437 200.707 189.442 197.898C189.368 193.353 189.417 188.782 189.467 184.211C190.197 184.256 190.924 184.341 191.645 184.464L192.254 185.097ZM102.189 190.449L102.157 190.726L102.434 190.758L102.723 190.35C102.633 190.32 102.537 190.313 102.443 190.33C102.35 190.348 102.263 190.388 102.189 190.449ZM91.6352 243.619C91.326 235.434 92.1962 227.247 94.219 219.31C96.6599 212.168 99.5756 205.198 102.946 198.445C93.8718 207.788 87.7444 233.572 91.6352 243.619Z" fill="#ED7237"/>
<path d="M224.138 291.774L224.04 288.471L224.149 281.659L224.301 280.351C224.252 284.922 224.251 289.418 224.283 293.637L224.287 293.598L224.138 291.774Z" fill="#ED7237"/>
<path d="M104.671 165.647C104.501 165.774 104.297 165.848 104.085 165.86L104.799 165.582L104.671 165.647Z" fill="#ED7237"/>
<path fill-rule="evenodd" clip-rule="evenodd" d="M266.412 63.403L266.166 62.411C265.958 61.7846 265.829 61.1674 265.692 60.2683L265.729 59.9515L265.016 59.8687C261.536 60.1066 258.056 60.3445 254.415 60.2425C252.511 60.183 250.617 59.9628 248.75 59.5844C248.75 59.5844 246.667 59.0928 245.686 58.6661C245.127 58.4364 244.595 58.1458 244.1 57.7995L212.387 67.8039C212.387 67.8039 210.494 78.0891 208.16 82.7685C205.814 87.5737 202.588 91.8966 198.65 95.5134L198.856 96.5009L198.833 96.699C198.865 96.8845 198.898 97.1128 198.932 97.3514C199.026 98.0084 199.131 98.7434 199.262 98.8765C199.362 98.9772 199.362 98.9797 199.359 99.053C199.356 99.1119 199.352 99.2164 199.396 99.454C199.434 99.6579 199.507 99.8601 199.579 100.061C199.697 100.385 199.813 100.706 199.776 101.024C199.814 101.291 199.878 101.553 199.965 101.808L200.315 103.294C200.56 103.604 200.532 103.842 200.504 104.079L201.106 106.156C201.185 106.48 201.282 106.8 201.396 107.113L201.738 108.317L202.124 109.486L202.419 110.404L202.458 111.452L202.636 111.995L203.744 114.893L203.931 115.357L204.558 116.875L204.789 117.303C205.804 119.646 206.96 121.925 208.251 124.128C212.032 131.025 218.016 136.456 225.247 139.552C226.115 136.87 228.004 134.638 230.505 133.338C231.817 128.136 234.33 123.313 237.842 119.257L238.107 119.047C238.473 118.773 238.963 118.429 239.457 118.081C240.091 117.635 240.733 117.184 241.13 116.869C240.538 115.52 239.595 115.438 238.486 115.342C237.751 115.279 236.944 115.209 236.116 114.761C235.608 114.485 235.074 114.238 234.54 113.991C232.895 113.23 231.251 112.469 230.345 110.879L228.702 109.122C227.71 108.984 226.702 109.016 225.721 109.217C225.415 109.298 225.143 109.515 224.874 109.729C224.306 110.182 223.754 110.622 222.931 109.736C221.717 108.431 222.896 106.922 223.755 106.098C226.822 102.743 229.43 98.9968 231.513 94.9563L231.315 94.9333L232.052 93.7744L233.012 92.762L234.108 91.966L235.344 91.3469L236.295 91.4573C240.521 89.0549 245.365 87.9624 250.212 88.3184C255.06 88.6744 259.693 90.463 263.522 93.457C263.469 93.568 263.455 93.6933 263.481 93.8135C264.092 94.2892 264.676 94.7993 265.23 95.3415C269.076 99.0558 272.238 103.418 274.572 108.23L275.312 109.801L275.45 108.613C275.46 108.36 275.489 108.108 275.538 107.86C275.59 106.715 275.605 105.553 275.582 104.373C275.554 102.884 275.464 101.589 275.369 100.333L275.415 99.9373C275.306 98.8006 275.192 97.7035 275.004 96.5576L275.078 95.9239C274.899 94.6987 274.676 93.5086 274.453 92.3185C273.916 89.6868 273.29 87.1251 272.625 84.5588L272.667 84.2023C271.424 79.6671 270.05 75.2609 268.771 71.1569C268.541 70.4204 268.315 69.6937 268.093 68.9777C267.88 68.391 267.707 67.8088 267.533 67.2266L267.009 65.5198L266.412 63.403Z" fill="#ED7237"/>
<path d="M323.676 133.045C321.731 129.81 319.378 126.838 316.675 124.203C314.462 122.13 311.792 120.61 308.881 119.764C308.061 119.584 307.225 119.486 306.385 119.474L305.751 119.401L306.623 119.502C307.429 119.668 308.221 119.895 308.993 120.179C311.735 121.21 314.196 122.871 316.178 125.028C318.479 127.514 320.491 130.252 322.174 133.192L320.929 132.164L318.424 141.628L318.35 153.663L324.628 173.22L327.541 179.942C325.294 179.841 323.057 179.582 320.847 179.164C319.591 178.977 318.348 178.712 317.125 178.37C315.896 178.112 314.689 177.757 313.515 177.309C312.319 176.889 311.079 176.504 309.932 176.009L306.541 174.451C302.115 172.255 298.159 169.218 294.894 165.51C294.063 164.635 293.327 163.675 292.697 162.645C292.033 161.649 291.43 160.614 290.89 159.545L289.541 156.297L288.441 152.636C287.643 150.175 287.083 147.741 286.523 145.308C285.962 142.874 285.411 140.361 284.856 137.888C283.793 132.867 282.577 127.788 281.06 122.874C279.695 118.423 277.999 114.079 275.986 109.88L276.124 108.692C276.134 108.439 276.163 108.187 276.212 107.939C276.347 106.777 276.361 105.615 276.256 104.452C276.403 103.184 276.115 101.866 276.043 100.412L276.089 100.016C275.98 98.8794 275.867 97.7824 275.679 96.6365C275.706 96.3988 275.729 96.2008 275.752 96.0027C275.573 94.7776 275.35 93.5875 275.127 92.3973C274.59 89.7656 273.964 87.2039 273.299 84.6376L273.341 84.2811C271.875 78.9321 270.227 73.7627 268.767 69.0566C268.554 68.4698 268.381 67.8876 268.207 67.3054L267.683 65.5987L267.086 63.4819L266.84 62.4898C266.632 61.8635 266.503 61.2463 266.334 60.6245L266.371 60.3077C273.049 59.8392 279.614 59.3172 286.083 59.2661C289.35 59.1948 292.618 59.3599 295.861 59.76L298.119 60.0223L300.666 60.5591C302.175 60.924 303.664 61.3651 305.129 61.8807C308.175 62.9565 311.122 64.2928 313.938 65.875C316.857 67.435 319.671 69.1835 322.363 71.1093C327.896 75.029 333.208 79.2515 338.276 83.7574C343.401 88.3674 348.605 92.9866 353.729 97.5966L355.434 99.1597C341.287 107.592 327.475 119.356 323.676 133.045Z" fill="#E30613"/>
<path d="M337.607 179.344L335.774 179.573L337.691 179.314L337.607 179.344Z" fill="#FFED00"/>
<path d="M270.251 193.436L270.694 193.769L270.179 193.709C270.179 193.709 270.202 193.511 270.251 193.436Z" fill="#E30613"/>
<path d="M241.925 166.34C242.072 165.073 242.238 163.647 242.427 162.023C242.478 163.479 242.309 164.934 241.925 166.34Z" fill="#E30613"/>
<path d="M273.102 195.496L273.769 195.975C273.527 195.979 273.289 196.033 273.068 196.134C273.101 195.923 273.112 195.709 273.102 195.496Z" fill="#E30613"/>
<path d="M283.14 200.677L284.762 201.227L283.732 201.107L283.14 200.677Z" fill="#E30613"/>
<path d="M198.848 96.5792C198.77 97.2525 199.123 98.0161 199.277 98.7567C199.432 99.4973 199.236 99.1132 199.411 99.3342C199.586 99.5553 199.652 100.366 199.791 100.904C199.829 101.171 199.892 101.434 199.98 101.689L200.33 103.175C200.297 103.452 200.27 103.69 200.519 103.959L201.121 106.037C201.2 106.361 201.297 106.68 201.411 106.994L201.753 108.197L202.139 109.366L202.434 110.284L202.886 111.581L203.063 112.123L204.172 115.022L204.359 115.485L204.985 117.004L205.217 117.432C206.231 119.775 207.388 122.054 208.679 124.257C212.46 131.154 218.444 136.585 225.674 139.681C225.175 140.867 224.795 142.068 224.375 143.263C223.07 147.064 222.324 151.034 222.162 155.05C221.384 159.552 221.874 164.183 223.579 168.422C223.836 169.405 224.339 170.306 225.041 171.041C228.458 175.544 232.459 179.572 236.937 183.021L236.979 182.665L237.615 183.06C237.856 181.741 237.905 180.395 237.758 179.062L238.573 175.504C238.573 175.504 239.128 175.568 239.706 174.391C239.739 174.113 239.771 173.836 240.05 173.507C241.574 171.784 242.707 169.751 243.372 167.549C244.037 165.346 244.217 163.026 243.901 160.747C244.972 160.297 246.075 159.928 247.201 159.645C251.162 160.106 251.064 164.751 252.647 167.705L252.939 168.301C255.83 177.131 260.879 185.1 267.628 191.485C268.04 192.43 268.732 193.225 269.611 193.763C270.593 194.64 271.923 195.638 272.905 196.514C279.221 201.819 287.284 204.588 295.527 204.282L301.305 204.311C311.908 204.73 322.402 206.611 332.49 209.902C332.555 210.205 332.656 210.5 332.79 210.779C333.622 212.898 334.741 214.892 336.115 216.706C339.949 221.97 344.358 226.791 349.259 231.08C352.856 234.669 356.196 237.707 357.995 239.16C360.894 241.504 364.11 243.885 367.498 246.166L373.454 250.872C372.94 251.495 372.422 252.158 371.824 252.811L370.061 254.854L368.175 256.923C349.004 278.18 311.083 312.594 268.082 310.568L268.229 309.301C268.33 299.798 269.481 289.895 270.447 279.851C271.032 274.82 271.344 269.718 271.497 264.597C271.768 259.383 271.542 254.155 270.822 248.983C270.129 243.655 268.5 238.492 266.011 233.731C263.318 228.965 259.599 224.858 255.124 221.707C250.756 218.921 246.14 216.544 241.336 214.605C236.964 212.728 232.692 210.624 228.54 208.3C224.67 206.088 221.045 203.473 217.724 200.5C214.548 197.661 211.7 194.475 209.233 191.003C207.977 189.371 206.987 187.53 205.82 185.829L205.236 184.637C205.049 184.173 204.747 183.657 204.635 183.242C204.523 182.828 204.167 181.743 203.982 180.918C203.283 177.243 203.058 173.493 203.311 169.76C203.543 162.24 204.248 155.136 204.183 148.785C204.257 143.37 203.892 137.957 203.093 132.601C202.791 130.358 202.325 128.497 201.938 126.646C201.661 125.239 201.286 123.854 200.814 122.5L199.739 118.963L199.122 119.092L199.624 122.723L199.953 124.729C199.874 125.402 200.06 126.227 200.161 127.081C200.32 128.826 200.495 130.773 200.519 132.984C200.718 138.322 200.539 143.667 199.985 148.98C199.272 155.12 198.471 162.012 197.564 169.815C197.084 174.04 197.141 178.309 197.734 182.521C198.045 184.322 198.569 186.081 199.293 187.76C198.682 187.488 197.992 187.207 197.258 186.961L196.941 186.925L194.997 186.378L194.403 186.309C193.722 186.188 193.034 186.109 192.343 186.069L191.63 185.986C190.909 185.863 190.182 185.778 189.452 185.733L189.481 183.408C189.424 178.022 189.452 172.606 189.523 167.154L189.627 163.152L189.746 162.122C189.746 162.122 189.779 161.845 189.811 161.568L189.866 161.092L189.824 159.04C189.577 156.198 189.112 153.38 188.435 150.609C187.136 145.199 185.375 139.976 183.925 134.83C182.311 129.971 181.546 124.871 181.663 119.753L181.861 118.05C181.934 117.416 181.962 117.179 182.264 116.652C182.673 115.54 183.187 114.471 183.799 113.458C185.029 111.313 186.434 109.275 188 107.362C189.57 105.417 191.246 103.562 193.022 101.804C193.89 100.901 194.827 100.086 195.725 99.2674C196.623 98.4484 197.65 97.5639 198.627 96.7542L198.901 96.4649L199.108 97.4524L198.848 96.5792Z" fill="#E30613"/>
<path d="M186.761 160.17L186.701 160.685C186.676 160.829 186.659 160.975 186.651 161.121L186.536 162.111L186.648 165.296C186.236 161.233 185.746 157.162 185.137 153.077C185.586 154.703 185.944 156.352 186.208 158.018L186.761 160.17Z" fill="#E30613"/>
<path d="M223.781 168.406C222.076 164.167 221.585 159.536 222.364 155.034C222.218 159.207 222.61 163.381 223.53 167.454C223.588 167.777 223.672 168.096 223.781 168.406Z" fill="#ED7237"/>
<path d="M336.435 207.389L332.294 208.473L332.437 208.972C332.437 208.972 332.386 209.407 332.636 209.677C322.548 206.387 312.054 204.505 301.451 204.086C306.62 204.165 311.771 204.402 316.953 204.723C312.22 202.845 307.124 202.06 302.045 202.429C296.256 202.785 290.445 202.379 284.762 201.224L283.14 200.674C281.166 199.962 279.267 199.056 277.473 197.968C276.463 197.329 275.219 195.94 273.691 195.963L273.024 195.484C273.176 194.177 271.764 193.892 270.615 193.759L270.172 193.426C270.457 190.97 269.03 190.122 266.998 189.645C266.632 187.914 265.874 186.291 264.783 184.897C263.693 183.504 262.298 182.379 260.706 181.608C260.044 176.986 257.666 172.782 254.045 169.834C254.16 168.844 254.354 167.18 252.897 166.93C253.949 162.717 250.397 159.775 249.44 155.569C248.635 159.049 246.39 157.985 244.435 157.878C243.167 157.731 241.061 157.205 241.903 159.631C242.181 160.398 242.345 161.202 242.388 162.016C242.2 163.64 242.034 165.066 241.887 166.334C241.085 169.091 239.763 171.828 239.222 174.414C234.581 174.818 229.924 173.873 225.808 171.691C223.026 161.95 223.222 151.598 226.372 141.969C227.343 138.79 229.891 136.557 231.007 133.515C238.966 134.119 246.649 137.099 254.905 137.216L253.126 138.013L254.984 137.225L256.489 137.4C256.403 135.382 254.966 135.657 254.085 135.635C248 135.49 242.322 133.224 236.252 132.599C233.281 132.254 233.077 130.906 234.138 128.339C235.959 125.565 237.402 122.56 238.428 119.404C239.774 119.56 241.511 118.437 241.513 117.032C244.443 117.734 247.063 115.911 250.022 116.014C256.2 116.358 262.084 118.767 266.731 122.853C267.318 124.354 268.067 125.787 268.964 127.127L268.034 128.223C268.363 127.889 268.672 127.537 268.959 127.167C269.751 128.579 270.842 129.802 272.156 130.75C272.354 129.046 272.811 127.534 270.51 126.945L268.03 123.767C266.806 121.389 265.028 119.34 262.846 117.794C260.664 116.248 258.142 115.249 255.493 114.883C251.673 114.259 247.788 114.131 243.935 114.504C239.421 114.563 235.021 113.089 231.454 110.323L230.054 108.555C229.941 103.994 230.551 99.445 231.861 95.0753L232.693 94.1284L233.671 93.3186L234.744 92.7207L235.75 92.3558C237.078 92.6972 238.477 92.6508 239.78 92.222C240.955 91.8138 242.172 91.5377 243.408 91.399C244.664 91.304 245.863 91.0018 247.065 91.0211C248.267 91.0403 249.514 91.0246 250.697 91.2023C255.455 91.9805 259.816 94.3239 263.091 97.8613C266.402 101.446 269.112 105.544 271.115 109.994C272.239 112.413 273.235 114.897 274.266 117.426C274.272 117.573 274.255 117.72 274.216 117.862L274.262 117.465C275.052 119.645 275.782 121.657 276.431 124.02C277.956 128.854 279.315 133.749 280.386 138.691C281.021 141.174 281.621 143.612 282.326 146.183C283.031 148.754 283.626 151.232 284.473 153.618L285.696 157.253L287.47 160.992C288.111 162.194 288.851 163.34 289.681 164.42C290.431 165.542 291.308 166.574 292.294 167.494C296.044 171.249 300.502 174.223 305.409 176.244L309.259 177.655C310.49 178.119 311.704 178.38 313.142 178.788C314.58 179.196 315.719 179.409 317.048 179.724C318.376 180.039 319.595 180.261 320.981 180.422C326.099 181.207 331.292 181.392 336.453 180.975C339.034 180.874 341.587 180.327 344.156 179.984C346.72 179.473 349.244 178.773 351.705 177.89L353.584 177.265L355.363 176.468C356.59 175.929 357.742 175.34 358.895 174.751L362.214 173.13C363.318 172.616 364.575 172.16 365.718 171.65C370.442 170.081 375.245 168.763 380.107 167.702C385.018 166.668 390.005 166.039 395.019 165.821C397.53 165.632 399.965 165.754 402.453 165.762L406.414 166.222L410.375 166.682C415.424 166.833 420.402 167.915 425.058 169.874L425.104 169.478C420.654 166.78 415.683 165.053 410.518 164.411L408.657 164.194L406.676 163.964L402.715 163.504C400.141 163.205 397.447 162.892 394.733 163.098C389.515 163.086 384.307 163.584 379.185 164.584L375.359 165.384C374.08 165.677 372.832 166.053 371.589 166.391C369.05 167.101 366.553 167.95 364.107 168.934L362.964 169.443L361.338 167.889C360.54 167.154 359.686 166.212 358.52 165.193L357.36 163.774L355.05 162.582L354.453 162.192C351.319 160.141 347.435 158.325 343.723 155.726C341.797 154.431 339.95 153.023 338.191 151.51C336.406 149.938 334.547 148.317 332.94 146.604C331.361 144.831 329.944 142.919 328.706 140.894L324.949 134.877L324.057 133.569C327.856 119.879 341.668 108.116 355.023 99.5915L360.533 104.688C363.11 107.035 365.657 109.298 368.142 111.754C373.227 116.36 378.112 121.303 383.188 125.988L398.225 140.3L413.639 154.135C418.764 158.745 423.849 163.35 429.331 168.002C432.08 170.268 434.958 172.372 437.952 174.303C439.489 175.244 440.862 176.207 442.592 177.211C444.322 178.215 445.535 178.837 447.336 179.568C449.01 180.388 450.74 181.085 452.513 181.655C454.281 182.286 456.082 182.817 457.909 183.246L461.833 184.023L465.564 186.464L461.359 188.103C459.131 188.968 456.819 189.863 454.435 191.032C453.257 191.497 452.042 192.279 450.845 192.903C449.649 193.526 449.896 193.475 449.246 193.881C448.552 194.316 447.891 194.803 447.27 195.338C446.27 196.166 445.475 197.214 444.947 198.4C444.252 200.034 444.225 201.876 444.873 203.53C445.365 204.774 446.162 205.874 447.191 206.73L448.1 207.197L446.952 207.063C444.773 206.81 442.674 206.566 440.535 206.318C438.396 206.069 436.297 205.825 434.125 205.854L430.845 205.754L429.154 205.798L428.243 205.692L427.067 205.796C426.61 205.911 426.163 206.06 425.73 206.243L425.341 206.479L424.657 206.841L423.283 207.605C422.449 208.116 421.579 208.565 420.679 208.948C419.014 209.798 417.13 210.463 415.277 211.211C413.424 211.959 411.519 212.46 409.539 212.913C407.56 213.365 405.422 213.799 403.601 214.27L397.536 215.332L396.823 215.249L396.466 215.207L394.924 215.349L393.343 215.487L391.917 215.321C390.027 215.342 387.914 215.217 385.885 215.062L379.639 214.577C378.609 214.457 377.539 214.333 376.482 214.451C375.411 214.381 374.336 214.39 373.267 214.479C372.206 214.525 371.148 214.63 370.099 214.793L366.974 215.433L366.951 215.632C363.623 215.245 360.664 214.459 358.047 213.834C345.427 210.842 340.037 207.486 337.2 208.401L336.985 207.493L336.435 207.389Z" fill="#ED7237"/>
<path d="M362.437 169.144L361.973 169.331L360.739 167.863L362.437 169.144Z" fill="#ED7237"/>
<path d="M238.695 175.479L237.88 179.037C237.769 177.795 238.054 176.549 238.695 175.479Z" fill="#ED7237"/>
<path d="M370.041 109.569C366.649 106.285 363.346 102.93 360.007 99.5315L369.844 108.503C375.697 113.759 381.075 119.643 386.688 125.233C386.14 124.768 385.592 124.303 385.088 123.803C379.919 119.228 374.98 114.399 370.041 109.569Z" fill="#ED7237"/>
<path d="M240.255 173.453C240.214 173.81 240.182 174.087 239.912 174.337L239.278 174.263C239.627 174.023 239.954 173.752 240.255 173.453Z" fill="#ED7237"/>
<path d="M253.901 169.697L254.132 170.125C255.968 174.013 258.066 177.771 260.413 181.373L260.017 181.327C261.92 184.591 264.277 187.569 267.018 190.17C267.284 190.613 267.525 191.069 267.742 191.538C260.993 185.153 255.944 177.184 253.053 168.354L253.803 169.846L253.901 169.697Z" fill="#ED7237"/>
<path d="M239.874 174.33C239.295 175.507 238.859 175.456 238.741 175.443C239.052 175.01 239.436 174.634 239.874 174.33Z" fill="#ED7237"/>
<path d="M372.782 216.592C373.805 216.65 374.823 216.769 375.832 216.946L378.882 217.301L380.942 217.54C376.703 217.047 373.02 216.619 369.415 216.201L369.772 216.242C370.757 216.397 371.782 216.556 372.782 216.592Z" fill="#ED7237"/>
<path d="M247.384 159.787C246.258 160.07 245.155 160.439 244.084 160.889C244.125 160.707 244.146 160.521 244.149 160.335C245.184 159.954 246.281 159.768 247.384 159.787Z" fill="#ED7237"/>
<path d="M225.81 171.692C228.987 175.864 232.804 179.505 237.121 182.481L237.052 183.075C232.574 179.626 228.574 175.598 225.157 171.095C225.384 171.353 225.64 171.585 225.919 171.785L225.81 171.692Z" fill="#ED7237"/>
<path d="M273.052 196.29C272.07 195.414 270.741 194.416 269.759 193.539C268.88 193.001 268.187 192.206 267.775 191.261C267.559 190.792 267.317 190.335 267.051 189.892C264.31 187.292 261.953 184.314 260.05 181.05L260.446 181.096C258.099 177.494 256.001 173.736 254.165 169.848L253.934 169.42L253.184 167.928L252.892 167.332C251.308 164.378 251.257 159.635 247.446 159.272C246.317 159.24 245.192 159.423 244.131 159.81C244.129 159.997 244.107 160.183 244.067 160.365C244.383 162.643 244.203 164.964 243.538 167.166C242.873 169.369 241.74 171.402 240.216 173.125C239.916 173.465 239.584 173.776 239.225 174.054L239.858 174.127C239.42 174.431 239.037 174.808 238.725 175.24C238.084 176.31 237.799 177.556 237.91 178.799C238.057 180.131 238.008 181.478 237.767 182.796L237.13 182.401C232.813 179.425 228.995 175.784 225.819 171.613C225.539 171.412 225.283 171.18 225.056 170.922C224.354 170.187 223.851 169.286 223.594 168.303C223.485 167.993 223.402 167.674 223.343 167.35C222.424 163.278 222.032 159.103 222.177 154.931C222.339 150.915 223.084 146.945 224.39 143.144C224.81 141.949 225.19 140.748 225.689 139.562C226.557 136.88 228.446 134.648 230.948 133.348C232.259 128.146 234.772 123.323 238.284 119.267C238.284 119.267 238.482 119.29 238.55 119.057C239.385 118.431 240.865 117.439 241.573 116.879C240.589 114.637 238.188 115.602 236.559 114.771C234.929 113.939 231.988 112.995 230.787 110.888L229.145 109.132C228.153 108.994 227.144 109.026 226.163 109.227C225.211 109.478 224.222 110.728 223.373 109.746C222.523 108.764 223.339 106.932 224.197 106.108C227.264 102.753 229.873 99.0066 231.955 94.9661C230.645 99.3358 230.035 103.885 230.148 108.446L231.548 110.214C235.115 112.98 239.516 114.454 244.029 114.394C247.882 114.022 251.767 114.15 255.587 114.774C258.236 115.14 260.758 116.139 262.94 117.685C265.122 119.231 266.9 121.28 268.124 123.657L270.605 126.836C272.905 127.425 272.29 128.919 272.25 130.64C270.937 129.693 269.846 128.47 269.054 127.057C268.156 125.718 267.408 124.285 266.82 122.783C262.134 118.658 256.189 116.241 249.953 115.926C246.995 115.823 244.374 117.646 241.445 116.944C241.284 118.331 239.715 119.393 238.359 119.316C237.333 122.472 235.89 125.477 234.069 128.251C233.026 130.659 233.213 132.166 236.183 132.511C242.164 133.206 247.891 135.397 254.016 135.547C254.888 135.648 256.334 135.294 256.421 137.312L254.915 137.137C246.897 137.048 239.214 134.068 231.018 133.437C229.901 136.478 227.354 138.711 226.382 141.89C223.233 151.52 223.036 161.871 225.819 171.613C229.934 173.794 234.592 174.739 239.232 174.335C239.773 171.749 241.095 169.012 241.897 166.255C242.281 164.849 242.45 163.393 242.399 161.937C242.355 161.123 242.191 160.319 241.913 159.552C241.071 157.126 243.173 157.692 244.445 157.799C246.386 158.025 248.645 158.97 249.451 155.49C250.416 159.617 253.959 162.638 252.908 166.852C254.215 167.004 254.052 168.751 254.056 169.755C257.676 172.704 260.054 176.907 260.717 181.529C262.309 182.3 263.703 183.426 264.794 184.819C265.884 186.212 266.642 187.836 267.009 189.566C269.041 190.043 270.587 190.906 270.182 193.348C270.182 193.348 270.182 193.347 270.15 193.625L270.665 193.685C271.814 193.818 273.042 193.961 273.074 195.41C273.071 195.623 273.046 195.835 273 196.044C273.221 195.943 273.459 195.888 273.701 195.884C275.15 195.852 276.394 197.241 277.483 197.889C279.278 198.977 281.176 199.883 283.15 200.595L283.761 200.867L284.791 200.986C290.474 202.142 296.285 202.548 302.074 202.192C307.152 201.823 312.249 202.607 316.982 204.486C311.8 204.165 306.649 203.928 301.48 203.849L295.702 203.82C287.481 204.199 279.41 201.516 273.052 196.29Z" fill="#472417"/>
<path d="M232.448 93.8186L233.408 92.8062L234.505 92.0102L235.741 91.3911L236.731 91.5061C240.957 89.1037 245.801 88.0111 250.648 88.3671C255.496 88.7231 260.129 90.5118 263.958 93.5058C263.905 93.6168 263.891 93.7421 263.916 93.8622C264.528 94.3379 265.112 94.8481 265.666 95.3903C269.512 99.1046 272.674 103.467 275.007 108.278L275.748 109.85C277.76 114.049 279.456 118.392 280.822 122.844C282.339 127.758 283.674 132.851 284.617 137.858C285.173 140.331 285.684 142.839 286.284 145.278C286.884 147.716 287.405 150.145 288.203 152.606L289.303 156.267L290.652 159.515C291.192 160.583 291.795 161.619 292.459 162.615C293.089 163.645 293.825 164.605 294.656 165.48C297.92 169.188 301.876 172.225 306.302 174.421L309.694 175.979C310.841 176.474 312.081 176.859 313.277 177.279C314.45 177.727 315.657 178.082 316.887 178.34C318.11 178.682 319.352 178.947 320.608 179.134C322.818 179.551 325.055 179.811 327.302 179.912C330.071 180.035 332.844 179.955 335.6 179.672L337.433 179.443C339.311 179.18 341.127 178.748 342.944 178.317C345.353 177.611 347.718 176.759 350.024 175.768L351.719 175.001L353.344 174.146L356.617 172.238L360.022 170.225C360.576 169.901 361.146 169.605 361.731 169.34L362.194 169.153L360.496 167.872C359.606 167.246 358.624 166.369 357.395 165.544C356.041 164.614 354.64 163.755 353.198 162.969C351.612 162.102 349.78 161.287 347.878 160.384C345.858 159.395 343.895 158.296 341.998 157.091C338.005 154.413 334.327 151.292 331.035 147.788C329.389 145.883 327.92 143.831 326.649 141.658C325.405 139.586 324.257 137.366 323.109 135.506C322.747 134.822 322.34 134.172 321.974 133.527C320.29 130.588 318.279 127.849 315.977 125.364C313.995 123.207 311.534 121.546 308.793 120.514C308.02 120.23 307.228 120.004 306.422 119.837L305.551 119.736L306.422 119.837C307.262 119.85 308.098 119.947 308.918 120.127C311.829 120.973 314.5 122.494 316.712 124.566C319.415 127.202 321.768 130.173 323.714 133.408L324.605 134.716L328.362 140.733C329.601 142.759 331.018 144.67 332.597 146.444C334.244 148.161 336.222 149.796 337.847 151.35C339.607 152.863 341.454 154.271 343.379 155.565C347.092 158.165 350.896 159.972 354.11 162.031L354.706 162.422C355.936 163.19 357.098 164.064 358.177 165.033C359.343 166.052 360.197 166.994 360.995 167.729L362.621 169.283L363.764 168.773C366.209 167.79 368.707 166.941 371.245 166.23C372.489 165.893 373.737 165.516 375.015 165.223L378.842 164.423C383.964 163.423 389.171 162.926 394.39 162.938C396.971 162.836 399.66 163.189 402.372 163.344L406.333 163.804L408.313 164.034L410.175 164.25C415.34 164.893 420.31 166.619 424.761 169.317L424.715 169.714C420.059 167.755 415.081 166.673 410.032 166.522L406.071 166.062L402.11 165.601C399.621 165.593 397.187 165.471 394.676 165.661C389.662 165.879 384.675 166.508 379.764 167.541C374.902 168.603 370.099 169.921 365.375 171.49C364.232 171.999 362.975 172.455 361.871 172.969L358.551 174.591C357.399 175.179 356.247 175.768 355.02 176.308L353.241 177.105L351.362 177.73C348.9 178.612 346.377 179.312 343.812 179.823C341.243 180.167 338.691 180.713 336.11 180.815C330.948 181.232 325.756 181.046 320.638 180.262C319.37 180.114 318.103 179.967 316.705 179.564C315.306 179.16 314.118 179.022 312.799 178.628C311.48 178.234 310.345 177.982 308.916 177.494L305.065 176.083C300.158 174.063 295.701 171.089 291.951 167.333C290.964 166.413 290.087 165.382 289.338 164.26C288.508 163.18 287.768 162.033 287.127 160.831L285.353 157.093L284.129 153.458C283.283 151.071 282.613 148.544 281.983 146.022C281.352 143.5 280.678 141.013 280.043 138.531C278.813 133.57 277.613 128.694 276.087 123.86C275.42 121.655 274.686 119.682 273.918 117.305C273.006 114.79 272.01 112.306 270.767 109.873C268.764 105.423 266.055 101.326 262.743 97.7404C259.468 94.203 255.107 91.8595 250.349 91.0813C249.161 90.9433 247.973 90.8052 246.717 90.9001C245.462 90.9951 244.316 91.1832 243.06 91.2781C241.824 91.4168 240.607 91.6928 239.432 92.101C238.129 92.5298 236.73 92.5762 235.402 92.2349L234.396 92.5998L233.323 93.1977L232.346 94.0074L231.513 94.9545L231.315 94.9315L232.448 93.8186Z" fill="#472417"/>
<path d="M442.604 381.995L444.72 379.671C443.481 382.043 442.208 384.705 440.902 387.658C441.296 385.643 441.655 383.597 441.976 381.52L442.604 381.995Z" fill="#ED7237"/>
<path d="M450.133 345.854C453.582 343.124 457.17 340.57 460.759 338.016C464.348 335.463 468.076 333.086 471.735 330.62C475.394 328.155 479.127 325.739 482.855 323.362L494.051 316.152C497.859 313.784 501.559 310.962 505.11 308.726C506.891 307.568 508.671 306.41 510.562 305.345C512.452 304.28 514.288 303.329 516.169 302.343C518.05 301.357 520.022 300.623 521.964 299.805C523.906 298.986 525.874 298.292 527.906 297.725C531.945 296.535 536.073 295.673 540.25 295.145C544.432 294.596 548.648 294.335 552.866 294.363C554.993 294.369 557.106 294.494 559.224 294.58C561.341 294.665 563.462 295.072 565.601 295.321C567.74 295.569 569.879 295.818 572.057 296.071L575.107 296.425L578.367 297.045L581.627 297.665L584.587 298.45L587.512 299.192L590.439 300.254L593.327 301.313L596.02 302.669L598.752 304.031L599.109 304.072L599.815 304.555L601.193 305.478C604.32 308.145 607.189 311.099 609.763 314.302C612.808 318.011 616.381 321.253 620.367 323.925L623.699 325.998L625.129 322.672C625.175 322.477 625.198 322.278 625.198 322.078C628.204 325.919 631.338 329.696 634.654 333.293L638.907 337.802C640.389 339.218 641.87 340.635 643.479 341.986L645.861 343.949L648.335 345.802C649.186 346.423 650.091 346.929 650.947 347.511C651.785 348.13 652.675 348.677 653.607 349.145C654.77 349.825 655.973 350.434 657.209 350.968C644.783 350.809 624.793 343.187 624.793 343.187C624.793 343.187 642.163 362.99 649.891 364.891C678.425 372.221 690.442 387.307 708.316 371.68C726.189 356.053 689.25 397.566 667.587 391.556C645.925 385.547 642.371 392.641 637.817 388.298C633.263 383.955 660.139 420.759 694.448 408.447C728.758 396.135 715.041 403.975 715.041 403.975C715.041 403.975 691.776 429.374 682.037 435.107C673.397 440.365 651.464 445.324 641.341 439.852C631.218 434.38 659.498 462.556 681.783 455.953C704.068 449.349 713.059 442.445 713.059 442.445L730.284 427.224C730.284 427.224 735.205 453.971 699.779 467.598C687.036 471.303 674.113 474.357 661.06 476.748C670.192 480.585 679.566 483.82 689.12 486.432L687.026 486.831C685.466 487.131 683.766 487.255 682.13 487.507C680.495 487.758 678.774 487.719 677.113 487.847C675.44 487.981 673.76 488.014 672.083 487.945L669.556 487.932L667.06 487.642C665.397 487.449 663.666 487.489 662.002 487.295C660.339 487.102 658.635 486.904 656.932 486.706C655.229 486.508 653.644 486.324 651.704 486.099L646.435 485.487L629.189 483.964L639.678 491.125L639.124 491.06C637.483 490.669 635.667 490.056 633.887 489.488L623.256 485.965L612.733 482.213C609.23 480.922 605.828 479.443 602.383 477.999C598.938 476.555 595.635 474.927 592.292 473.294L587.279 470.825C585.65 469.993 584.083 468.968 582.462 468.057L577.69 465.254L575.323 463.855L573.063 462.228C570.022 460.068 567.007 458.031 564.059 455.762L555.698 448.608C554.299 447.438 552.984 446.172 551.762 444.818L547.924 440.88L544.121 436.985L540.593 432.802C538.194 429.954 535.721 427.057 533.075 424.26C530.429 421.464 527.699 418.698 524.709 416.103C521.585 413.327 518.125 410.956 514.409 409.044C512.197 407.933 509.807 407.22 507.347 406.939C504.278 406.602 501.187 407.334 498.596 409.013L498.205 417.559L497.955 417.289L498.275 417.647C498.415 417.775 498.533 417.924 498.625 418.09L499.262 419.167C499.573 419.605 499.83 420.157 500.136 420.634L500.956 422.214C501.972 424.179 502.983 426.184 503.951 428.223C502.155 427.091 500.215 425.822 498.636 424.554C496.644 423.063 494.768 421.423 493.024 419.647C491.544 418.201 490.276 416.554 489.257 414.753C489.291 414.651 489.303 414.543 489.294 414.436L489.317 414.238L489.345 414L488.462 412.613L487.655 408.505C487.048 405.785 486.524 403.034 485.882 400.27C485.24 397.506 484.544 394.855 483.871 392.007C482.443 386.511 480.685 381.105 478.607 375.819C477.531 373.095 476.24 370.462 474.745 367.944C473.166 365.032 470.887 362.56 468.113 360.75C466.393 359.802 464.432 359.378 462.474 359.533C460.718 359.779 459.034 360.39 457.528 361.326C455.086 363.033 452.912 365.094 451.077 367.442C447.725 371.667 444.684 376.13 441.978 380.796C443.321 371.351 443.718 361.795 443.165 352.271C443.768 351.481 444.432 350.74 445.149 350.052C446.759 348.634 448.448 347.224 450.133 345.854Z" fill="#ED7237"/>
<path d="M699.767 467.716C735.074 454.075 730.272 427.342 730.272 427.342L713.029 442.721C713.029 442.721 704.186 449.723 681.752 456.229C659.318 462.735 631.187 434.657 641.31 440.128C651.433 445.6 673.366 440.642 682.006 435.383C691.759 429.531 715.01 404.252 715.01 404.252C715.01 404.252 728.837 396.505 694.418 408.724C659.999 420.943 633.458 384.017 637.977 388.315C642.496 392.614 646.332 385.513 667.747 391.574C689.163 397.635 726.403 355.956 708.494 371.539C690.585 387.122 678.603 372.08 650.069 364.75C642.262 362.839 624.971 343.046 624.971 343.046C624.971 343.046 644.961 350.668 657.387 350.827L657.744 350.869L658.355 351.14L659.422 351.626C661.401 352.343 663.425 352.927 665.482 353.374L667.106 353.562L671.661 354.092C672.697 354.193 673.738 354.234 674.778 354.213C675.823 354.26 676.87 354.248 677.914 354.176C678.963 354.152 680.009 354.046 681.042 353.857C682.094 353.751 683.136 353.563 684.158 353.296C685.204 353.078 686.232 352.782 687.232 352.408C688.249 352.084 689.236 351.675 690.184 351.186L691.632 350.471L692.105 350.205L692.449 350.004L693.064 349.553C694.041 348.743 694.767 348.025 695.483 347.386C695.918 346.954 696.38 346.552 696.868 346.182C696.613 347.117 696.623 348.105 696.898 349.035C697.061 349.421 697.292 349.774 697.579 350.078L697.829 350.348L698.146 350.385L698.384 350.412C699.083 350.76 699.881 350.853 700.641 350.675C702.126 350.248 703.5 349.504 704.668 348.493C705.685 347.688 706.588 346.829 707.491 345.971C709.261 344.209 710.842 342.346 712.48 340.689L714.916 338.042C715.288 337.603 715.699 337.169 716.076 336.691L717.22 335.138L721.477 329.25C722.799 327.299 724.237 325.428 725.781 323.648C727.305 321.938 728.714 320.175 730.387 318.563L735.33 313.677C737.038 312.109 738.816 310.63 740.558 309.106C742.301 307.582 744.184 306.236 746.036 304.805L748.768 302.714L751.645 300.76C752.855 300.017 754.03 299.23 755.206 298.443L752.659 301.359C751.615 302.667 750.664 304.045 749.811 305.484C747.331 309.886 745.274 314.513 743.669 319.303L736.971 338.597L752.355 325.05L753.872 323.74C754.328 323.272 754.744 322.798 755.165 322.285C755.333 322.122 755.477 321.936 755.591 321.732L755.708 323.833L756.033 329.331L762.318 336.043C763.186 337.597 763.938 339.214 764.566 340.881C765.973 344.594 767.181 348.379 768.186 352.221L768.934 355.118C769.149 356.026 769.351 357.053 769.506 357.794L769.474 358.071L769.386 358.823L769.484 360.4L769.582 361.977L769.421 363.364L769.467 366.42L769.658 369.614C769.547 370.564 769.714 371.547 769.736 372.393C769.758 373.239 769.64 373.225 769.612 373.462C769.612 373.462 769.644 373.185 769.653 373.106L769.956 372.579L770.235 372.25L771.049 371.462L773.638 375.094C773.536 375.966 773.708 376.909 773.721 377.834C773.44 380.25 773.595 382.717 773.31 385.173C773.024 387.629 772.725 390.203 772.426 392.778C772.127 395.353 771.823 397.967 771.505 400.7C771.188 403.433 770.884 406.047 770.902 408.659L770.877 412.671L771.13 416.714C771.019 417.665 771.341 419.388 771.31 420.348L771.126 421.933L770.928 423.636C770.661 425.911 770.091 428.14 769.234 430.264C767.275 434.607 764.401 438.477 760.81 441.609C757.108 445.009 753.149 448.119 748.97 450.912C744.627 453.74 740.298 456.448 735.927 459.513C732.273 462.022 728.949 464.981 726.032 468.319C725.544 468.83 725.104 469.383 724.716 469.973L724.344 470.411C724.266 470.532 724.234 470.677 724.254 470.82C724.275 470.962 724.346 471.093 724.454 471.187L724.89 471.238L729.402 470.758L728.801 471.09L725.283 472.688L724.59 473.13C723.31 474.126 721.97 475.043 720.578 475.875L718.466 477.115L716.255 478.183C714.802 478.937 713.174 479.471 711.656 480.098C710.138 480.724 708.476 481.213 706.813 481.703L701.816 483.25L696.907 484.726L691.77 486.097L689.099 486.629C679.544 484.017 670.171 480.782 661.039 476.946C674.096 474.528 687.023 471.448 699.767 467.716Z" fill="#9A4A3A"/>
<path d="M441.975 381.519L442.049 380.885C444.755 376.219 447.796 371.756 451.148 367.53C452.983 365.183 455.157 363.122 457.599 361.415C459.105 360.479 460.789 359.868 462.545 359.621C464.503 359.467 466.464 359.89 468.184 360.839C470.958 362.649 473.237 365.121 474.815 368.032C476.31 370.551 477.602 373.184 478.677 375.908C480.755 381.167 482.517 386.547 483.951 392.017C484.642 394.706 485.373 397.401 485.962 400.279C486.551 403.158 487.132 405.755 487.735 408.514L488.463 412.613L488.832 414.623L488.804 414.861L488.781 415.059C488.79 415.166 488.778 415.274 488.744 415.376C489.763 417.177 491.031 418.824 492.511 420.27C494.255 422.046 496.131 423.686 498.123 425.177C499.861 426.463 501.642 427.714 503.438 428.846C502.47 426.806 501.459 424.802 500.442 422.837L499.623 421.257C499.317 420.78 499.06 420.228 498.749 419.79L498.112 418.713C498.02 418.547 497.902 418.398 497.762 418.271L497.442 417.912L497.692 418.182L498.082 409.636C500.673 407.957 503.765 407.225 506.834 407.562C509.293 407.843 511.684 408.556 513.896 409.667C517.753 411.577 521.347 413.978 524.587 416.811C527.578 419.407 530.307 422.173 532.953 424.969C535.599 427.766 538.072 430.663 540.471 433.511L544 437.694L547.802 441.588L551.64 445.527C552.862 446.88 554.177 448.147 555.576 449.316L563.938 456.47C566.886 458.74 569.901 460.776 572.942 462.936L575.201 464.564L577.568 465.963L582.341 468.765C583.961 469.676 585.528 470.702 587.158 471.533L592.17 474.002C595.513 475.635 598.807 477.343 602.261 478.708C605.716 480.073 609.108 481.631 612.611 482.921L623.135 486.673L633.765 490.197C635.546 490.765 637.361 491.377 639.002 491.769L639.557 491.833L629.068 484.673L646.314 486.195L651.582 486.807C653.523 487.033 655.068 487.212 656.81 487.415C658.553 487.618 660.177 487.806 661.88 488.004C663.584 488.202 665.247 488.395 666.939 488.351L669.434 488.641L671.962 488.654C673.639 488.723 675.318 488.69 676.991 488.556C678.652 488.427 680.334 488.462 682.009 488.215C683.683 487.968 685.344 487.84 686.905 487.54L688.998 487.141L691.67 486.608L696.876 484.644L701.785 483.167L706.782 481.62C708.445 481.13 709.998 480.548 711.625 480.015C713.253 479.481 714.771 478.855 716.223 478.1L718.435 477.032L720.546 475.792C721.939 474.96 723.279 474.043 724.559 473.047L725.252 472.606L728.77 471.007L729.371 470.676L724.863 471.115L724.428 471.065C724.319 470.97 724.248 470.84 724.228 470.697C724.207 470.555 724.239 470.41 724.317 470.289L724.689 469.851L726.005 468.197C728.937 464.886 732.271 461.956 735.931 459.475C740.302 456.41 744.631 453.701 748.974 450.874C753.267 448.2 757.347 445.198 761.178 441.894C764.769 438.762 767.642 434.892 769.602 430.549C770.459 428.425 771.028 426.196 771.295 423.921L771.493 422.218L771.677 420.633C771.788 419.682 771.545 417.968 771.497 416.999L771.245 412.955L771.269 408.944C771.389 406.187 771.583 403.48 771.873 400.985C772.163 398.489 772.485 395.717 772.793 393.063C773.102 390.409 773.373 388.072 773.677 385.458C773.981 382.843 773.926 380.549 774.088 378.119C774.194 377.208 774.062 376.269 774.005 375.379C774.005 375.379 771.456 371.751 771.416 371.746L770.602 372.535L770.323 372.864L770.058 373.074C770.058 373.074 770.03 373.311 770.016 373.43C770.044 373.193 770.09 372.797 770.141 372.361C770.191 371.925 770.11 370.551 770.062 369.582L769.871 366.388L769.825 363.332L769.986 361.945L769.888 360.368L769.791 358.791L769.878 358.039L769.91 357.761C769.755 357.021 769.554 355.994 769.338 355.086L768.591 352.188C767.586 348.347 766.378 344.562 764.971 340.848C764.21 339.181 763.323 337.575 762.317 336.044L756.054 330.177L755.729 324.68L755.612 322.579C755.498 322.783 755.355 322.969 755.187 323.132C754.766 323.645 754.349 324.118 753.893 324.587L752.376 325.896L736.992 339.444L743.69 320.15C745.252 315.29 747.277 310.592 749.737 306.119C750.589 304.68 751.541 303.301 752.584 301.994L755.131 299.078C753.956 299.865 752.781 300.652 751.57 301.394L748.694 303.348L745.962 305.44C744.109 306.87 742.191 308.173 740.484 309.741C738.776 311.309 736.963 312.744 735.256 314.312L730.312 319.197C728.719 320.819 727.309 322.582 725.707 324.283C724.162 326.063 722.725 327.933 721.403 329.884L717.146 335.773L716.002 337.326C715.625 337.804 715.213 338.238 714.841 338.677L712.406 341.324C710.759 343.06 709.173 344.963 707.416 346.606C706.513 347.464 705.611 348.323 704.594 349.128C703.426 350.139 702.052 350.883 700.567 351.309C699.807 351.488 699.008 351.395 698.309 351.047L698.071 351.02L697.754 350.983L697.505 350.713C697.217 350.409 696.986 350.056 696.823 349.67C696.548 348.74 696.538 347.752 696.793 346.816C696.306 347.187 695.843 347.589 695.409 348.02C694.692 348.66 693.967 349.378 692.989 350.188L692.375 350.639L692.03 350.839L691.558 351.106L690.11 351.821C689.162 352.31 688.174 352.719 687.158 353.043C686.157 353.417 685.129 353.713 684.084 353.931C683.061 354.198 682.019 354.386 680.968 354.492C679.935 354.68 678.889 354.787 677.839 354.811C676.796 354.882 675.749 354.895 674.704 354.848C673.663 354.869 672.622 354.828 671.586 354.726L667.031 354.197L665.407 354.008C663.351 353.562 661.326 352.978 659.348 352.261L658.28 351.775L657.669 351.504L657.313 351.462C656.076 350.928 654.874 350.319 653.711 349.638C652.779 349.171 651.889 348.624 651.051 348.005C650.195 347.423 649.29 346.917 648.439 346.296L645.965 344.443L643.583 342.48C641.974 341.129 640.493 339.712 639.011 338.296L634.758 333.787C631.442 330.19 628.308 326.413 625.302 322.571C625.302 322.772 625.279 322.971 625.233 323.166L623.803 326.492L620.471 324.419C616.413 321.605 612.803 318.194 609.764 314.303C607.211 311.12 604.367 308.182 601.269 305.527L599.891 304.604L599.184 304.121L598.828 304.079L596.095 302.718L593.403 301.362L590.515 300.303L587.587 299.241L584.663 298.499L581.703 297.714L578.443 297.094L575.183 296.474L572.133 296.12C569.954 295.867 567.815 295.618 565.676 295.37C563.537 295.121 561.438 294.877 559.299 294.629C557.16 294.38 555.068 294.418 552.941 294.412C548.723 294.384 544.508 294.645 540.325 295.194C536.148 295.722 532.02 296.585 527.982 297.774C525.949 298.341 523.809 299.136 522.04 299.854C520.27 300.571 518.161 301.45 516.245 302.392C514.329 303.333 512.452 304.28 510.637 305.393C508.821 306.507 506.971 307.577 505.186 308.775C501.634 311.011 497.934 313.833 494.126 316.201L482.777 323.353C479.048 325.73 475.355 328.151 471.656 330.611C467.958 333.072 464.304 335.498 460.68 338.007C457.057 340.517 453.503 343.115 450.055 345.845C448.37 347.215 446.681 348.625 445.141 350.132C444.423 350.819 443.76 351.561 443.157 352.35L442.971 349.8L443.685 348.839C445.098 347.051 446.635 345.364 448.286 343.793C451.44 340.614 454.752 337.596 458.209 334.749C461.636 331.856 465.059 329.002 468.587 326.28C472.115 323.559 475.642 320.838 479.205 318.16C482.768 315.483 486.401 312.895 489.959 310.257C493.517 307.619 496.759 304.945 500.524 302.251C502.412 300.865 504.329 299.562 506.312 298.387C508.296 297.213 510.283 295.999 512.279 295.066C514.274 294.134 516.534 292.991 518.578 291.984C520.622 290.977 522.806 290.147 525.095 289.45C529.531 287.924 534.095 286.802 538.733 286.097C543.346 285.392 548.005 285.021 552.672 284.987C557.271 284.935 561.87 285.161 566.443 285.663C568.74 285.93 570.998 286.193 573.256 286.455L576.821 286.869L580.076 287.529L583.332 288.188L586.788 289.192L590.284 290.2L593.58 291.547L596.876 292.893L600.047 294.626L603.213 296.4L603.546 296.639L603.88 296.878L604.542 297.397L605.827 298.43C609.405 301.627 612.61 305.218 615.382 309.134C616.358 310.412 617.343 311.61 618.327 312.809C618.456 312.238 618.642 311.681 618.882 311.147L621.299 305.888L624.493 310.876C628.708 317.64 633.313 324.153 638.285 330.383C639.51 331.93 640.824 333.408 642.182 334.85C643.539 336.293 644.902 337.695 646.358 338.989L648.536 340.968L650.813 342.798C651.561 343.416 652.355 343.978 653.186 344.479C653.969 345.063 654.794 345.588 655.653 346.05C657.316 347.018 659.04 347.876 660.815 348.617C662.6 349.331 664.441 349.894 666.32 350.301L667.667 350.457L669.172 350.632C670.162 350.747 671.152 350.862 672.103 350.973L674.983 351.066C675.951 351.11 676.922 351.076 677.885 350.962C678.837 350.93 679.786 350.839 680.727 350.69C681.67 350.519 682.609 350.387 683.522 350.132C684.455 349.932 685.372 349.662 686.265 349.326C687.151 349.024 688.012 348.655 688.842 348.221L690.043 347.557L690.241 347.581L690.546 347.375L691.161 346.925L693.112 344.984C693.891 344.176 694.742 343.442 695.655 342.79C696.789 341.962 698.144 341.49 699.546 341.436L701.079 341.373L701.335 342.968C701.404 343.824 701.303 344.686 701.041 345.503L700.898 346.731C701.252 346.451 701.645 346.176 702.003 345.856C702.362 345.536 703.588 344.314 704.367 343.481C705.886 341.811 707.402 339.819 709.004 338.119L711.251 335.369L712.377 333.974L713.264 332.552L716.751 326.734C717.996 324.664 719.354 322.665 720.819 320.744C722.33 318.792 723.776 316.712 725.516 314.867L730.37 309.369C732.061 307.598 733.881 305.762 735.588 304.194C737.296 302.626 739.22 300.923 741.056 299.289L743.86 296.926L746.808 294.699C748.779 293.282 750.69 291.697 752.771 290.374C754.851 289.05 756.897 287.682 759.013 286.402C761.129 285.122 763.941 283.723 766.448 282.529C769.215 281.051 772.179 279.976 775.25 279.336L768.258 300.122C767.85 300.75 767.351 301.314 766.779 301.797C766.043 302.404 765.415 303.132 764.923 303.95C764.835 304.381 764.866 304.829 765.013 305.245C765.543 309.321 766.12 313.683 766.711 317.927C766.838 318.905 766.842 319.909 766.925 320.923L767.094 323.953L767.177 324.967C767.949 325.39 768.657 325.918 769.283 326.536C770.396 327.655 771.343 328.928 772.096 330.315C773.233 332.415 774.214 334.595 775.031 336.839C776.524 340.924 777.782 345.091 778.8 349.32L779.554 352.499C779.787 353.61 779.988 354.637 780.193 355.986L780.124 356.58L780.05 357.213L779.963 357.966L780.021 359.538L780.079 361.111L780.084 362.797L780.001 363.51L783.556 361.595L783.546 369.623C783.51 372.349 783.633 375.093 783.537 377.651C783.44 380.209 783.214 383.194 782.777 385.913C782.341 388.632 781.923 391.193 781.461 393.789L780.097 401.378C779.802 403.913 779.517 406.369 779.232 408.825L779.006 412.492L778.988 416.103C778.795 417.767 779.05 418.68 778.964 420.115L778.701 422.373L778.448 424.551C777.937 427.434 777.03 430.233 775.755 432.869C773.115 437.915 769.367 442.296 764.792 445.686C760.485 448.892 755.899 451.704 751.089 454.09C746.436 456.48 741.756 458.747 737.287 461.278L736.682 461.649L733.745 463.436L730.824 465.425C729.339 466.489 727.94 467.669 726.64 468.953C728.431 468.399 730.261 467.848 731.977 467.245C733.18 466.826 734.361 466.347 735.516 465.81C736.053 465.58 736.568 465.304 737.057 464.985L737.858 464.315L740.769 466.902L737.903 470.141L734.683 472.979L731.222 475.467L728.113 477.354C726.733 478.519 725.449 479.895 723.969 480.887L721.609 482.54L719.193 483.985C717.589 485.003 715.903 485.691 714.234 486.581C712.565 487.471 710.845 488.114 709.168 488.722C707.492 489.33 705.806 490.017 704.13 490.625L699.016 492.48L694.005 494.146C692.219 494.661 690.284 495.078 688.428 495.505C686.572 495.931 684.743 496.121 682.901 496.428C681.059 496.736 679.204 496.802 677.336 496.986C675.468 497.17 673.658 497.201 671.809 497.227C669.959 497.253 668.109 497.279 666.273 497.186C664.437 497.093 662.602 497 660.779 496.788L656.818 496.328L650.856 500.653C651.024 500.952 651.254 501.212 651.53 501.414C651.256 501.293 650.972 501.193 650.682 501.115L648.263 500.513L645.49 500.19L644.659 500.094L643.787 499.993L642.428 499.594L639.755 498.761L636.907 497.708C634.942 496.998 633.308 496.206 631.59 495.444L611.043 486.392L600.735 481.822C597.29 480.378 593.908 478.741 590.481 477.138L585.38 474.739L580.382 472.151L575.348 469.519L572.849 468.225L570.542 466.311L560.787 460.44L551.431 453.893C549.875 452.794 548.377 451.615 546.944 450.361L542.559 446.64C541.094 445.426 539.629 444.212 538.174 442.918L534.107 438.873C531.487 436.2 528.898 433.611 526.299 431.101C523.7 428.591 520.969 426.186 518.254 423.984C516.118 422.278 513.835 420.764 511.433 419.458C512.363 421.131 513.248 422.84 514.138 424.509C515.028 426.178 516.507 429 517.703 431.146C517.965 431.658 518.261 432.214 518.567 432.691L519.44 434.158C519.751 434.595 520.052 435.112 520.262 435.377L520.612 435.82L526.132 446.015L517.044 445.802C515.94 445.751 514.842 445.623 513.756 445.42C512.845 445.315 511.855 445.199 511.06 444.786L508.703 443.99L506.524 443.054C503.756 441.812 501.093 440.348 498.562 438.677C496.074 437.085 493.675 435.359 491.374 433.506C489.036 431.601 486.835 429.534 484.787 427.321C482.391 424.802 480.486 421.858 479.172 418.639L478.717 417.021L478.532 416.197L478.555 415.999L478.597 415.642L478.272 413.597L477.703 409.516C477.289 406.859 476.919 404.166 476.445 401.341C475.97 398.516 475.538 396.017 475.068 393.152C474.077 387.858 472.884 382.581 471.421 377.554C470.722 375.085 469.834 372.673 468.766 370.34C467.909 368.283 466.617 366.434 464.98 364.922C464.339 364.451 463.579 364.168 462.786 364.105C461.786 364.112 460.8 364.341 459.899 364.773C457.666 365.951 455.613 367.443 453.804 369.204C450.614 372.125 447.62 375.43 444.667 378.74L442.55 381.064L441.975 381.519Z" fill="#472417"/>
<path d="M368.087 256.632L369.973 254.563L371.736 252.519C372.334 251.866 372.853 251.204 373.366 250.581L375.099 251.907L388.959 262.188C393.688 265.709 398.497 269.238 403.08 272.982C405.431 274.861 407.575 276.797 409.744 278.855C411.914 280.914 413.96 282.998 416.006 285.083C418.052 287.167 419.212 288.587 420.731 290.369C418.562 291.763 411.418 296.232 401.202 302.271L400.892 301.833L398.442 303.917L391.428 307.96L390.819 307.327L388.549 309.592C355.404 328.463 305.166 354.179 276.352 355.126C274.48 349.128 272.662 342.654 271.125 335.852C270.567 333.739 270.198 331.729 269.743 329.428L269.033 326.215C268.884 325.073 268.617 323.918 268.543 322.826C268.053 318.687 267.853 314.518 267.945 310.351C310.995 312.303 348.916 277.889 368.087 256.632Z" fill="#ED7237"/>
<path d="M411.118 277.412C409.252 275.509 407.222 273.627 405.179 271.864C409.71 275.488 413.85 279.575 417.532 284.059L417.294 284.031C415.364 281.639 413.252 279.426 411.118 277.412Z" fill="#ED7237"/>
<path d="M187.339 677.224L187.307 677.502C187.226 678.67 186.817 679.791 186.128 680.737C186.156 680.499 186.381 680.285 186.493 680.016C186.856 679.112 187.139 678.178 187.339 677.224Z" fill="#999999"/>
<path d="M183.21 683.729L182.861 683.97C182.613 684.138 182.34 684.269 182.053 684.357C181.757 684.454 181.453 684.526 181.145 684.573C180.826 684.558 180.509 684.521 180.194 684.463L179.125 684.338L178.689 684.288L178.095 684.219C177.73 684.091 177.372 683.942 177.023 683.773C176.704 683.637 176.401 683.467 176.118 683.266L175.188 682.636C174.545 682.177 173.933 681.676 173.355 681.139L173.157 681.116C174.502 682.322 176.117 683.188 177.866 683.643C179.615 684.098 181.448 684.127 183.21 683.729Z" fill="#999999"/>
<path d="M41.5203 514.594L40.9059 515.045C40.5964 515.29 40.9059 515.045 40.6802 515.259L40.322 515.579L37.7281 518.208C36.1866 520.098 34.8575 522.151 33.7649 524.331C33.473 524.862 33.2087 525.408 32.9728 525.966L32.4064 527.385L31.84 528.805L31.8078 529.082C31.8078 529.082 31.7479 529.597 31.7663 529.439L31.7157 529.874L31.6052 530.825C31.0304 533.184 30.7491 535.606 30.7676 538.034C30.6341 539.183 30.8037 540.487 30.8821 541.54L31.2314 544.752L31.1175 548.151L31.9864 551.383C33.2624 555.582 34.9856 559.631 37.1265 563.462C41.2938 570.83 46.2069 577.75 51.7883 584.114C57.2331 590.407 63.0405 596.377 69.1811 601.993C75.2345 607.594 81.5136 612.98 88.0763 617.998C94.6391 623.016 101.299 627.885 108.204 632.38C111.632 634.665 115.152 636.841 118.727 638.902L124.11 641.977L128.146 644.212L143.116 655.305C144.711 656.775 146.302 658.285 147.884 659.874C153.527 665.548 159.006 671.604 164.808 677.296L165.21 677.985L165.989 678.879L166.871 679.583L167.621 680.032L171.269 683.186C171.922 683.763 172.611 684.299 173.331 684.79C173.698 685.065 174.085 685.312 174.49 685.527C174.889 685.778 175.306 686.001 175.737 686.194L176.968 686.658L177.602 686.732L178.354 686.819C178.824 686.914 179.301 686.969 179.78 686.985C180.256 687.04 180.731 687.095 181.246 687.155C181.764 687.063 182.276 686.935 182.776 686.771C183.279 686.626 183.754 686.396 184.18 686.091C184.603 685.791 184.994 685.446 185.343 685.062C185.601 684.772 185.838 684.464 186.052 684.141C187.137 683.456 188.033 682.512 188.66 681.393C189.089 680.567 189.395 679.683 189.567 678.768C190.567 680.169 191.401 681.68 192.054 683.272C192.613 684.646 192.852 686.129 192.755 687.609C192.561 689.225 191.741 690.701 190.471 691.72C189.769 692.261 189.002 692.711 188.187 693.06C187.27 693.355 186.369 693.852 185.421 694.063C183.454 694.593 181.425 694.856 179.388 694.848C177.159 694.774 174.948 694.422 172.806 693.802C170.536 693.092 168.345 692.151 166.267 690.995C161.706 688.351 157.584 685.014 154.048 681.104C150.191 676.642 146.215 672.165 141.882 667.647C139.529 665.447 137.193 663.088 134.637 660.904L126.353 654.803L108.837 643.173L90.1822 630.969C83.8397 626.819 77.3968 622.498 70.928 618.053C64.4593 613.608 57.8856 609.03 51.6323 603.767C48.4291 601.321 45.4268 598.623 42.6541 595.699C39.959 592.62 37.425 589.405 35.0621 586.065C30.2062 579.301 26.0032 572.092 22.5096 564.534C18.9397 557.124 16.7404 549.13 16.0182 540.937C15.7455 537.031 16.2012 533.109 17.3622 529.371C18.7686 525.677 20.8377 522.271 23.4678 519.321C25.994 516.482 29.1324 514.254 32.6458 512.805C36.1593 511.357 39.956 510.725 43.7492 510.959L45.294 511.139C44.2955 511.785 43.297 512.432 42.3731 513.128L41.5203 514.594Z" fill="#999999"/>
<path d="M163.404 618.925L163.119 618.611L164.738 619.882C164.197 619.71 163.707 619.405 163.315 618.995L163.404 618.925Z" fill="#ED7237"/>
<path d="M220.022 548.304L221.099 548.711C221.126 548.473 222.881 548.918 222.953 548.645C224.418 548.898 225.867 549.241 227.29 549.671L232.726 551.948C235.718 553.612 238.296 555.931 240.264 558.732C242.233 561.534 243.543 564.744 244.094 568.123L239.438 573.644C236.347 577.099 233.51 580.783 230.608 584.34C227.706 587.897 225.013 591.719 222.256 595.413C219.498 599.107 216.859 602.815 214.347 606.819C211.834 610.822 209.428 614.597 206.995 618.61C204.562 622.623 202.48 626.717 200.434 630.855C198.387 634.993 196.446 639.263 194.935 643.624C194.195 645.505 193.524 647.475 192.903 649.37C179.732 644.908 163.893 635.762 160.911 617.551C161.689 618.148 162.404 618.823 163.046 619.565L163.395 619.325L163.169 619.539C163.354 619.825 163.582 620.082 163.843 620.3C164.254 620.686 164.757 620.959 165.304 621.092C165.852 621.226 166.424 621.217 166.966 621.064C170.526 619.63 173.597 617.199 175.809 614.063C178.923 610.41 181.995 605.388 185.448 600.209C188.9 595.03 193.52 588.782 197.703 581.801C202.396 574.221 206.046 566.044 208.557 557.49C209.11 555.413 209.543 553.305 209.853 551.177C209.999 550.772 210.049 550.338 210 549.91C209.926 549.495 209.976 549.068 210.143 548.682C212.62 548.441 215.111 548.355 217.599 548.424L220.022 548.304Z" fill="#ED7237"/>
<path d="M192.622 649.375C191.812 651.851 191.077 654.375 190.422 656.908C190.053 658.35 189.725 659.798 189.396 661.245C189.005 662.526 188.693 663.831 188.46 665.151C188.206 666.659 188.029 668.179 187.931 669.706L187.811 670.736C187.554 672.954 187.287 675.251 187.241 677.374C187.041 678.327 186.758 679.262 186.394 680.166C186.362 680.443 186.137 680.657 186.03 680.886C185.647 681.47 185.137 681.96 184.538 682.318L184.259 682.647C184.029 682.902 183.834 683.2 183.648 683.419L183.285 683.779C181.505 684.135 179.666 684.059 177.922 683.556C176.177 683.053 174.58 682.138 173.263 680.888L169.818 677.718L169.58 677.69L168.979 677.339L168.505 676.923L168.12 676.436L167.819 675.92L167.618 675.575C162.042 669.668 156.987 663.42 151.355 657.306C145.856 650.982 139.554 645.404 132.608 640.716C130.782 639.5 129.126 638.545 127.366 637.457L122.283 634.217C118.93 631.98 115.621 629.709 112.321 627.359C105.77 622.583 99.3383 617.821 93.1154 612.642C80.6074 602.578 69.0749 591.359 58.6707 579.133C53.596 573.142 49.1584 566.639 45.4294 559.73C43.6676 556.391 42.2056 552.903 41.0605 549.306L40.3648 546.656L39.9114 543.994L39.6394 541.152C39.7499 540.202 39.5997 539.421 39.5425 538.531C39.53 536.89 39.7201 535.254 40.1086 533.659L40.2099 532.788L40.7763 531.368L41.3427 529.949C41.5037 529.569 41.694 529.202 41.9119 528.851C42.6493 527.367 43.5388 525.963 44.5663 524.663L46.2086 522.967L46.2362 522.729L46.811 522.274L48.0093 521.289C50.6832 519.194 53.7727 517.692 57.0723 516.883L59.5621 516.53L62.0594 516.459L64.6341 516.758L67.4233 517.283C74.7894 518.967 81.7197 522.179 87.7651 526.712C88.5021 527.279 89.2787 527.851 89.9668 528.493L92.0147 530.217L96.2284 534.721C98.8066 537.57 101.137 540.634 103.193 543.88C107.335 550.383 110.617 558.071 114.28 565.241C115.929 568.323 117.583 571.366 119.4 574.387L121.637 599.697L122.4 579.312C123.925 581.737 125.454 584.123 127.107 586.483L129.7 590.076L130.844 607.873L132.473 593.851C134.69 596.729 137.048 599.495 139.539 602.139L140.132 614.653L142.707 605.277C145.68 608.172 148.909 610.792 152.356 613.102C154.04 614.287 155.79 615.375 157.598 616.361C158.464 616.847 159.3 617.387 160.1 617.977C163.608 635.807 179.451 644.914 192.622 649.375Z" fill="#E30613"/>
<path d="M129.538 645.015C134.513 647.908 139.136 651.369 143.314 655.327L128.296 644.308L129.538 645.015Z" fill="#E30613"/>
<path d="M388.599 309.518L386.368 311.788C395.79 322.393 400.921 336.128 400.759 350.313C400.379 370.864 388.917 391.772 366.64 412.467C340.811 436.444 319.58 444.334 300.865 451.312C287.77 456.214 276.431 460.517 266.228 469.207C251.778 480.927 239.978 495.578 231.606 512.193C225.76 523.863 220.599 535.864 216.149 548.134L216.466 548.171C214.66 548.161 212.766 548.222 210.74 548.388L209.908 548.292C210.118 546.356 210.21 544.409 210.184 542.463C210.232 539.979 210.107 537.596 210.076 535.103C210.044 532.611 210.083 530.207 210.051 527.714C209.999 517.461 211.685 507.272 215.038 497.582C215.423 496.337 215.887 495.117 216.426 493.93L217.972 490.296C219.005 487.967 220.404 485.601 221.64 483.255C222.827 480.884 224.179 478.6 225.687 476.419L230.066 469.822C231.675 467.721 233.324 465.624 234.81 463.549L237.261 460.421L239.891 457.475C241.645 455.511 243.364 453.503 245.113 451.578L250.654 446.04C252.438 444.16 254.362 442.456 256.256 440.669C258.15 438.882 260.044 437.095 261.959 435.471C265.942 432.28 269.702 428.944 273.733 426.04L279.542 421.656C281.583 420.328 283.633 418.92 285.656 417.75L297.736 410.523L309.193 403.825C312.868 401.562 316.451 399.409 319.896 397.401L338.733 386.262C344.343 382.899 349.385 380.274 353.396 377.889C357.406 375.505 360.761 373.928 362.991 372.701L366.338 370.842L366.086 370.251L362.477 371.598C360.125 372.489 356.644 373.77 352.297 375.594C347.951 377.417 342.743 379.742 336.832 382.588C330.921 385.434 324.088 388.615 317.111 392.34C310.63 395.602 303.67 399.53 296.445 403.669C296.33 403.349 296.191 403.037 296.032 402.737C295.482 401.59 294.651 400.449 294.034 398.852L291.701 393.362C290.023 389.153 287.577 384.292 285.188 378.595L283.311 374.362C282.724 372.849 282.102 371.291 281.489 369.654C280.131 366.485 279.008 363.023 277.736 359.463C277.294 358.086 276.856 356.671 276.374 355.29C305.188 354.343 355.427 328.626 388.571 309.756L388.599 309.518Z" fill="#E30613"/>
<path d="M347.957 493.118C353.445 489.42 358.828 485.589 364.175 481.714C366.81 479.772 369.423 477.667 372.067 475.646C373.38 474.654 374.643 473.594 375.848 472.472L379.559 469.21L379.034 468.547C376.325 470.44 373.681 472.461 370.876 474.143C368.071 475.824 365.425 477.524 362.597 479.403L353.976 484.503L345.363 489.524C342.558 491.206 339.714 492.882 336.76 494.466L328.166 499.329C325.287 500.961 322.438 502.678 319.577 504.152L315.289 506.504L311.033 508.579C306.948 510.914 302.902 513.254 299.058 515.939L296.137 517.928L293.326 520.01C291.473 521.44 289.551 522.783 287.769 524.302C285.986 525.821 284.174 527.256 282.391 528.775L279.79 531.123C273.672 537.477 267.485 542.7 262.603 547.753C257.72 552.806 254.586 556.978 250.751 560.266L248.139 563.053L243.799 567.928C243.247 564.549 241.938 561.339 239.969 558.538C238 555.737 235.423 553.417 232.43 551.754L232.957 550.33C236.555 540.792 239.658 533.083 242.659 526.607C251.815 507.237 260.347 498.072 278.007 482.902C287.423 474.763 298.278 470.484 310.862 465.483C335.957 456.551 358.995 442.652 378.598 424.618C445.485 363.421 404.844 307.233 400.643 301.927C410.859 295.888 417.923 291.41 420.172 290.025C421.726 291.852 423.236 293.713 424.627 295.561L433.425 309.671L434.423 311.794C435.36 313.749 436.138 315.686 436.837 317.614C438.674 324.387 440.128 331.257 441.191 338.193C441.298 339.691 441.335 341.1 441.404 342.232C441.473 343.364 441.455 345.249 441.382 346.565C441.36 349.172 441.205 351.201 441.078 352.632C440.952 354.062 440.835 354.731 440.835 354.731C440.835 354.731 440.917 354.018 441.083 352.592C441.249 351.166 441.479 349.186 441.545 346.544C441.692 345.276 441.863 343.811 441.646 342.22C441.65 341.994 441.676 341.768 441.724 341.547C442.059 344.195 442.279 346.79 442.504 349.345L442.689 351.896C443.243 361.42 442.845 370.976 441.503 380.421L441.429 381.055C441.186 383.141 440.828 385.187 440.354 387.193C439.192 393.063 437.648 398.851 435.731 404.52L435.676 404.996C435.089 406.252 434.387 407.455 433.75 408.786C433.114 410.117 432.382 411.237 431.666 412.559C430.95 413.881 430.258 415.004 429.503 416.322C428.024 418.679 426.506 421.032 424.909 423.375C423.312 425.719 421.724 427.983 420.092 430.283C418.46 432.582 416.793 434.837 415.284 437.111C411.915 441.577 408.467 446.033 404.878 450.313L403.801 451.634L404.489 453.319C406.856 459.586 410.072 465.498 414.049 470.89C418.19 476.562 423.675 481.118 430.012 484.146L430.329 484.182C430.264 484.185 430.201 484.2 430.142 484.228C430.084 484.256 430.032 484.295 429.989 484.344C427.69 489.617 429.366 508.358 428.731 513.825C427.608 523.489 429.323 529.108 432.373 530.506C429.894 533.55 427.238 536.445 424.42 539.177C423.296 540.211 422.278 541.377 421.088 542.282L417.556 545.043L416.672 545.744C416.672 545.744 416.411 545.914 416.672 545.744L416.15 546.084L414.083 547.29C412.875 548.075 411.587 548.733 410.242 549.252C408.897 549.821 407.501 550.263 406.074 550.574C404.747 550.942 403.333 551.018 401.98 551.262C399.134 551.374 396.287 551.043 393.543 550.282C387.721 548.588 382.27 545.817 377.471 542.112C372.438 538.436 367.624 534.263 362.819 530.012C360.565 527.983 358.186 525.66 355.872 523.464C353.558 521.268 351.618 518.955 349.451 516.535C347.283 514.116 345.618 511.513 343.662 508.998C341.707 506.482 340.272 503.626 338.537 500.935L337.769 501.328C338.393 502.524 338.972 503.756 339.592 504.992C338.298 502.995 337.289 501.312 336.586 500.106L339.586 498.127C342.473 496.776 345.248 495.011 347.957 493.118Z" fill="#E30613"/>
<path d="M396.009 305.883C397.913 308.152 440.181 360.355 374.9 420.172C355.883 437.716 333.485 451.192 309.077 459.774C295.985 464.997 284.662 469.503 274.406 478.307C255.715 494.401 247.034 503.469 237.324 524.5C234.109 531.433 230.757 539.554 227.025 549.559L227.303 549.591C225.879 549.161 224.431 548.818 222.966 548.565C237.935 508.875 247.793 493.481 270.412 473.989C279.735 465.959 290.562 461.918 303.11 457.234C328.417 448.928 351.597 435.178 371.019 416.951C394.645 395.007 406.815 372.495 407.17 350.095C407.412 334.502 401.825 319.379 391.503 307.688L398.517 303.646L396.009 305.883Z" fill="#E30613"/>
<path d="M227.022 549.558C230.754 539.554 234.106 531.432 237.321 524.5C247.029 503.829 256.026 494.115 274.403 478.306C284.659 469.502 296.021 465.001 309.074 459.773C333.482 451.191 355.88 437.715 374.897 420.171C440.178 360.354 397.91 308.151 396.005 305.882L398.491 303.843L400.941 301.759L401.251 302.196C405.443 307.581 446.301 363.634 379.206 424.887C359.603 442.922 336.565 456.82 311.47 465.752C298.846 470.749 288.027 475.072 278.615 483.171C260.796 498.323 252.423 507.507 243.267 526.877C240.178 533.423 237.035 541.126 233.447 550.585L232.92 552.009L227.484 549.732L227.022 549.558Z" fill="white"/>
<path d="M407.146 350.293C406.792 372.692 394.621 395.205 370.995 417.149C351.573 435.376 328.393 449.126 303.086 457.431C290.499 462.111 279.711 466.157 270.388 474.186C247.77 493.678 237.912 509.072 222.942 548.762L220.011 548.422L217.334 548.311L216.146 548.173C220.596 535.903 225.757 523.903 231.603 512.233C240.031 495.654 251.823 481.014 266.225 469.246C276.437 460.477 287.807 456.258 300.862 451.352C319.577 444.374 340.808 436.483 366.637 412.507C388.914 391.812 400.376 370.903 400.756 350.353C400.918 336.168 395.787 322.432 386.365 311.828L388.596 309.558L390.866 307.292L391.475 307.925C401.789 319.605 407.377 334.712 407.146 350.293Z" fill="white"/>
<path d="M585.258 584.962C584.976 585.624 584.66 586.271 584.311 586.9C583.965 587.525 583.574 588.124 583.139 588.69C582.735 589.278 582.282 589.83 581.783 590.339C581.283 590.843 580.769 591.466 580.322 591.856L578.496 593.41L578.473 593.608C580.894 591.079 582.796 588.53 583.917 587.175C584.414 586.469 584.862 585.73 585.258 584.962Z" fill="#999999"/>
<path d="M579.882 598.749C580.564 598.23 581.218 597.676 581.842 597.09L583.563 595.403C584.21 594.781 584.811 594.113 585.361 593.404C585.92 592.729 586.443 592.026 586.931 591.298C587.515 590.528 588.015 589.698 588.423 588.822C590.119 585.622 590.874 582.007 590.598 578.396C590.556 577.502 590.43 576.614 590.223 575.743L589.917 574.583L589.783 574.006C589.783 574.006 589.82 573.689 589.811 573.768L589.847 573.451C589.227 571.804 588.427 570.23 587.462 568.758C583.726 563.325 579.237 558.451 574.13 554.282C563.896 546.308 552.61 540.139 542.6 532.312C540.053 530.42 537.608 528.394 535.276 526.242L531.854 522.874C530.771 521.825 529.712 520.578 528.643 519.41C524.311 514.892 520.245 509.803 516.413 504.781C512.552 499.791 508.989 494.578 505.742 489.169C504.973 487.835 504.161 486.536 503.406 485.084L502.29 482.947L501.731 481.878L501.47 481.366L501.497 481.128C500.396 478.28 499.461 475.37 498.696 472.413C498.229 470.764 497.667 469.144 497.012 467.56C496.287 465.741 495.309 464.033 494.109 462.486C493.768 462.069 493.398 461.677 493.001 461.313L492.567 460.901L492.238 460.622L491.921 460.586L490.622 459.672L489.221 458.947C487.224 458.051 485.041 457.646 482.855 457.766L482.499 457.724C483.151 456.29 483.955 454.93 484.897 453.667C485.492 452.692 486.345 451.901 487.362 451.381C488.379 450.862 489.52 450.634 490.659 450.724C491.748 450.991 492.77 451.479 493.663 452.157L494.326 452.675L495.093 453.327L496.306 454.632C497.97 456.56 499.449 458.641 500.723 460.846C503.432 465.175 505.808 469.947 508.109 474.671L514.96 488.955C516.163 491.384 517.371 493.772 518.702 496.135C519.405 497.34 520.108 498.546 520.969 499.77L522.3 501.45C522.685 501.937 523.224 502.481 523.683 503.016C527.419 506.958 531.384 510.676 535.557 514.151C539.653 517.598 543.802 520.93 548.093 524.078C552.384 527.227 556.719 530.34 561.152 533.304C565.585 536.268 570.062 539.197 574.823 541.757C577.166 542.91 579.443 544.193 581.642 545.601C583.817 547.009 585.876 548.591 587.797 550.33C591.408 553.773 594.625 557.607 597.388 561.762C600.407 565.975 602.699 570.665 604.166 575.637C604.849 578.033 605.062 580.539 604.794 583.016C604.41 585.406 603.515 587.684 602.171 589.697C599.414 593.829 595.44 597.001 590.799 598.773C586.118 600.671 581.11 601.631 576.059 601.596L575.821 601.569L577.769 600.35C578.526 599.715 579.18 599.269 579.882 598.749Z" fill="#999999"/>
<path d="M442.078 487.031L442.395 487.068L442.91 487.127L443.504 487.196L444.098 487.266L444.913 487.159C445.465 487.093 446.012 486.995 446.553 486.868C448.449 486.355 450.275 485.61 451.99 484.65C457.805 481.361 463.252 477.458 468.236 473.009L468.767 472.589C474.232 481.591 476.826 492.045 476.204 502.558C474.3 501.767 472.282 501.289 470.226 501.141C466.082 500.794 461.931 501.711 458.318 503.771L457.62 504.252L457.232 504.488L456.917 504.773L455.984 505.548L454.158 507.102C452.946 508.205 451.722 509.067 450.526 510.373C448.069 512.858 445.617 515.303 443.562 517.794C441.506 520.285 439.336 522.722 437.333 525.099L432.696 530.461C429.647 529.063 427.852 523.435 429.054 513.779C429.708 508.155 427.855 489.553 430.312 484.299C430.355 484.25 430.407 484.211 430.465 484.183C430.524 484.155 430.587 484.14 430.652 484.137C433.873 485.526 437.298 486.385 440.794 486.681L442.078 487.031Z" fill="#ED7237"/>
<path d="M475.463 467.505C477.589 466.004 480.024 464.998 482.589 464.559C483.606 464.436 484.638 464.556 485.6 464.909C486.615 465.313 487.518 465.955 488.233 466.781C489.049 467.743 489.735 468.808 490.273 469.949C490.888 471.224 491.409 472.61 491.952 474.158C492.942 477.36 494.147 480.491 495.56 483.53L495.726 483.83L495.927 484.174L496.228 484.691L496.87 485.729L498.115 487.801C498.883 489.135 499.845 490.531 500.772 491.883C504.41 497.295 508.396 502.465 512.703 507.361C517.029 512.279 521.401 516.802 525.86 521.615C527.012 522.753 528.041 523.916 529.471 525.086L533.105 528.359C535.636 530.419 538.113 532.594 540.746 534.465C551.082 542.25 562.359 548.498 572.143 556.54C576.91 560.578 581.004 565.35 584.271 570.675C585.005 571.915 585.593 573.236 586.021 574.612L585.993 574.85L585.929 575.405L586.152 576.595C586.299 577.275 586.367 577.97 586.353 578.665C586.383 580.765 585.991 582.849 585.199 584.794C584.751 585.56 584.25 586.293 583.7 586.988C582.579 588.343 580.677 590.892 578.255 593.421C577.681 593.876 577.155 594.257 576.633 594.598C576.112 594.938 575.493 595.429 574.844 595.835C573.598 596.593 572.3 597.261 570.958 597.832C568.334 598.966 565.541 599.659 562.691 599.882C559.797 600.103 556.885 599.9 554.05 599.28C548.2 597.937 542.631 595.578 537.597 592.31C532.376 589.12 527.494 585.405 523.028 581.223C519.202 577.58 515.632 573.677 512.342 569.543L512.844 551.055L509.73 566.109C507.286 562.9 505.062 559.53 503.074 556.021L507.489 537.024L500.95 551.841L497.038 543.357C496.816 542.849 496.594 542.342 496.412 541.839L501.46 528.455L494.963 538.419L493.441 534.589C492.88 533.199 492.183 531.592 491.722 530.375C491.262 529.157 490.772 527.494 490.321 526.197C489.385 523.198 488.511 520.005 487.4 516.785C487.096 515.947 486.827 515.153 486.444 514.305L485.175 511.749C484.633 510.883 484.057 509.973 483.471 509.143L481.965 507.241L481.685 506.888L481.471 506.662L481.081 506.215L480.393 505.573L479.586 504.917C478.659 504.203 477.651 503.601 476.583 503.123C477.206 492.61 474.612 482.156 469.146 473.154C471.144 471.154 473.253 469.268 475.463 467.505Z" fill="#E30613"/>
<path d="M338.678 501.432C340.412 504.123 342.063 506.844 343.803 509.495C345.542 512.145 347.626 514.596 349.591 517.032C351.556 519.468 353.805 521.536 356.012 523.96C358.219 526.385 360.701 528.52 362.959 530.508C367.724 534.755 372.539 538.928 377.611 542.608C382.41 546.313 387.862 549.085 393.683 550.779C396.428 551.54 399.274 551.87 402.12 551.759C403.513 551.52 404.927 551.443 406.214 551.071C407.642 550.76 409.037 550.317 410.383 549.749C411.728 549.23 413.015 548.572 414.224 547.786L416.291 546.581L416.812 546.24C416.467 546.441 416.812 546.24 416.812 546.24L417.696 545.54L421.229 542.779C422.418 541.874 423.437 540.707 424.56 539.674C427.422 536.805 430.108 533.765 432.603 530.572L437.241 525.21C439.257 522.714 441.308 520.263 443.469 517.904C445.63 515.546 448.056 512.978 450.433 510.484C451.629 509.178 452.853 508.316 454.065 507.212L455.892 505.658L456.825 504.884L457.139 504.599L457.528 504.363L458.226 503.882C461.838 501.822 465.99 500.905 470.133 501.251C472.189 501.399 474.207 501.878 476.111 502.669C477.179 503.146 478.187 503.749 479.114 504.463L479.921 505.119L480.609 505.76L480.999 506.207L481.213 506.433L481.494 506.787L482.999 508.688C483.585 509.519 484.161 510.429 484.703 511.295L485.972 513.851C486.355 514.698 486.624 515.492 486.928 516.33C488.158 519.564 489.032 522.757 489.849 525.743C490.287 527.158 490.654 528.486 491.25 529.92C491.846 531.354 492.403 532.784 492.969 534.134L494.491 537.964L500.988 528L495.94 541.384C496.122 541.887 496.344 542.395 496.567 542.902L500.478 551.386L507.017 536.569L502.602 555.567C504.59 559.076 506.814 562.446 509.258 565.654L512.547 550.821L512.045 569.31C515.335 573.444 518.905 577.346 522.731 580.989C527.142 585.286 531.984 589.118 537.18 592.423C542.214 595.692 547.782 598.051 553.632 599.393C556.468 600.013 559.379 600.216 562.273 599.996C565.123 599.772 567.917 599.08 570.541 597.946C571.882 597.374 573.181 596.707 574.426 595.948C575.075 595.542 575.606 595.122 576.216 594.711C576.825 594.3 577.263 593.99 577.838 593.535L577.861 593.337L579.687 591.782C580.134 591.393 580.648 590.77 581.148 590.266C581.646 589.756 582.1 589.205 582.504 588.617C582.939 588.05 583.33 587.452 583.676 586.826C584.025 586.198 584.341 585.551 584.623 584.889C585.415 582.944 585.807 580.86 585.777 578.761C585.791 578.065 585.723 577.37 585.576 576.69L585.353 575.5L585.417 574.945L585.445 574.708C585.017 573.332 584.429 572.01 583.695 570.771C580.428 565.445 576.334 560.674 571.567 556.635C561.783 548.594 550.506 542.345 540.17 534.561C537.537 532.689 535.06 530.514 532.529 528.454L528.895 525.181C527.624 524.03 526.595 522.866 525.284 521.711C520.793 517.174 516.285 512.435 512.122 507.495C507.815 502.599 503.83 497.429 500.191 492.018C499.264 490.666 498.302 489.269 497.534 487.936L496.289 485.864L495.647 484.826L495.346 484.309L495.145 483.965L494.979 483.665C493.567 480.626 492.361 477.495 491.371 474.293C490.819 472.824 490.298 471.438 489.693 470.083C489.155 468.942 488.469 467.877 487.652 466.916C486.937 466.09 486.034 465.448 485.019 465.044C484.058 464.69 483.026 464.571 482.009 464.694C479.444 465.133 477.009 466.139 474.882 467.64C472.521 469.188 470.248 470.867 468.075 472.67L467.545 473.09C462.774 477.472 457.561 481.346 451.99 484.651C450.311 485.508 448.537 486.165 446.704 486.606C446.164 486.733 445.616 486.83 445.065 486.897L444.25 487.003L443.655 486.934L443.061 486.865L442.546 486.805L442.229 486.768L440.843 486.607C437.347 486.312 433.922 485.453 430.701 484.064L430.384 484.027C424.047 480.999 418.562 476.444 414.421 470.771C410.445 465.38 407.228 459.468 404.861 453.201L404.174 451.515L405.25 450.195C408.839 445.915 412.287 441.458 415.657 436.992C417.363 434.741 419.03 432.486 420.465 430.164C421.899 427.842 423.689 425.561 425.282 423.257C426.874 420.953 428.397 418.56 429.875 416.203C430.616 415.005 431.323 413.762 432.038 412.44C432.754 411.118 433.482 410.038 434.123 408.668C434.764 407.297 435.452 406.213 436.049 404.877L436.104 404.402L437.658 401.049L439.108 397.203C439.507 395.845 439.826 394.477 440.185 393.113L441.017 393.21C440.852 394.636 440.691 396.022 440.525 397.448L439.473 401.662L438.035 405.75C437.557 407.1 436.964 408.396 436.426 409.578C435.887 410.759 435.32 412.179 434.698 413.391C434.075 414.604 433.469 416.018 432.772 417.182C431.473 419.721 430.096 422.25 428.683 424.736C427.27 427.221 425.782 429.658 424.237 432.248C422.691 434.839 421.187 437.072 419.625 439.46C416.808 443.669 413.881 447.785 410.835 451.887C413.163 456.968 416.068 461.764 419.491 466.181C423.081 470.817 427.753 474.503 433.097 476.915C435.65 478.014 438.366 478.683 441.137 478.893L442.167 479.013L442.484 479.05L443.078 479.119L443.672 479.188L443.989 479.225C444.254 479.207 444.516 479.156 444.769 479.075C446.039 478.742 447.266 478.265 448.427 477.653C451.039 476.345 453.528 474.808 455.866 473.058L463.303 467.097C465.906 464.97 468.629 462.995 471.458 461.18C472.992 460.204 474.62 459.385 476.318 458.734C477.651 458.171 479.046 457.767 480.473 457.531C480.951 455.716 481.68 453.976 482.639 452.363C483.404 451.119 484.402 450.036 485.579 449.172C486.877 448.238 488.465 447.796 490.059 447.926C491.584 448.065 493.054 448.566 494.346 449.387L495.32 449.982L496.136 450.559C496.708 451.021 497.253 451.513 497.772 452.033C499.758 453.953 501.584 456.032 503.232 458.248C509.082 467.182 514.371 476.472 519.069 486.062C520.281 488.411 521.498 490.72 522.808 492.92C523.409 493.981 524.067 495.009 524.779 495.999L525.978 497.423C526.394 497.993 526.797 498.321 527.222 498.812C530.824 502.362 534.421 505.952 538.512 509.438C542.604 512.924 546.378 516.374 550.39 519.851C554.402 523.328 558.432 526.646 562.595 529.86C566.758 533.074 570.921 536.287 575.333 539.088C577.696 540.372 579.984 541.791 582.185 543.337C584.351 544.938 586.43 546.654 588.413 548.476C592.345 552.158 595.907 556.216 599.049 560.592C602.265 564.93 604.78 569.747 606.503 574.866C607.418 577.487 607.819 580.26 607.682 583.032C607.402 585.907 606.476 588.682 604.972 591.148C602.025 596.031 597.654 599.894 592.445 602.217C587.371 604.55 581.902 605.903 576.325 606.205C570.718 606.437 565.549 606.358 560.26 606.266L558.755 606.091C556.852 606.029 554.957 605.809 553.091 605.432C546.285 604.268 539.759 601.834 533.852 598.259C528.108 594.857 522.733 590.869 517.812 586.359C515.817 584.521 513.907 582.653 512.045 580.711L511.902 586.435L511.833 587.029C511.613 587.822 511.1 588.501 510.397 588.928C509.695 589.356 508.855 589.499 508.051 589.328C507.246 589.158 506.537 588.687 506.067 588.012C505.598 587.336 505.404 586.507 505.524 585.694L507.551 575.853C506.457 574.562 505.327 573.226 504.277 571.9C503.227 570.573 501.661 568.504 500.414 566.794L499.752 569.728C499.747 569.928 499.724 570.126 499.683 570.322C499.29 571.024 498.648 571.555 497.885 571.809C497.121 572.063 496.29 572.023 495.554 571.696C494.818 571.37 494.231 570.78 493.907 570.043C493.584 569.306 493.547 568.475 493.804 567.712L496.744 561.068C495.565 559.125 494.43 557.146 493.427 555.063L492.268 552.6L491.059 555.751C490.988 555.981 490.881 556.199 490.743 556.397C490.262 557.081 489.534 557.551 488.713 557.71C487.892 557.868 487.042 557.702 486.34 557.246C485.639 556.79 485.143 556.08 484.954 555.265C484.766 554.451 484.901 553.595 485.331 552.877L488.91 546.95L488.933 546.752C487.543 543.861 486.334 540.79 485.032 537.828L484.053 535.547L483.578 534.448L483.3 533.733L483.083 533.186C482.526 531.756 481.967 530.005 481.433 528.378C480.511 525.26 479.654 522.27 478.453 519.48C478.205 518.849 477.971 518.1 477.679 517.504L476.803 515.716C476.462 515.275 476.153 514.81 475.881 514.324L474.371 512.462L473.981 512.016C473.981 512.016 473.981 512.016 473.743 511.988L472.615 511.335C471.62 510.922 470.559 510.69 469.483 510.65C467.201 510.413 464.9 510.858 462.871 511.929L462.606 512.139L461.677 512.874L459.816 514.384C458.652 515.413 457.251 516.415 456.286 517.467C454.197 519.552 452.073 521.594 449.987 524.001C447.9 526.408 445.823 528.736 443.719 531.302C439.43 536.386 434.848 541.216 429.995 545.765C428.743 546.864 427.561 548.051 426.2 549.057L422.076 552.071L421.024 552.832L420.675 553.072L420.158 553.373L418.056 554.534C416.502 555.375 414.888 556.1 413.228 556.703C411.546 557.353 409.808 557.85 408.037 558.187C406.275 558.529 404.492 558.751 402.701 558.852C399.127 558.868 395.573 558.32 392.171 557.227C385.765 555.015 379.84 551.601 374.712 547.169C369.616 543.004 365.011 538.415 360.476 533.913C358.105 531.51 356.092 529.148 353.919 526.768C351.747 524.388 349.863 521.6 347.872 519.04C345.881 516.48 344.487 513.629 342.593 510.92C341.715 509.265 340.865 507.601 340.042 505.926C339.423 504.69 338.844 503.458 338.22 502.262L338.678 501.432ZM575.939 601.584C580.99 601.618 585.998 600.659 590.679 598.76C595.32 596.989 599.294 593.817 602.051 589.684C603.396 587.672 604.29 585.393 604.674 583.004C604.942 580.526 604.729 578.021 604.046 575.624C602.614 570.665 600.363 565.981 597.387 561.763C594.418 557.456 590.955 553.51 587.071 550.006C585.15 548.267 583.091 546.686 580.916 545.277C578.716 543.87 576.44 542.586 574.097 541.433C569.336 538.873 564.859 535.944 560.426 532.98C555.993 530.016 551.474 526.761 547.358 523.834C543.242 520.907 538.918 517.353 534.822 513.907C530.649 510.432 526.684 506.713 522.948 502.772C522.488 502.237 521.949 501.692 521.564 501.206L520.234 499.526C519.373 498.302 518.67 497.096 517.967 495.89C516.636 493.528 515.428 491.139 514.225 488.711L507.374 474.426C505.072 469.703 502.687 465.009 499.988 460.601C498.756 458.335 497.311 456.191 495.673 454.198L494.46 452.893L493.693 452.242L493.03 451.723C492.137 451.046 491.114 450.558 490.026 450.29C488.887 450.201 487.746 450.428 486.729 450.948C485.712 451.468 484.859 452.259 484.264 453.234C483.322 454.497 482.518 455.857 481.866 457.291L482.222 457.332C484.408 457.213 486.591 457.618 488.588 458.514L489.989 459.239L491.288 460.152L491.605 460.189L491.934 460.468L492.368 460.88C492.765 461.244 493.135 461.636 493.476 462.052C494.676 463.6 495.654 465.308 496.379 467.127C497.034 468.711 497.596 470.331 498.063 471.979C498.828 474.936 499.763 477.846 500.864 480.695L500.837 480.933L501.098 481.445L501.657 482.513L502.773 484.65C503.528 486.103 504.34 487.402 505.109 488.736C508.356 494.145 511.919 499.358 515.78 504.347C519.612 509.369 523.696 514.3 528.01 518.976C529.079 520.144 530.138 521.391 531.221 522.441L534.643 525.809C536.975 527.96 539.42 529.986 541.967 531.879C551.977 539.706 563.263 545.875 573.497 553.849C578.683 558.086 583.231 563.049 587 568.585C587.965 570.057 588.765 571.631 589.385 573.278L589.348 573.595L589.32 573.833L589.454 574.411L589.761 575.57C589.968 576.441 590.093 577.329 590.135 578.223C590.587 581.848 589.992 585.526 588.422 588.823C588.062 589.644 587.621 590.426 587.106 591.159C586.619 591.887 586.095 592.59 585.537 593.265C584.987 593.974 584.386 594.642 583.739 595.264L582.017 596.951C581.394 597.538 580.74 598.092 580.058 598.61C579.355 599.131 578.688 599.695 577.945 600.211L575.997 601.43L575.939 601.584Z" fill="#472417"/>
<path d="M442.169 347.017C442.103 349.659 441.868 351.679 441.707 353.065C441.546 354.451 441.459 355.204 441.459 355.204C441.459 355.204 441.541 354.491 441.703 353.105C441.864 351.718 442.103 349.659 442.006 347.038C442.159 345.718 442.167 344.273 442.028 342.705C441.977 341.414 441.94 340.005 441.815 338.665C441.826 338.373 441.86 338.082 441.916 337.794C441.762 336.01 441.587 334.062 441.218 332.053C440.85 330.043 440.451 327.949 439.977 325.806C439.503 323.664 438.563 320.704 437.625 318.066C436.925 316.138 436.147 314.201 435.21 312.245L434.212 310.122C433.397 308.502 432.498 306.912 431.603 305.283C430.183 302.99 428.812 300.623 427.141 298.421C426.595 297.595 426.004 296.804 425.414 296.013C424.023 294.165 422.513 292.303 420.959 290.477C419.405 288.65 417.837 286.943 416.234 285.191C414.631 283.439 412.146 280.982 409.972 278.963C407.798 276.944 405.659 274.969 403.308 273.09C398.725 269.346 393.916 265.817 389.187 262.296L375.327 252.015L373.594 250.689L367.638 245.982C361.642 241.271 356.128 236.897 351.363 232.65L349.399 230.896C344.498 226.608 340.089 221.787 336.255 216.523C334.881 214.709 333.762 212.714 332.929 210.596C332.796 210.316 332.695 210.022 332.63 209.718C332.658 209.481 332.487 209.22 332.431 209.013L332.288 208.514L336.429 207.43L336.571 207.928L336.787 208.836L336.96 209.419C337.606 211.116 338.442 212.734 339.451 214.244C343.57 220.024 348.345 225.307 353.679 229.989C360.206 236.006 368.267 242.643 377.057 249.566L390.642 260.137C395.318 263.772 400.029 267.45 404.598 271.313L405.291 271.916C407.334 273.679 409.364 275.56 411.23 277.463C413.097 279.366 415.397 281.681 417.429 283.884L417.667 283.912C421.48 288.077 424.99 292.509 428.169 297.176C429.827 299.496 431.153 301.898 432.568 304.231C433.983 306.563 435.107 308.982 436.033 311.378C437.989 315.82 439.496 320.446 440.531 325.188C440.995 327.41 441.434 329.508 441.679 331.544C441.924 333.58 442.09 335.606 442.209 337.346C442.328 339.086 442.383 340.337 442.381 341.742C442.333 341.964 442.307 342.189 442.302 342.416C442.328 344.265 442.237 345.74 442.169 347.017Z" fill="#472417"/>
<path d="M120.362 189.187C120.399 189.059 120.414 188.925 120.408 188.791L120.74 185.939C120.947 184.157 121.154 182.374 121.158 180.608C121.26 179.737 121.361 178.866 121.22 178.006C121.235 177.142 121.188 176.278 121.079 175.42C120.966 173.767 120.671 172.13 120.2 170.541L119.485 168.411L118.198 166.013L118.032 165.713L117.66 165.107L116.874 163.932L115.69 162.028C117.846 163.016 119.772 164.443 121.345 166.218C122.188 173.88 121.856 181.625 120.362 189.187Z" fill="#472417"/>
<path d="M77.6806 216.547L77.7911 215.596C79.1913 217.365 79.8188 219.565 81.8989 221.011C84.6855 222.941 84.4324 225.119 80.7267 225.572C79.7012 225.612 78.7306 226.045 78.0167 226.783C77.2613 227.935 76.9048 229.304 77.0019 230.679C77.1043 234.478 77.5794 238.258 78.4204 241.964C78.5284 242.019 78.6232 242.097 78.6982 242.192C78.7732 242.287 78.8267 242.397 78.855 242.515C78.8833 242.633 78.8857 242.755 78.8621 242.874C78.8384 242.993 78.7893 243.105 78.718 243.203L78.3808 241.959C73.9534 237.912 76.4429 232.381 75.4016 227.522C72.3834 228.695 69.0667 228.859 65.9475 227.99C62.8284 227.121 60.0743 225.266 58.0973 222.702C57.4469 222.425 56.5128 222.517 56.3598 221.416C57.152 221.508 57.9046 221.595 58.1065 222.622L63.0487 225.003C68.9443 227.816 73.177 227.665 75.5699 224.692C77.1351 222.276 77.8756 219.418 77.6806 216.547Z" fill="#2D2420"/>
<path d="M119.846 193.986C120.04 192.323 120.228 190.699 120.417 189.075C121.884 181.477 122.178 173.7 121.29 166.013C119.717 164.237 117.791 162.81 115.635 161.823C113.889 161.064 111.987 160.733 110.087 160.857C108.187 160.981 106.325 161.445 104.588 162.225C107.434 159.505 111.025 157.273 110.432 151.664C114.9 155.753 118.591 160.616 121.33 166.017C122.736 167.842 123.467 170.097 123.398 172.4C123.529 179.507 122.879 186.607 121.46 193.572C120.966 195.026 120.952 196.6 121.42 198.063C118.763 197.434 119.711 195.496 119.846 193.986Z" fill="#2D2420"/>
<path d="M100.983 188.742C98.5098 187.571 98.752 185.833 98.2351 184.408C95.7945 178.464 98.388 172.382 98.6639 166.553C98.7669 164.804 98.5914 163.049 98.1439 161.354C99.8269 162.072 99.0498 165.996 102.302 164.607C102.39 163.855 102.496 162.944 103.558 162.786C103.461 163.618 103.374 164.371 102.381 164.617C101.85 165.573 101.386 166.566 100.993 167.586C98.5833 174.432 98.58 181.894 100.983 188.742Z" fill="#2D2420"/>
<path d="M75.8941 150.379C79.3838 149.592 83.0211 149.758 86.4247 150.859C89.8284 151.961 92.8728 153.959 95.2389 156.642C89.2202 153.407 82.6668 151.285 75.8941 150.379Z" fill="#2D2420"/>
<path d="M122.045 200.264C122.091 199.868 122.142 199.432 122.188 199.036C123.983 200.168 123.642 202.417 124.625 203.976C124.171 203.9 123.739 203.726 123.359 203.468C122.156 202.766 122.031 201.426 122.045 200.264Z" fill="#523C2F"/>
<path d="M97.1147 259.351L93.416 256.633C95.647 256.09 97.0786 256.898 97.1147 259.351Z" fill="#2D2420"/>
<path d="M95.8784 157.358C96.4523 157.632 96.9223 158.084 97.2186 158.646C97.5149 159.209 97.6217 159.852 97.5229 160.48C95.4632 160.241 95.6685 158.819 95.8784 157.358Z" fill="#2D2420"/>
<path d="M71.5788 152.288L73.9673 151.08C73.7178 152.537 73.015 153.057 71.5788 152.288Z" fill="#2D2420"/>
<path d="M88.4997 252.648L86.4592 251.206C87.9911 250.461 88.5512 251.168 88.4997 252.648Z" fill="#2D2420"/>
<path d="M70.5607 153.092L71.5288 152.362C71.5298 153.044 71.2157 153.329 70.5607 153.092Z" fill="#2D2420"/>
<path d="M91.6376 243.62C87.5745 233.674 93.8788 207.75 102.949 198.447C99.578 205.199 96.6623 212.17 94.2214 219.312C92.1986 227.249 91.3284 235.435 91.6376 243.62Z" fill="#2D2420"/>
<path d="M102 190.709L102.033 190.431C102.153 190.405 102.278 190.42 102.389 190.473L102.101 190.881L102 190.709Z" fill="#2D2420"/>
<path d="M62.0923 205.257C63.954 205.474 63.7837 206.939 63.6272 208.286L67.4869 209.618C69.0046 210.394 70.7129 210.72 72.41 210.557C74.1071 210.394 75.7221 209.749 77.0642 208.698C78.4063 207.646 79.4195 206.233 79.9842 204.624C80.5488 203.016 80.6412 201.279 80.2506 199.619C80.0897 197.307 79.6259 195.026 78.8712 192.835C78.082 190.815 77.5984 188.689 77.4365 186.526C77.4896 184.502 77.7237 182.488 78.1361 180.506C74.7094 180.629 72.6424 181.834 71.9665 184.887C71.8652 185.758 72.0044 186.979 70.7139 187.03C69.4233 187.08 69.1331 186.123 68.7056 185.311C67.7371 183.202 67.1705 180.93 67.035 178.613L66.2299 177.596L67.0746 178.618C69.4751 179.264 71.9828 179.41 74.4421 179.047C76.9013 178.683 79.2597 177.818 81.3708 176.506C83.1593 171.988 84.6621 167.363 85.8705 162.657C86.3195 165.161 86.1473 167.737 85.3689 170.159C84.5905 172.582 83.2297 174.776 81.4058 176.55C80.6599 179.514 79.7998 182.425 79.3219 185.501C78.719 190.69 82.2566 194.794 82.1474 199.88C82.1273 202.126 80.0152 204.409 82.0991 206.86C83.2239 208.235 85.7609 209.895 84.2448 211.886C82.7288 213.878 80.7831 211.966 78.9731 211.996L77.0488 211.973C77.3372 213.291 77.5648 214.442 77.7878 215.632C75.0869 215.037 74.0384 211.624 70.7121 211.919C69.3243 211.945 67.9508 211.635 66.7087 211.015C65.4667 210.395 64.3927 209.485 63.5784 208.361C63.0517 208.074 62.6233 207.636 62.3488 207.103C62.0743 206.57 61.9663 205.967 62.0389 205.372L61.2383 204.315L60.9583 203.961L60.3935 203.294L60.9187 203.957L61.2383 204.315L62.0923 205.257Z" fill="#2D2420"/>
<defs>
<radialGradient id="paint0_radial_45_14652" cx="0" cy="0" r="1" gradientUnits="userSpaceOnUse" gradientTransform="translate(735.485 469.371) scale(0)">
<stop stop-color="#472417"/>
<stop offset="1" stop-color="#ED7237"/>
</radialGradient>
<radialGradient id="paint1_radial_45_14652" cx="0" cy="0" r="1" gradientUnits="userSpaceOnUse" gradientTransform="translate(739.523 465.715) rotate(-173.372) scale(1.43586 1.43723)">
<stop stop-color="#472417"/>
<stop offset="1" stop-color="#ED7237"/>
</radialGradient>
<radialGradient id="paint2_radial_45_14652" cx="0" cy="0" r="1" gradientUnits="userSpaceOnUse" gradientTransform="translate(729.298 473.397) scale(0)">
<stop stop-color="#472417"/>
<stop offset="1" stop-color="#ED7237"/>
</radialGradient>
<radialGradient id="paint3_radial_45_14652" cx="0" cy="0" r="1" gradientUnits="userSpaceOnUse" gradientTransform="translate(766.179 441.647) rotate(-173.372) scale(2.96656 1.48246)">
<stop stop-color="#472417"/>
<stop offset="1" stop-color="#ED7237"/>
</radialGradient>
</defs>
</svg>
