<svg width="96" height="78" viewBox="0 0 96 78" fill="none" xmlns="http://www.w3.org/2000/svg">
<path d="M76.3594 47.5629C72.2704 38.4047 66.0684 30.3463 58.2623 24.0488C50.4568 17.5755 41.4468 12.7119 31.752 9.73858C26.8666 8.12061 21.8155 7.05456 16.6929 6.56035C11.3768 6.35388 6.05308 6.4495 0.747733 6.84675C0.679156 6.84799 0.613907 6.8764 0.566287 6.92576C0.518667 6.97512 0.492586 7.04138 0.493818 7.10996C0.49505 7.17853 0.523493 7.24382 0.572855 7.29144C0.622217 7.33906 0.688445 7.36512 0.757022 7.36389C5.80836 7.87994 10.771 9.05155 15.5198 10.8492C20.1837 12.2474 24.7505 13.951 29.1907 15.9492C37.5014 19.9183 45.1778 25.0975 51.9696 31.3179C58.3663 37.3665 64.1468 44.0352 69.2259 51.226C74.7799 58.6497 78.9464 67.0162 81.5244 75.922C81.5368 76.6116 82.9143 76.5006 82.8604 75.8981C82.1961 66.17 80.0022 56.6076 76.3594 47.5629Z" fill="#95C11F"/>
<path d="M94.9844 42.9176C94.7134 40.0092 94.1711 37.1324 93.3644 34.3249C91.6208 28.1719 88.5782 22.4642 84.4419 17.5865C80.6823 12.8129 75.9774 8.86702 70.622 5.99604C65.2666 3.12506 59.376 1.39082 53.3193 0.90195C52.8021 0.911238 52.6845 1.55999 53.077 1.81159C57.8225 4.68869 62.3728 7.87598 66.6983 11.3527C70.7607 14.919 74.535 18.8008 77.9859 22.9618C81.3828 27.1472 84.4734 31.5723 87.2334 36.2025C88.5592 38.3991 89.7655 40.6655 90.8472 42.9919C92.1034 45.7283 92.6294 48.6072 93.6309 51.5637C93.9034 52.3348 95.3293 52.5247 95.4408 51.5312C95.6166 48.652 95.4636 45.7621 94.9844 42.9176Z" fill="#95C11F"/>
</svg>
