<svg width="514" height="484" viewBox="0 0 514 484" fill="none" xmlns="http://www.w3.org/2000/svg">
<path fill-rule="evenodd" clip-rule="evenodd" d="M77.4414 120.966L81.6204 120.754V58.4694L80.5309 57.7622C79.4951 59.1412 77.5842 60.5025 77.5842 61.8815C77.3878 81.3995 77.4414 100.917 77.4414 120.966Z" fill="white"/>
<path d="M9.5453 230.899C2.16817 217.793 0.186768 203.502 0.0275497 188.91C-0.252525 177.708 1.60265 166.555 5.49405 156.047C8.9261 147.203 13.4727 138.855 23.185 135.282C25.1943 134.611 27.3676 134.611 29.3769 135.282C37.0548 138.041 42.079 143.949 45.1218 151.201C54.5157 173.416 54.9934 196.215 48.3593 219.226C47.0856 223.595 44.9803 227.733 43.2643 231.996C49.3854 232.686 49.5977 232.792 51.1545 229.29C61.3268 206.544 61.7691 183.179 55.0996 159.478C53.7551 154.756 51.5614 150.263 49.35 144.71C55.7188 145.523 61.3091 146.602 66.9525 146.885C77.5671 147.433 88.0755 147.539 98.6547 147.769C104.192 147.876 106.368 150.139 106.315 156.171L61.4329 154.862C66.7402 170.498 67.6071 186.204 66.1211 202.529H88.6771L74.3297 218.112C66.8994 226.195 59.5223 234.295 52.0567 242.343C46.2895 248.551 40.4868 254.724 34.4896 260.738C33.3397 261.728 13.172 237.355 9.5453 230.899Z" fill="#95C11F"/>
<path d="M138.545 164.078C140.423 164.167 146.731 164.381 155.288 164.667C153.18 167.483 140.99 186.632 138.545 191.285V164.078Z" fill="#95C11F"/>
<path d="M30.1092 270.705H29.5961H40.2121C41.3059 270.817 42.4092 270.623 43.3994 270.144C44.3896 269.665 45.2278 268.92 45.821 267.993C50.2443 261.858 55.1454 256.061 60.0641 250.263C61.2059 249.044 62.7547 248.286 64.4167 248.135C82.6763 247.355 100.918 247.905 119.266 247.373C118.824 249.731 118.435 252.089 118.081 254.465L85.0295 256.238C85.0631 256.956 85.2187 257.664 85.4895 258.33C89.559 264.252 93.6639 270.156 97.8749 276.06C98.2046 276.436 98.6099 276.738 99.0643 276.945C99.5187 277.153 100.012 277.262 100.511 277.265C105.324 277.141 110.119 276.698 114.931 276.574H116.064C115.975 279.038 115.922 281.503 115.922 283.985C115.922 285.669 115.922 287.354 115.922 289.02L90.3375 290.793L86.9581 291.006V297.105L116.188 295.988C117.037 310.532 119.482 324.939 123.477 338.947C93.5754 339.355 60.0818 338.274 60.0818 338.274C60.0818 338.274 78.1114 337.777 25.9512 339.036C28.9237 309.144 28.6407 270.705 30.1092 270.705Z" fill="#95C11F"/>
<path d="M284.367 196.369C285.942 183.693 285.812 170.86 283.981 158.218C286.248 158.218 288.604 158.218 291.012 158.218C296.812 158.218 298.587 159.515 300.204 165.074C300.908 167.377 301.287 169.769 301.329 172.179C301.417 190.579 301.329 208.998 301.329 227.7H263.697V211.928L269.708 210.951C277.02 209.797 283.524 203.723 284.367 196.369Z" fill="#95C11F"/>
<path d="M127.836 301.449C128.845 301.29 129.341 301.148 129.855 301.131C130.776 301.131 131.626 301.131 131.626 301.131C134.266 308.211 136.055 315.078 139.297 321.185C144.611 331.274 154.566 334.053 163.494 328.265C168.578 324.955 171.323 319.415 173.343 313.715C174.795 309.591 174.919 309.644 180.003 308.635C177.86 320.229 172.794 329.54 162.13 336.673L225.475 332.726C212.934 321.468 211.215 307.308 210.773 292.015C207.69 292.705 204.874 293.183 202.146 293.98C198.78 294.953 195.521 296.298 192.173 297.307C183.316 299.98 174.459 302.458 165.602 305.219C163.674 305.916 161.877 306.933 160.288 308.228C156.497 311.113 153.202 310.459 151.519 305.927C150.511 302.539 149.707 299.093 149.11 295.608C142.822 292.864 135.736 293.095 128.562 295.378C128.301 295.44 128.033 295.476 127.765 295.484L115.843 295.891C115.702 293.572 115.595 291.254 115.524 288.811L127.712 288.015L130.28 276.368C125.391 276.368 120.502 276.279 115.613 276.368C115.613 274.244 115.808 272.137 115.95 270.031C119.511 269.689 123.092 269.595 126.667 269.748C131.981 270.031 134.39 267.783 137.029 263.854C143.229 254.667 152.263 250.985 162.467 255.517C166.06 257.457 169.172 260.179 171.571 263.482C174.592 267.862 177.017 272.624 178.781 277.642C180.322 282.687 180.924 288.032 182.076 293.909C188.612 291.873 195.22 289.289 202.057 287.855C208.417 286.51 212.19 284.475 213.412 277.04C213.918 273.056 215.329 269.241 217.536 265.885C219.743 262.529 222.689 259.721 226.148 257.676C227.974 256.595 230.058 256.025 232.18 256.025C234.302 256.025 236.386 256.595 238.212 257.676C245.758 262.084 248.999 269.341 251.107 277.023C252.152 280.881 254.101 280.722 256.829 280.439C258.281 280.297 259.734 280.014 260.691 279.872C263.295 274.049 265.101 267.925 268.52 262.898C273.09 256.136 278.422 252.649 285.189 256.437C289.263 258.721 292.275 263.411 295.056 267.429C296.551 269.949 297.594 272.71 298.138 275.589C298.723 277.801 299.909 278.049 301.893 278.049C306.623 278.049 308.66 276.279 309.989 271.376C311.317 266.473 314.559 262.19 317.73 258.243C322.282 252.579 328.996 253.145 334.221 258.243C340.722 264.544 342.795 272.615 344.035 280.917C345.523 290.882 345.115 300.954 340.988 310.352C338.862 315.22 335.851 319.68 333.017 324.743C336.896 324.46 343.309 324.867 345.948 321.362C349.881 316.052 347.401 308.547 354.468 308.122C364.53 307.503 383.998 310.636 390.003 304.387C393.403 300.579 395.244 295.631 395.158 290.528L395.051 148.518H390.534C388.231 148.518 391.384 244.631 390.764 244.666C360.102 242.436 330.962 244.666 304.391 244.843C288.289 244.932 272.205 245.251 256.103 245.41C243.225 245.516 230.329 245.516 217.451 245.622C187.797 245.87 158.091 245.144 128.509 246.773C125.285 246.95 122.043 247.074 118.819 247.162C119.599 242.938 120.514 238.749 121.565 234.595H159.136C159.326 228.427 160.748 222.359 163.319 216.748C165.889 211.136 169.556 206.095 174.105 201.92H146.311V177.547C147.232 176.095 148.171 174.644 149.146 173.21C153.078 167.529 152.051 168.98 155.204 164.661C157.949 160.979 160.855 157.386 163.848 153.899C171.022 154.112 178.161 154.342 185.318 154.59C200.321 155.085 215.343 155.209 230.276 156.36C237.202 156.908 242.675 161.493 246.502 167.369C251.94 175.901 254.544 185.512 255.837 195.831H263.755C262.143 183.034 267.156 169.617 257.13 157.439C261.876 157.658 266.606 158.131 271.301 158.855C273.098 159.22 274.701 160.222 275.815 161.676C276.929 163.131 277.477 164.94 277.359 166.767C277.501 174.679 277.554 182.609 277.359 190.504C277.165 198.398 272.453 202.115 263.348 202.133H194.476C179.614 202.133 168.489 211.16 165.407 225.763C164.805 228.612 164.38 231.497 163.777 234.896H324.815V230.489C324.815 204.717 324.514 178.963 325.028 153.209C325.152 146.908 323.115 142.978 318.279 139.81C306.269 131.986 293.32 126.782 278.777 127.667C272.435 128.057 266.2 130.004 259.929 131.349C258.016 131.738 256.156 132.447 254.19 133.031C253.038 129.685 253.747 128.198 257.095 126.853C270.131 121.571 284.523 120.628 298.138 124.163C307.163 126.135 315.561 130.306 322.583 136.305C325.554 139.016 329.475 140.447 333.495 140.288C354.309 139.987 375.123 140.164 395.937 140.164H400.507C395.671 134.411 391.243 129.668 385.22 126.216C379.636 122.932 373.428 120.846 366.992 120.092C356.718 118.941 346.444 117.755 336.134 116.923C326.268 116.145 316.348 115.932 306.481 115.153C300.441 114.711 294.436 113.206 288.431 113.242C282.126 113.282 275.845 114.03 269.707 115.472C262.303 117.242 255.164 120.056 247.883 122.322C246.97 122.506 246.167 123.042 245.646 123.814C245.126 124.586 244.93 125.531 245.102 126.446C245.244 132.447 245.102 138.465 245.102 144.731C241.807 144.731 180.8 144.146 173.29 143.686C198.214 118.543 229.4 100.5 263.631 91.4172C263.631 91.7712 263.631 92.1252 263.631 92.4792L276.261 96.4618C279.804 94.2846 284.764 94.267 289.901 96.1432C290.94 96.3937 291.871 96.9706 292.558 97.7893C294.648 101.736 296.101 100.197 298.368 97.7893C301.539 94.2492 311.866 93.3642 316.986 96.0193C317.869 96.5695 318.88 96.8815 319.92 96.9249C320.96 96.9683 321.994 96.7417 322.92 96.267C325.16 95.0903 327.652 94.4755 330.183 94.4755C332.713 94.4755 335.206 95.0903 337.445 96.267C337.886 92.5587 336.905 88.8213 334.7 85.8062C370.712 89.4297 405.057 102.786 434.046 124.441C463.035 146.096 485.574 175.231 499.243 208.719C512.913 242.208 517.195 278.784 511.632 314.52C506.068 350.257 490.869 383.805 467.665 411.561C444.462 439.318 414.13 460.236 379.928 472.068C345.725 483.901 308.943 486.201 273.531 478.723C238.119 471.244 205.414 454.269 178.928 429.62C152.441 404.971 133.174 373.579 123.195 338.814C132.92 338.691 142.255 338.39 149.96 337.859C134.106 330.141 129.642 316.724 127.836 301.449ZM176.372 291.979C175.15 283.643 173.591 275.554 168.489 268.473C160.766 257.747 149.004 257.145 140.873 267.996C136.541 273.938 133.925 280.954 133.309 288.28L146.471 287.307C146.63 285.784 146.79 284.368 146.984 282.474C149.783 282.244 152.635 281.926 155.505 281.802C158.375 281.678 161.12 281.802 164.769 281.802C164.433 287.678 164.114 293.342 163.777 299.36C166.948 298.564 169.836 297.59 172.776 297.148C176 296.617 176.833 295.165 176.372 291.979ZM332.007 234.949H386.495V192.061H332.007V234.949ZM346.285 148.412H332.45V180.981H346.285V148.412ZM366.425 148.412H352.095V180.963H366.425V148.412ZM386.566 148.412H371.988V180.804H386.566V148.412ZM238.637 264.526C234.226 261.322 230.205 260.615 227.548 263.075C224.669 265.562 222.152 268.439 220.072 271.624C218.283 275.234 216.801 278.988 215.644 282.846C225.316 281.819 225.316 281.819 225.936 274.669H238.708C238.849 276.686 238.991 278.51 239.133 280.616H247.671C246.342 274.226 244.075 268.562 238.619 264.597L238.637 264.526ZM286.057 262.668C284.468 261.54 282.568 260.934 280.619 260.934C278.67 260.934 276.769 261.54 275.181 262.668C270.071 267.155 266.735 273.32 265.775 280.049H274.49C274.702 278.279 274.915 276.598 275.145 274.739H286.925C287.155 275.89 287.368 277.04 287.634 278.439H294.825C293.756 272.348 290.668 266.793 286.057 262.668ZM331.972 262.066C328.96 258.88 321.343 259.287 318.916 262.916C315.976 267.305 313.744 272.19 310.998 277.253C319.855 278.332 319.855 278.332 320.156 271.624H331.051C331.192 273.129 331.352 274.792 331.547 276.686H339.358C338.576 271.129 335.972 265.987 331.954 262.066H331.972ZM240.018 331.097L275.907 329.026C263.507 319.787 261.523 306.883 260.372 293.307H264.34C264.223 301.345 266.201 309.274 270.079 316.317C273.852 323.043 281.735 326.141 286.128 321.858C289.25 318.846 291.669 315.183 293.213 311.131C295.321 305.343 296.136 299.077 297.66 292.28L300.565 292.05C299.591 305.626 297.943 318.424 286.659 327.663L287.279 328.46L321.219 325.221C309.936 316.689 308.04 304.635 306.871 292.103C309.422 290.829 310.166 291.448 310.414 294.104C311.353 302.033 312.663 309.839 318.119 316.335C319.041 317.504 320.219 318.445 321.563 319.087C322.906 319.728 324.38 320.053 325.869 320.036C327.358 320.019 328.823 319.66 330.151 318.988C331.48 318.316 332.636 317.348 333.531 316.158C341.094 306.228 341.573 294.918 340.616 282.527L330.112 283.023C330.162 285.298 329.924 287.57 329.403 289.785C328.783 291.325 327.1 292.457 325.86 293.767C324.603 292.546 322.849 291.555 322.176 290.085C321.519 287.934 321.12 285.712 320.989 283.466L287.155 285.678C286.95 288.559 286.451 291.412 285.667 294.192C285.325 295.055 284.784 295.825 284.089 296.44C283.393 297.055 282.562 297.497 281.664 297.732C280.335 297.732 278.351 295.82 277.731 294.316C276.874 291.564 276.281 288.737 275.96 285.873L238.761 287.377C237.521 292.068 236.653 296.228 235.218 300.051C234.884 300.73 234.385 301.315 233.766 301.751C233.147 302.187 232.428 302.461 231.675 302.547C230.875 302.396 230.122 302.058 229.478 301.559C228.834 301.06 228.318 300.416 227.973 299.679C226.768 295.838 226.201 291.785 225.263 287.289C222.469 287.76 219.719 288.465 217.043 289.395C216.351 289.824 215.769 290.41 215.345 291.105C214.92 291.799 214.665 292.584 214.599 293.395C214.599 303.502 216.246 313.22 222.092 321.858C226.768 328.761 237.769 328.123 242.357 321.008C247.671 312.83 248.822 303.697 249.708 294.28C251.904 293.36 253.251 293.555 253.251 296.44C253.074 309.149 250.292 320.955 240.001 331.062L240.018 331.097Z" fill="#95C11F"/>
<path d="M99.0735 133.396C83.5844 132.706 33.3334 129.981 23.6969 129.309C20.9386 129.114 18.1803 128.813 15.0683 128.53C15.0683 126.159 71.4018 118.958 71.4018 114.676C71.4018 94.6997 71.4018 74.7235 71.4018 54.7296C71.4018 44.6619 76.9008 37.4429 85.5471 35.9743C85.6381 35.6129 85.709 35.2467 85.7593 34.8773C86.3251 28.543 88.7474 23.4472 94.8122 20.5808C95.54 20.1079 96.0686 19.3837 96.2975 18.546C96.9163 16.6528 97.27 14.6711 97.8712 12.7779C100.824 3.5418 108.639 -2.03172 118.417 0.693111C130.423 4.03722 137.637 12.0348 140.112 24.4911C141.41 23.0239 143.172 22.0475 145.104 21.7253C147.035 21.4032 149.018 21.755 150.721 22.7217C153.842 24.5325 156.8 26.6105 159.562 28.9322C163.381 24.0311 169.959 24.1903 175.016 29.233C179.136 33.338 181.54 37.8499 181.275 43.388C183.556 43.7596 185.784 43.5472 187.358 44.4673C192.874 47.6875 198.302 51.1024 203.519 54.8004C205.676 56.3398 207.196 58.7461 209.902 61.7363C211.245 53.2787 217.54 51.1201 223.34 49.3507C229.793 47.3867 235.098 51.7571 240.367 54.9066C245.035 45.352 253.504 42.7333 262.398 44.6089C275.323 47.3337 285.101 54.4465 285.384 70.5124C291.113 62.8864 297.036 66.319 302.694 68.4245C309.184 70.8309 310.846 77.2714 313.622 82.8449C317.017 79.1823 322.356 78.6161 328.209 81.0755C330.691 82.0605 332.868 83.6842 334.521 85.7821C336.722 88.7961 337.701 92.5321 337.262 96.239C335.026 95.0628 332.538 94.4481 330.012 94.4481C327.487 94.4481 324.999 95.0628 322.763 96.239C321.838 96.7135 320.807 96.94 319.769 96.8966C318.731 96.8532 317.721 96.5413 316.84 95.9913C311.73 93.3196 301.421 94.2219 298.256 97.7607C296.046 100.202 294.543 101.742 292.457 97.7607C291.771 96.9423 290.842 96.3656 289.805 96.1152C284.677 94.2396 279.655 94.2573 276.19 96.4336L263.583 92.4526C263.583 92.0987 263.583 91.7448 263.583 91.3909C263.583 84.3135 259.604 78.7577 252.709 75.8028C244.628 72.2641 238.917 77.0414 234.196 83.1634C226.08 91.3025 201.768 96.6813 197.666 86.2421L195.279 84.5789C188.365 84.4904 183.114 85.1451 178.764 95.8144C176.996 94.9828 175.104 94.045 173.23 93.3373C171.356 92.6295 169.482 91.9925 167.607 91.3379C167.43 91.6386 167.236 91.9395 167.059 92.258C167.388 92.8608 167.792 93.4197 168.261 93.9212C169.906 95.2873 171.216 97.0113 172.092 98.9616C172.969 100.912 173.388 103.037 173.318 105.174C173.318 117.755 173.318 130.352 173.318 143.64C170.041 146.931 166.882 150.34 163.841 153.867L151.57 153.567C143.631 153.407 135.657 153.567 127.576 153.567C132.987 169.243 133.623 185.415 131.855 201.817H133.234C128.42 212.454 124.557 223.497 121.688 234.816H72.4627C75.2564 231.277 77.6788 228.234 80.1365 225.208C86.0245 217.883 91.9301 210.54 97.8181 203.286C98.4406 202.621 99.2957 202.221 100.205 202.171C105.404 202.083 110.602 202.171 116.242 202.171C114.959 211.76 111.798 221.001 106.942 229.366C111.115 229.614 114.386 230.145 116.667 225.191C121.585 214.372 124.232 202.66 124.447 190.776C124.889 175.117 123.138 159.866 115.358 145.923C111.946 139.412 107.472 133.767 99.0735 133.396ZM130.069 143.021V123.08C130.069 117.985 130.37 112.871 130.069 107.793C129.433 98.9462 134.154 92.1518 139.069 85.8882C141.755 82.3442 145.147 79.3975 149.031 77.2349C152.915 75.0723 157.206 73.7411 161.631 73.3257C162.13 73.1705 162.587 72.9033 162.967 72.5445C163.347 72.1858 163.64 71.7449 163.823 71.2555C164.884 67.876 165.592 64.4081 166.582 60.6393C165.879 60.4855 165.161 60.4201 164.442 60.4447C163.07 60.6937 161.654 60.531 160.373 59.9768C159.093 59.4227 158.005 58.5021 157.246 57.3306C151.022 48.9615 133.729 48.6961 127.488 57.0652C127.022 57.5156 126.513 57.9186 125.967 58.2684C121.635 49.4215 117.922 47.6522 108.091 48.8022C106.274 48.6928 104.553 47.9475 103.229 46.6967C97.9242 42.3794 91.2936 43.8126 86.9616 48.2891L95.4488 51.5802C96.7799 52.0357 97.9148 52.9339 98.6645 54.1251C99.4141 55.3164 99.7332 56.7287 99.5686 58.1268C99.4448 76.776 99.7454 95.4074 99.3741 114.039C99.2326 120.497 103.087 124.284 107.313 126.831C112.371 129.942 116.735 134.062 120.132 138.934C123.598 143.747 123.492 143.817 130.069 143.021Z" fill="#95C11F"/>
</svg>
