<svg width="2480" height="96" viewBox="0 0 2480 96" fill="none" xmlns="http://www.w3.org/2000/svg">
<path d="M2336.53 32.5166H2306.92V82.065H2336.53V32.5166Z" fill="#3F3F3E"/>
<path opacity="0.4" d="M2317.17 34.0645H2310.34V82.0645H2317.17V34.0645Z" fill="#1A171B"/>
<path d="M2133.85 32.5166H2104.24V82.065H2133.85V32.5166Z" fill="#3F3F3E"/>
<path opacity="0.4" d="M2114.49 34.0645H2106.52V82.0645H2114.49V34.0645Z" fill="#1A171B"/>
<path d="M1931.17 32.5166H1900.42V82.065H1931.17V32.5166Z" fill="#3F3F3E"/>
<path opacity="0.4" d="M1911.81 34.0645H1904.98V82.0645H1911.81V34.0645Z" fill="#1A171B"/>
<path d="M1728.49 32.5166H1697.74V82.065H1728.49V32.5166Z" fill="#3F3F3E"/>
<path opacity="0.4" d="M1707.99 34.0645H1701.16V82.0645H1707.99V34.0645Z" fill="#1A171B"/>
<path d="M1525.8 32.5166H1495.06V82.065H1525.8V32.5166Z" fill="#3F3F3E"/>
<path opacity="0.4" d="M1505.31 34.0645H1498.48V82.0645H1505.31V34.0645Z" fill="#1A171B"/>
<path d="M1323.12 32.5166H1292.38V82.065H1323.12V32.5166Z" fill="#3F3F3E"/>
<path opacity="0.4" d="M1302.63 34.0645H1295.79V82.0645H1302.63V34.0645Z" fill="#1A171B"/>
<path d="M917.76 32.5166H887.016V82.065H917.76V32.5166Z" fill="#3F3F3E"/>
<path opacity="0.4" d="M897.264 34.0645H890.432V82.0645H897.264V34.0645Z" fill="#1A171B"/>
<path d="M1120.44 32.5166H1089.7V82.065H1120.44V32.5166Z" fill="#3F3F3E"/>
<path opacity="0.4" d="M1099.95 34.0645H1093.11V82.0645H1099.95V34.0645Z" fill="#1A171B"/>
<path d="M715.078 32.5166H684.334V82.065H715.078V32.5166Z" fill="#3F3F3E"/>
<path opacity="0.4" d="M694.582 34.0645H687.75V82.0645H694.582V34.0645Z" fill="#1A171B"/>
<path d="M342.736 32.5166H311.993V82.065H342.736V32.5166Z" fill="#3F3F3E"/>
<path opacity="0.4" d="M322.241 34.0645H315.409V82.0645H322.241V34.0645Z" fill="#1A171B"/>
<path d="M545.418 32.5166H514.674V82.065H545.418V32.5166Z" fill="#3F3F3E"/>
<path opacity="0.4" d="M524.922 34.0645H518.09V82.0645H524.922V34.0645Z" fill="#1A171B"/>
<path d="M140.055 32.5166H109.312V82.065H140.055V32.5166Z" fill="#3F3F3E"/>
<path opacity="0.4" d="M119.559 34.0645H112.728V82.0645H119.559V34.0645Z" fill="#1A171B"/>
<path d="M2480 63.4834H0V95.9995H2480V63.4834Z" fill="#583900"/>
<path opacity="0.4" d="M2480 68.1289H0V78.9676H2480V68.1289Z" fill="#1A171B"/>
<path d="M2336.53 32.5166H2306.92V82.065H2336.53V32.5166Z" fill="#3F3F3E"/>
<path opacity="0.4" d="M2317.17 34.0645H2310.34V82.0645H2317.17V34.0645Z" fill="#1A171B"/>
<path d="M2133.85 32.5166H2104.24V82.065H2133.85V32.5166Z" fill="#3F3F3E"/>
<path opacity="0.4" d="M2114.49 34.0645H2106.52V82.0645H2114.49V34.0645Z" fill="#1A171B"/>
<path d="M1931.17 32.5166H1900.42V82.065H1931.17V32.5166Z" fill="#3F3F3E"/>
<path opacity="0.4" d="M1911.81 34.0645H1904.98V82.0645H1911.81V34.0645Z" fill="#1A171B"/>
<path d="M1728.49 32.5166H1697.74V82.065H1728.49V32.5166Z" fill="#3F3F3E"/>
<path opacity="0.4" d="M1707.99 34.0645H1701.16V82.0645H1707.99V34.0645Z" fill="#1A171B"/>
<path d="M1525.8 32.5166H1495.06V82.065H1525.8V32.5166Z" fill="#3F3F3E"/>
<path opacity="0.4" d="M1505.31 34.0645H1498.48V82.0645H1505.31V34.0645Z" fill="#1A171B"/>
<path d="M1323.12 32.5166H1292.38V82.065H1323.12V32.5166Z" fill="#3F3F3E"/>
<path opacity="0.4" d="M1302.63 34.0645H1295.79V82.0645H1302.63V34.0645Z" fill="#1A171B"/>
<path d="M917.76 32.5166H887.016V82.065H917.76V32.5166Z" fill="#3F3F3E"/>
<path opacity="0.4" d="M897.264 34.0645H890.432V82.0645H897.264V34.0645Z" fill="#1A171B"/>
<path d="M1120.44 32.5166H1089.7V82.065H1120.44V32.5166Z" fill="#3F3F3E"/>
<path opacity="0.4" d="M1099.95 34.0645H1093.11V82.0645H1099.95V34.0645Z" fill="#1A171B"/>
<path d="M715.078 32.5166H684.334V82.065H715.078V32.5166Z" fill="#3F3F3E"/>
<path opacity="0.4" d="M694.582 34.0645H687.75V82.0645H694.582V34.0645Z" fill="#1A171B"/>
<path d="M342.736 32.5166H311.993V82.065H342.736V32.5166Z" fill="#3F3F3E"/>
<path opacity="0.4" d="M322.241 34.0645H315.409V82.0645H322.241V34.0645Z" fill="#1A171B"/>
<path d="M545.418 32.5166H514.674V82.065H545.418V32.5166Z" fill="#3F3F3E"/>
<path opacity="0.4" d="M524.922 34.0645H518.09V82.0645H524.922V34.0645Z" fill="#1A171B"/>
<path d="M140.055 32.5166H109.312V82.065H140.055V32.5166Z" fill="#3F3F3E"/>
<path opacity="0.4" d="M119.559 34.0645H112.728V82.0645H119.559V34.0645Z" fill="#1A171B"/>
<path d="M2480 63.4834H0V95.9995H2480V63.4834Z" fill="#583900"/>
<path opacity="0.4" d="M2480 68.1289H0V78.9676H2480V68.1289Z" fill="#1A171B"/>
<path d="M2480 0H0V32.5161H2480V0Z" fill="#583900"/>
<path opacity="0.4" d="M2480 4.64551H0V15.4842H2480V4.64551Z" fill="#1A171B"/>
<path d="M2480 0H0V32.5161H2480V0Z" fill="#583900"/>
<path opacity="0.4" d="M2480 4.64551H0V15.4842H2480V4.64551Z" fill="#1A171B"/>
</svg>
