<svg width="582" height="473" viewBox="0 0 582 473" fill="none" xmlns="http://www.w3.org/2000/svg">
<path d="M55.2402 374.18C54.6685 373.843 54.1228 373.463 53.6076 373.044L55.2402 374.18Z" fill="#ED7237"/>
<path d="M3.98994 377.8C4.02419 378.201 4.02419 378.605 3.98994 379.007C3.98994 379.007 4.06092 378.226 3.98994 377.8Z" fill="#ED7237"/>
<path d="M40.9697 364.31L39.621 363.458L40.9697 364.31Z" fill="#ED7237"/>
<path d="M366.721 111.04L371.619 109.478H371.122C369.631 110.259 368.211 110.614 366.721 111.04Z" fill="#ED7237"/>
<path d="M43.672 404.135L46.7245 405.98C46.7245 409.742 50.0607 409.813 52.2613 411.091C59.8373 414.666 67.7898 417.38 75.9702 419.184C72.7759 421.171 70.7883 422.733 70.0785 425.714C69.8946 426.487 69.6575 427.246 69.3687 427.986C63.7209 427.817 58.1268 426.837 52.7582 425.075L50.7705 424.294L48.9959 423.159L48.0732 422.591L47.5053 422.165L45.5177 420.674C44.1825 419.731 42.9026 418.712 41.6845 417.622L38.2772 414.499L37.3544 413.789L36.9285 413.363L35.4379 411.517C34.657 410.452 33.6632 409.033 32.7404 407.613L30.7528 404.915H33.9471C36.7865 404.632 40.2648 404.277 43.672 404.135Z" fill="#ED7237"/>
<path d="M162.926 221.066C162.576 220.766 162.195 220.504 161.79 220.285C160.828 220.645 159.939 221.174 159.164 221.847C159.528 221.043 159.98 220.281 160.512 219.576C161.019 218.928 161.564 218.312 162.145 217.73C162.03 218.898 162.305 220.071 162.926 221.066Z" fill="#ED7237"/>
<path fill-rule="evenodd" clip-rule="evenodd" d="M350.181 448.429L296.162 472.635C296.162 472.635 293.854 454.784 289.844 446.726C286.046 439.184 280.526 432.643 273.731 427.631C267.593 423.245 260.716 419.999 253.429 418.048C250.145 417.093 246.801 416.358 243.42 415.847C242.675 415.766 241.934 415.682 241.198 415.597C238.705 415.313 236.264 415.034 233.908 414.924C224.764 414.587 215.61 415.158 206.579 416.628C211.974 414.569 217.44 412.653 222.976 411.091C229.257 409.28 235.632 407.811 242.071 406.69C248.559 405.681 255.101 405.065 261.663 404.844C268.237 404.692 274.813 405.071 281.326 405.98C287.909 406.833 294.43 408.113 300.847 409.813L301.202 408.678C294.929 406.249 288.473 404.327 281.894 402.928C275.256 401.494 268.515 400.592 261.734 400.23C254.919 399.84 248.084 399.982 241.29 400.656C234.505 401.395 227.772 402.557 221.131 404.135C207.964 407.407 195.095 411.776 182.657 417.196C177.392 419.422 172.178 421.725 166.999 424.012C159.958 427.122 152.982 430.203 146.029 433.025C140.076 435.414 133.954 437.36 127.715 438.846C121.896 440.327 115.845 440.664 109.897 439.84C106.836 439.444 103.833 438.681 100.953 437.569C97.9718 436.575 94.9195 435.368 91.7962 434.09C88.6728 432.813 85.4785 431.606 82.0002 430.612C80.2774 430.078 78.523 429.651 76.7473 429.334L75.3986 428.979C75.4452 427.071 76.1266 425.232 77.335 423.753C78.5434 422.275 80.2098 421.241 82.0712 420.816C87.6639 419.656 93.3385 419.48 99.0399 419.303C105.206 419.111 111.404 418.918 117.564 417.48C129.418 414.711 200.971 376.45 217.865 335.279C194.085 377.87 119.764 415.918 103.012 417.196C88.3987 418.465 73.6811 416.7 59.7819 412.014C55.7239 410.073 51.8914 407.693 48.3533 404.915C46.5162 402.899 47.7338 402.495 48.9352 402.096C49.6371 401.863 50.3334 401.632 50.412 401.082C53.1926 399.667 56.2163 398.746 59.2458 397.824C64.7235 396.156 70.2203 394.483 74.3338 389.867L75.9665 388.163C77.723 386.19 78.9965 383.835 79.6864 381.285C80.3763 378.734 80.4637 376.059 79.9416 373.469L77.4572 371.056L75.7535 369.423C72.6005 365.774 68.3613 364.212 64.1243 362.651C61.684 361.752 59.2445 360.853 57.0135 359.556C54.8839 359.556 53.9612 358.491 53.9612 356.433C53.9612 357.781 54.884 358.917 56.3037 359.13C58.1821 359.104 60.0288 358.642 61.6985 357.781C66.3344 356.727 70.7691 354.929 74.8308 352.458C76.7576 350.91 79.0077 349.995 81.2559 349.08C84.0599 347.94 86.8609 346.8 89.0278 344.436C90.3232 343.033 91.3268 341.429 92.3344 339.818C93.3145 338.252 94.2983 336.679 95.5584 335.279C95.6901 335.129 95.8668 334.963 96.0566 334.785C96.5827 334.292 97.2098 333.705 97.2619 333.079C97.2794 332.903 97.2498 332.726 97.1761 332.566C97.1025 332.405 96.9875 332.267 96.843 332.166C96.6984 332.065 96.5295 332.004 96.3536 331.99C96.1778 331.976 96.0013 332.008 95.8423 332.085C95.2853 332.299 94.8835 333.108 94.4963 333.887C94.242 334.399 93.9941 334.899 93.7127 335.208C93.3703 335.585 92.8462 335.945 92.2998 336.32C91.7134 336.723 91.1013 337.144 90.6604 337.622C88.2763 340.921 85.4316 343.861 82.2132 346.353C78.7204 348.335 75.091 350.067 71.3525 351.535C70.7746 351.796 70.1599 352.102 69.5186 352.42C65.9849 354.175 61.6448 356.33 58.2202 353.806C57.8853 353.513 57.501 352.973 57.0964 352.405C56.815 352.009 56.5238 351.6 56.2327 351.251C56.5242 349.611 56.6473 348.027 56.7654 346.509C56.8773 345.07 56.9846 343.69 57.2264 342.378V341.384V340.177L58.0783 337.764C58.7539 336.371 59.5123 335.02 60.3498 333.717C64.1936 328.818 67.7489 323.698 70.9975 318.385C71.5523 317.868 71.8835 317.155 71.9204 316.397L72.4172 315.332C74.6307 314.898 75.1934 316.422 75.76 317.956C76.2109 319.177 76.6642 320.405 77.954 320.656C77.954 321.508 78.6639 322.502 79.8707 321.508C79.4448 323.07 79.8706 323.851 81.5033 323.212C80.9354 324.915 81.5034 325.341 83.136 324.915C82.6391 326.619 83.6328 326.69 84.8396 326.477C85.8982 329.81 88.4295 329.829 90.9621 329.848C93.0147 329.864 95.0681 329.879 96.3392 331.659C101.287 329.819 102.664 325.259 103.914 321.118C104.062 320.625 104.209 320.138 104.36 319.662C110.062 299.48 111.655 278.359 109.045 257.551C109.045 255.184 108.667 252.818 108.288 250.452C108.099 249.269 107.91 248.086 107.768 246.903C104.748 223.089 99.4225 199.625 91.8671 176.841C97.191 202.395 102.302 228.021 106.064 253.788V260.887C104.376 260.058 103.484 258.539 102.625 257.075C101.498 255.155 100.427 253.332 97.6878 253.292C98.1847 251.73 97.6879 251.233 96.0552 251.588C95.5583 245.554 91.3703 244.489 86.4723 244.489C81.5744 244.489 77.7411 245.412 77.954 251.588L74.5468 257.338V255.918V254.498C74.9981 254.412 75.4009 254.16 75.6766 253.793C75.9523 253.425 76.081 252.968 76.0375 252.511C76.0033 252.173 75.8802 251.851 75.6806 251.576C75.4811 251.302 75.2123 251.085 74.9017 250.949C75.0081 248.963 75.0081 246.972 74.9017 244.986L74.1918 234.835C72.934 221.7 73.1007 208.467 74.6888 195.368L76.5344 185.927L79.4448 176.841L83.349 168.536L86.0463 164.205C86.8542 162.804 87.7804 161.474 88.8147 160.23C96.5472 149.973 105.955 141.094 116.641 133.966C122.022 130.347 127.643 127.098 133.464 124.241C136.517 122.75 139.569 121.26 142.479 120.124L146.951 118.278L151.566 116.645C154.618 115.51 157.741 114.516 160.865 113.593C163.988 112.67 167.253 111.748 170.518 110.825C177.403 109.029 184.123 106.654 190.607 103.726L195.505 101.029C197.186 99.9988 198.799 98.8607 200.332 97.6216C201.983 96.3288 203.505 94.8786 204.875 93.2915L205.372 92.7236L205.869 92.1557L206.579 91.091L209.205 88.6064C212.967 83.4245 216.801 78.3137 220.563 73.3447C242.71 88.1806 277.351 77.0359 299.995 66.6721C299.968 66.7889 299.968 66.9103 299.995 67.0271C301.272 73.5467 301.772 80.1945 301.486 86.8318C301.204 91.3147 300.491 95.7599 299.356 100.106H298.93C290.79 97.9224 282.435 96.637 274.015 96.2728C266.916 95.705 260.456 95.634 255.203 95.634H243.278C242.262 95.7158 241.241 95.7158 240.226 95.634H239.729H238.167C238.147 95.7752 238.147 95.9186 238.167 96.0599C238.124 96.1985 238.124 96.3472 238.167 96.4858C238.44 96.7778 238.782 96.9973 239.161 97.1246C240.16 97.6457 241.206 98.0735 242.284 98.4024C244.982 99.3252 248.886 100.461 253.926 101.668C254.798 101.876 255.702 102.094 256.637 102.319C261.104 103.392 266.274 104.635 272.027 105.927L282.959 108.553C286.771 109.43 290.518 110.569 294.174 111.96C298.22 113.593 302.479 115.297 307.022 116.929C311.937 118.613 316.966 119.941 322.071 120.905C333.16 123.016 344.565 122.823 355.576 120.337C361.34 119.039 366.937 117.086 372.258 114.516C374.466 113.456 376.613 112.286 378.729 111.133C381.715 109.506 384.641 107.912 387.59 106.708C390.264 105.789 392.99 105.03 395.754 104.436C398.701 103.6 401.593 102.58 404.414 101.384H405.124C409.053 105.493 413.381 109.203 418.043 112.457C392.204 121.189 370.341 134.392 374.245 159.378C375.868 169.764 382.396 173.969 388.279 177.758C396.549 183.085 403.543 187.59 393.837 207.293C382.719 229.822 400.737 231.56 418.822 233.305C422.675 233.677 426.532 234.049 430.11 234.623C434.746 235.352 438.733 242.656 441.929 248.512C443.088 250.636 444.143 252.57 445.088 253.93C446.653 256.729 449.173 258.871 452.187 259.964C451.058 261.088 450.08 262.352 449.276 263.726C447.305 266.312 445.792 269.218 444.804 272.316C444.493 273.314 444.256 274.334 444.094 275.368C444.021 276.408 444.021 277.451 444.094 278.491C444.057 279.082 444.057 279.675 444.094 280.266V281.615C444.116 282.594 444.235 283.569 444.449 284.525C445.187 288.724 446.861 292.703 449.347 296.166C451.635 299.451 454.304 302.453 457.298 305.111L465.319 312.209L469.223 315.971V316.326L467.59 318.314L466.881 319.166H466.029L456.801 318.527C455.31 318.527 453.748 318.527 452.329 318.101L448.07 317.32L439.48 315.829L425.283 313.345L430.323 320.443H428.407C426.923 320.467 425.447 320.657 424.006 321.011L414.068 323.354L421.166 330.452L425.496 335.137L429.117 338.403C426.785 337.873 424.408 337.564 422.018 337.48C420.766 337.373 419.508 337.373 418.256 337.48C417.02 337.528 415.787 337.646 414.565 337.835C412.163 338.146 409.79 338.645 407.466 339.325L395.541 342.52L402.284 345.572L399.09 346.495C397.021 347.064 394.99 347.821 392.968 348.575C392.216 348.855 391.465 349.135 390.714 349.405L386.597 351.322C385.89 351.635 385.202 351.99 384.538 352.387L382.692 353.451L381.06 354.374V356.007C381.224 359.403 381.699 362.777 382.48 366.087C383.361 369.845 383.955 373.666 384.254 377.515H383.757L377.582 379.858L376.446 380.497L375.026 381.135L372.045 382.626V383.123V383.904C373.535 384.259 374.955 384.756 375.31 385.536C375.665 386.317 375.31 387.453 374.529 388.589C372.859 391.016 370.958 393.274 368.85 395.332C367.89 396.293 366.925 397.25 365.96 398.209C362.574 401.57 359.174 404.945 355.86 408.536C351.271 413.224 347.46 418.616 344.574 424.507C343 427.954 342.27 431.725 342.444 435.51C342.471 436.545 342.638 437.572 342.941 438.562C343.166 439.565 343.499 440.541 343.935 441.473C344.343 442.432 344.867 443.338 345.496 444.17L346.348 445.377C346.348 445.377 346.348 445.377 346.774 445.874L347.129 446.229C348.058 447.077 349.082 447.816 350.181 448.429ZM100.504 369.368C100.94 369.196 101.408 369.118 101.876 369.139C102.349 369.045 102.837 369.056 103.305 369.173C103.773 369.29 104.209 369.509 104.583 369.814C104.956 370.119 105.257 370.504 105.464 370.939C105.671 371.375 105.779 371.851 105.78 372.333C105.886 372.796 105.887 373.276 105.783 373.74C105.68 374.203 105.475 374.637 105.182 375.011C104.89 375.385 104.518 375.689 104.093 375.901C103.669 376.114 103.202 376.228 102.728 376.237C100.172 376.45 98.3977 375.528 98.3977 372.688C98.3673 372.22 98.4359 371.751 98.599 371.312C98.762 370.872 99.016 370.472 99.3442 370.137C99.6724 369.802 100.067 369.54 100.504 369.368ZM121.397 390.647C118.912 390.363 118.274 388.447 118.274 385.891C118.415 383.336 118.983 381.419 121.894 381.561C124.804 381.703 125.23 383.052 125.514 386.033C125.798 389.015 123.881 390.931 121.397 390.647ZM121.564 359.45C121.461 359.198 121.36 358.947 121.255 358.704C122.107 352.599 125.017 352.458 129.205 355.936C129.061 356.549 129.008 357.217 128.955 357.888C128.8 359.861 128.642 361.867 126.153 362.608C123.197 363.489 122.358 361.416 121.564 359.45ZM158.948 221.561C159.254 220.725 159.634 219.917 160.084 219.148C161.207 217.705 162.467 216.373 163.846 215.173C164.344 214.133 164.964 213.156 165.691 212.262L167.679 209.707C167.906 209.458 168.132 209.201 168.361 208.942C168.849 208.389 169.348 207.825 169.88 207.293L171.157 206.158L171.867 205.59H172.364C174.253 202.529 176.654 199.816 179.463 197.568C182.159 195.168 185.004 192.939 187.981 190.896L189.187 190.115C189.401 189.886 189.67 189.715 189.968 189.618L190.536 189.263L191.672 188.695L193.163 188.056C194.973 187.379 196.822 186.81 198.699 186.353C201.483 185.719 204.305 185.269 207.147 185.004C207.946 184.236 208.682 183.406 209.347 182.52C210.91 180.353 212.131 177.958 212.967 175.421C213.831 172.939 214.099 170.288 213.748 167.684C213.611 166.47 213.325 165.278 212.896 164.135C213.527 165.207 214.027 166.351 214.387 167.542C215.157 170.242 215.302 173.082 214.813 175.847C214.337 178.655 213.402 181.365 212.045 183.868V184.436C215.185 184.411 218.322 184.672 221.415 185.217C222.4 185.386 223.372 185.623 224.325 185.927H225.035C225.929 185.194 226.783 184.412 227.59 183.584C230.26 180.96 232.64 178.057 234.689 174.924C235.781 173.244 236.754 171.489 237.599 169.671C238.286 168.051 238.879 166.392 239.374 164.702C239.678 163.489 239.892 162.256 240.013 161.011V160.727C240.137 162.002 240.137 163.286 240.013 164.56C239.909 165.4 239.743 166.23 239.516 167.045C239.322 167.985 239.061 168.91 238.735 169.813C238.108 171.812 237.325 173.758 236.392 175.634C234.607 179.127 232.44 182.413 229.933 185.43L228.584 187.063C229.901 187.802 231.181 188.608 232.417 189.476C232.893 189.779 233.342 190.134 233.797 190.494C234.089 190.725 234.383 190.958 234.689 191.18L239.161 189.618H240.581C241.88 189.287 243.16 188.884 244.414 188.411C246.193 187.691 247.903 186.812 249.525 185.785C251.409 184.627 253.108 183.191 254.565 181.526C255.356 180.694 256.069 179.791 256.694 178.828C257.334 177.89 257.881 176.892 258.327 175.847C258.787 174.894 259.144 173.894 259.392 172.866C259.739 171.954 259.954 170.998 260.031 170.026C260.208 169.232 260.327 168.425 260.385 167.613V165.696V165.625V163.992C260.412 164.536 260.412 165.081 260.385 165.625C260.74 166.193 260.74 166.832 260.74 167.613C260.784 168.464 260.784 169.317 260.74 170.168C260.81 171.184 260.81 172.204 260.74 173.221C260.614 174.366 260.425 175.503 260.172 176.628C259.891 177.863 259.512 179.074 259.037 180.248C258.56 181.463 257.966 182.627 257.262 183.726C255.905 185.968 254.258 188.02 252.364 189.831C250.68 191.389 248.876 192.813 246.969 194.09C245.266 195.155 243.775 195.936 242.639 196.504L240.865 197.284H240.368C240.354 197.45 240.354 197.616 240.368 197.781C241.645 199.698 242.568 201.259 243.349 202.75C243.492 203.023 243.637 203.298 243.784 203.576C244.441 204.821 245.137 206.14 245.834 207.648C246.662 209.389 247.35 211.193 247.892 213.043C248.476 214.926 248.926 216.847 249.241 218.793C249.735 222.533 249.878 226.312 249.667 230.079C249.454 233.78 248.956 237.459 248.176 241.082C247.773 242.936 247.252 244.761 246.614 246.548C246.477 246.906 246.371 247.242 246.264 247.583C246.096 248.119 245.925 248.665 245.621 249.316L244.485 251.73C243.877 252.837 243.309 253.832 242.77 254.774C241.548 256.913 240.48 258.784 239.445 261.1C237.836 264.433 235.86 267.576 233.553 270.47C231.494 273.526 228.838 276.133 225.745 278.136L222.621 280.408C244.414 283.46 260.456 294.321 260.456 307.098C260.456 322.005 238.096 333.86 210.767 333.576C183.438 333.292 161.574 320.94 161.574 306.033C161.754 301.697 163.523 297.579 166.543 294.463C164.355 292.59 162.753 290.125 161.929 287.364C160.226 288.003 159.374 287.648 160.226 285.732C157.195 286.393 156.389 284.531 155.582 282.668C155.349 282.131 155.117 281.594 154.831 281.118C154.294 280.784 153.858 280.31 153.571 279.747C153.283 279.184 153.154 278.554 153.198 277.923L152.062 276.078C146.977 262.912 147.284 248.274 152.914 235.332C153.442 234.045 153.844 232.644 154.251 231.226C155.214 227.874 156.205 224.423 158.948 222.129C158.916 221.941 158.916 221.749 158.948 221.561ZM253.804 129.647C256.533 130.293 259.107 131.471 261.379 133.114C276.999 145.795 291.207 160.122 303.757 175.847L302.55 177.125C299.2 174.444 295.885 171.716 292.572 168.989C287.813 165.072 283.057 161.157 278.203 157.391C265.567 147.595 251.938 138.722 234.263 141.49C222.22 143.42 210.248 142.021 198.241 140.619C186.397 139.235 174.517 137.847 162.497 139.645C164.348 136.325 167.168 133.649 170.58 131.974C173.992 130.3 177.834 129.707 181.592 130.275C202.886 131.313 224.224 131.005 245.479 129.352C248.246 128.901 251.075 129.002 253.804 129.647Z" fill="#ED7237"/>
<path d="M167.041 242.787V242.077C166.994 242.189 166.97 242.31 166.97 242.432C166.97 242.554 166.994 242.674 167.041 242.787Z" fill="#ED7237"/>
<path d="M161.858 287.361C161.858 287.361 161.858 287.361 161.858 286.864L163.987 288.355L161.858 287.361Z" fill="#ED7237"/>
<path d="M177.05 247.183C178.526 257.239 176.549 267.499 171.442 276.286C168.52 280.036 165.133 283.4 161.362 286.295C161 286.059 160.586 285.913 160.155 285.869C161.362 281.468 167.254 282.249 168.674 277.99C178.115 268.549 179.676 239.658 170.022 229.578L169.1 228.017C170.022 229.152 170.945 230.359 171.797 231.637C174.908 236.255 176.723 241.624 177.05 247.183Z" fill="#ED7237"/>
<path d="M99.3217 324.273L99.7476 323.847L99.3217 324.273Z" fill="#ED7237"/>
<path d="M214.672 285.945L215.737 285.236L218.718 283.106C220.067 282.325 221.415 281.402 222.764 280.479C244.557 283.532 260.741 294.677 260.599 307.17C260.599 322.077 238.168 333.931 210.91 333.647C183.651 333.363 161.22 321.012 161.717 306.105C161.86 301.754 163.604 297.608 166.615 294.464C171.684 297.759 177.692 299.305 183.722 298.865C189.525 299.219 195.332 298.239 200.697 295.999C206.062 293.759 210.843 290.32 214.672 285.945Z" fill="#ED7237"/>
<path opacity="0.3" d="M214.672 285.945L215.737 285.236L218.718 283.106C220.067 282.325 221.415 281.402 222.764 280.479C244.557 283.532 260.741 294.677 260.599 307.17C260.599 322.077 238.168 333.931 210.91 333.647C183.651 333.363 161.22 321.012 161.717 306.105C161.86 301.754 163.604 297.608 166.615 294.464C171.684 297.759 177.692 299.305 183.722 298.865C189.525 299.219 195.332 298.239 200.697 295.999C206.062 293.759 210.843 290.32 214.672 285.945Z" fill="#E6007E"/>
<path d="M579.182 38.9182C578.164 35.0422 576.014 31.5576 573.007 28.9093C560.3 18.1905 535.101 52.6892 524.382 59.4328C505.145 71.5003 488.889 93.2216 466.174 99.3263C451.977 103.018 434.87 106.425 418.969 112.104C414.307 108.849 409.979 105.14 406.05 101.03C411.404 98.9498 416.641 96.5802 421.738 93.9315C432.177 88.3228 442.296 82.1376 452.048 75.4044C460.859 69.1487 470.22 63.7078 480.016 59.1489C485.34 56.8774 490.096 54.7478 494.994 52.0504C499.892 49.353 504.648 46.7975 509.191 44.313C513.734 41.8285 517.709 39.1311 521.685 37.2145C525.66 35.2979 529.351 32.8135 533.539 30.7549C540.173 26.8164 547.103 23.3988 554.267 20.5331L558.739 19.3264L562.998 18.6165C564.322 18.5461 565.649 18.5461 566.973 18.6165H568.677H570.664C572.339 19.0743 573.89 19.8987 575.207 21.0299C576.329 22.0877 577.287 23.3081 578.047 24.6502C578.552 25.5097 578.979 26.4124 579.324 27.3476C579.362 28.0332 579.362 28.7205 579.324 29.4062C579.395 32.8135 579.395 36.0078 579.182 38.9182Z" fill="#9A4A3A"/>
<path d="M220.921 73.342C221.175 73.0478 221.412 72.7397 221.631 72.4192L227.807 64.4689C230.008 61.6295 231.995 58.7901 233.983 56.0216C237.887 50.4848 241.72 44.948 245.695 39.6241C249.67 34.3003 253.788 28.9763 258.047 23.9364C262.095 18.9819 266.718 14.526 271.818 10.6623C273.86 8.9763 276.307 7.85094 278.916 7.3969C279.339 7.32115 279.771 7.32115 280.194 7.3969C280.567 7.44995 280.928 7.57022 281.259 7.75185C281.614 7.75185 281.969 8.39068 282.323 8.60364L283.388 10.0233C284.796 12.6002 285.801 15.377 286.37 18.2576C286.795 20.0322 287.079 21.5229 287.576 23.2976C288.073 25.0722 288.57 26.8468 289.138 28.4085C293.819 40.8549 297.614 53.6166 300.496 66.5983C277.638 77.0331 243.069 88.1778 220.921 73.342Z" fill="#9A4A3A"/>
<path d="M446.013 253.857C442.463 248.817 437.352 235.543 431.035 234.549C410.662 231.284 381.345 234.549 394.761 207.22C411.372 173.644 379.003 184.292 375.17 159.305C371.336 134.319 393.129 121.116 418.967 112.384C434.868 106.99 452.259 103.298 466.172 99.6071C489.029 93.5024 505.143 71.7809 524.38 59.7135C535.099 52.615 560.298 18.4713 573.005 29.1901C576.012 31.8384 578.162 35.3229 579.18 39.1989C579.221 39.6001 579.221 40.0045 579.18 40.4057C578.833 43.6493 578.312 46.872 577.619 50.0597C576.128 57.1581 574.211 64.2566 572.224 71.3551C570.236 78.4536 568.533 85.5521 566.332 92.6506C565.338 96.0579 564.203 99.7491 562.996 102.943C561.789 106.138 560.653 110.042 559.305 113.165C556.82 120.264 553.981 126.652 551.07 133.254C549.414 136.425 547.852 139.69 546.385 143.05L541.416 152.633C539.784 155.827 537.938 158.95 536.235 162.145L534.886 164.487L533.537 166.759L530.698 171.444C527.006 177.904 522.96 183.795 518.914 189.9C514.868 196.005 510.538 201.825 506.066 207.646C501.594 213.467 496.909 219.146 491.869 224.683L484.415 232.704C481.86 235.259 479.234 237.815 476.536 240.299C473.839 242.784 471.07 245.055 468.16 247.398C465.249 249.74 462.268 251.799 459.358 254.141C457.015 256.018 454.787 258.033 452.685 260.175C449.783 258.926 447.419 256.687 446.013 253.857ZM455.667 189.971C444.451 191.675 433.093 190.752 421.807 192.1C433.008 195.046 444.852 194.401 455.667 190.255V189.971ZM424.149 214.461C430.308 220.874 437.898 225.739 446.296 228.658C444.414 226.392 442.66 224.022 441.044 221.559C437.92 218.578 411.088 195.082 409.313 196.36L408.816 196.998C407.184 200.903 421.807 212.615 424.149 214.745V214.461ZM460.919 162.5C440.034 169.203 417.663 169.77 396.465 164.133C405.551 173.786 451.124 173.148 460.919 162.784V162.5ZM502.659 83.9905C499.89 96.5548 486.261 109.474 479.376 119.483C473.722 125.639 468.391 132.084 463.404 138.791C462.745 140.017 462.199 141.3 461.771 142.624C470.006 146.883 486.261 116.785 489.668 111.249C495.596 103.066 499.997 93.8795 502.659 84.1323C502.875 83.2706 503.017 82.3919 503.084 81.5059C503.026 82.4396 502.883 83.3662 502.659 84.2743V83.9905ZM489.029 136.945C480.937 137.797 473.484 144.896 467.734 149.936C464.185 152.846 458.648 160.015 453.537 160.299C461.45 159.094 468.925 155.894 475.258 151C480.703 147.352 485.381 142.674 489.029 137.229V136.945ZM469.651 171.302C471.283 171.302 473.626 170.592 472.49 168.675C471.354 166.759 470.005 169.527 468.586 169.74C451.141 179.248 431.662 184.41 411.798 184.789C432.047 187.602 452.626 182.905 469.651 171.586V171.302Z" fill="#FEF7C3"/>
<path d="M5.83324 385.397C5.96669 385.904 6.13261 386.402 6.33008 386.888C6.13261 386.402 5.96669 385.904 5.83324 385.397Z" fill="#472417"/>
<path d="M5.05345 382.84C5.05345 383.479 5.0534 384.047 5.55029 384.686C5.40832 384.047 5.19542 383.479 5.05345 382.84Z" fill="#472417"/>
<path d="M4.91357 382.557L4.48768 380.996V381.635L4.91357 382.557Z" fill="#472417"/>
<path d="M3.98779 377.802C3.98779 378.227 3.98779 378.582 3.98779 378.937C3.57819 376.589 3.57819 374.187 3.98779 371.839C3.70815 373.817 3.70815 375.824 3.98779 377.802Z" fill="#472417"/>
<path d="M4.62891 369.849C4.42993 370.503 4.26414 371.166 4.13207 371.837C4.26414 371.166 4.42993 370.503 4.62891 369.849Z" fill="#472417"/>
<path d="M72.9141 314.62L72.4171 315.685C72.4499 315.355 72.4499 315.022 72.4171 314.691L72.9141 314.62Z" fill="#472417"/>
<path d="M278.131 157.391C265.496 147.595 251.867 138.722 234.191 141.49C210.269 145.323 186.631 136.024 162.425 139.645C164.276 136.325 167.096 133.649 170.508 131.974C173.92 130.3 177.762 129.707 181.52 130.275C202.814 131.313 224.152 131.005 245.407 129.352C248.174 128.901 251.004 129.002 253.732 129.647C256.461 130.293 259.035 131.471 261.307 133.114C276.994 145.738 291.274 160.018 303.898 175.705L302.692 176.983C294.386 170.594 286.365 163.779 278.131 157.391Z" fill="#472417"/>
<path d="M460.919 162.787C451.123 173.151 405.551 173.719 396.465 164.42C417.663 170.057 440.033 169.49 460.919 162.787Z" fill="#472417"/>
<path d="M421.807 192.387C433.094 191.038 444.451 191.961 455.667 190.258C444.882 194.498 433.038 195.243 421.807 192.387Z" fill="#472417"/>
<path d="M411.653 185.077C431.517 184.698 450.997 179.536 468.441 170.028C469.861 170.028 471.28 167.189 472.345 168.963C473.41 170.738 471.138 171.377 469.506 171.59C452.52 183.008 431.938 187.806 411.653 185.077Z" fill="#472417"/>
<path d="M461.769 142.768C462.196 141.444 462.743 140.161 463.402 138.935C468.389 132.228 473.72 125.784 479.373 119.627C486.472 109.76 499.888 96.8411 502.656 84.1348C499.994 93.882 495.593 103.068 489.666 111.251C486.046 117.001 470.003 147.028 461.769 142.768Z" fill="#472417"/>
<path d="M467.379 150.225C473.484 145.185 480.937 138.087 488.675 137.235C485.07 142.833 480.389 147.659 474.904 151.432C468.57 156.326 461.095 159.526 453.182 160.731C458.293 160.305 463.83 153.136 467.379 150.225Z" fill="#472417"/>
<path d="M409.316 196.998C411.091 195.72 437.71 219.217 441.047 222.198C442.663 224.661 444.417 227.031 446.299 229.297C437.9 226.377 430.311 221.513 424.152 215.1C421.81 212.97 407.187 201.257 408.819 197.992L409.316 196.998Z" fill="#472417"/>
<path d="M259.82 165.77V164.137C259.847 164.681 259.847 165.226 259.82 165.77Z" fill="#472417"/>
<path d="M161.791 220.281C162.197 220.5 162.577 220.762 162.927 221.062L163.637 222.198C164.489 223.262 165.695 224.185 166.618 225.179L169.103 228.018L170.025 229.58C169.921 229.927 169.921 230.298 170.025 230.645C166.334 229.367 164.914 225.321 161.507 223.191C156.822 228.728 164.063 230.645 164.702 234.407C164.021 233.981 163.233 233.759 162.43 233.768C160.971 233.991 159.64 234.73 158.678 235.85C157.717 236.969 157.188 238.397 157.188 239.873C157.188 241.349 157.717 242.776 158.678 243.896C159.64 245.016 160.971 245.754 162.43 245.978C163.357 245.931 164.255 245.637 165.029 245.125C165.803 244.613 166.425 243.902 166.831 243.067C168.89 255.206 169.245 266.989 159.733 276.643C158.668 276.643 157.603 276.643 156.893 277.424L154.693 278.205H152.918L151.782 276.359C146.697 263.194 147.003 248.555 152.634 235.614C154.409 231.284 154.764 225.676 158.668 222.411C159.538 221.478 160.605 220.75 161.791 220.281Z" fill="#2D2420"/>
<path d="M155.33 280.765C160.37 282.823 163.99 278.777 168.32 277.641C174.949 262.784 175.534 245.93 169.953 230.649C169.848 230.302 169.848 229.931 169.953 229.584C179.607 239.664 178.045 268.555 168.604 277.996C167.326 282.255 161.505 281.474 160.086 285.875C160.516 285.919 160.93 286.065 161.292 286.301L162.073 286.798C162.073 286.798 162.073 286.798 162.073 287.295L164.132 288.289C170.565 293.438 178.536 296.287 186.776 296.381C196.909 295.456 206.589 291.747 214.744 285.663C210.907 290.07 206.107 293.534 200.715 295.787C195.323 298.04 189.485 299.02 183.653 298.653C177.67 299.14 171.691 297.671 166.616 294.465C164.428 292.591 162.826 290.127 162.002 287.366C160.299 288.005 159.447 287.366 160.299 285.733C156.395 286.585 156.182 283.249 154.904 281.119C154.367 280.786 153.932 280.312 153.644 279.749C153.356 279.186 153.227 278.556 153.271 277.925H155.046L155.33 280.765Z" fill="#523C2F"/>
<path d="M168.319 277.639C163.989 278.775 160.368 282.821 155.328 280.762L154.903 277.923L157.103 277.142C157.586 277.402 158.151 277.467 158.679 277.321C159.208 277.176 159.661 276.832 159.942 276.361C169.454 266.707 169.099 255.066 167.041 242.785C167.008 242.645 167.008 242.499 167.041 242.359C167.33 241.563 167.474 240.722 167.467 239.875C167.499 238.789 167.247 237.714 166.737 236.756C166.226 235.797 165.475 234.988 164.557 234.409C163.918 230.647 156.677 228.73 161.362 223.193C164.769 225.323 166.189 229.369 169.88 230.647C175.485 245.919 174.925 262.773 168.319 277.639Z" fill="#5B564A"/>
<path d="M157.103 277.14C157.813 276.076 158.878 276.147 159.942 276.36C159.661 276.83 159.208 277.175 158.679 277.32C158.15 277.465 157.586 277.401 157.103 277.14Z" fill="#523C2F"/>
<path d="M85.4805 325.693H86.6872H87.7519H88.5328H89.4556H95.0634H95.7022H96.1992H96.767H97.3349H97.8318C98.0237 325.616 98.1942 325.495 98.3287 325.338H98.8256L99.3225 324.912L99.7484 324.486L100.245 323.918V323.492L100.742 322.712V322.286C100.95 321.927 101.117 321.546 101.239 321.15C101.239 321.15 101.239 321.15 101.239 320.795C101.481 320.246 101.671 319.676 101.807 319.091C107.699 296.802 112.313 274.584 97.7608 253.572C96.4831 253.572 95.9152 253.004 96.0572 251.868C90.0234 247.68 84.0607 245.622 78.027 251.868C78.027 245.835 82.0022 244.77 86.5452 244.77C91.0882 244.77 95.6313 245.622 96.1282 251.868C97.6899 251.868 98.2577 251.868 97.7608 253.572C102.588 253.572 102.233 259.251 106.137 261.168V254.069C102.162 228.301 97.0509 202.676 91.94 177.121C99.4954 199.906 104.821 223.37 107.841 247.183C108.267 250.733 108.834 254.282 109.118 257.831C111.728 278.64 110.135 299.761 104.433 319.943C103.014 324.415 101.949 329.881 96.4121 331.94C93.5727 327.964 86.8292 332.791 84.9126 326.758L85.4805 325.693Z" fill="#472417"/>
<path d="M77.2457 274.089C84.3442 276.503 86.0478 283.175 88.3193 289.28C86.4737 290.274 85.6928 289.919 85.2669 287.647C84.841 285.376 84.2732 281.543 81.2918 280.123C80.8627 279.5 80.2911 278.988 79.6244 278.629C78.9577 278.271 78.2153 278.078 77.4586 278.064C76.0353 278.285 74.7377 279.007 73.8003 280.1C72.863 281.194 72.3477 282.587 72.3477 284.027C72.3477 285.467 72.863 286.86 73.8003 287.954C74.7377 289.047 76.0353 289.769 77.4586 289.99C78.102 289.97 78.7349 289.821 79.32 289.553C79.9052 289.285 80.4308 288.902 80.8659 288.428C82.4147 291.875 82.9952 295.679 82.545 299.431C82.0948 303.183 80.6308 306.741 78.3104 309.724C75.8969 312.563 79.3042 312.634 80.0851 313.983C78.3814 314.834 78.5234 316.325 78.5944 317.816C78.6654 319.307 78.5944 319.377 78.5944 320.158C75.684 319.59 77.0328 314.054 73.0576 314.834H72.4897C72.5225 315.165 72.5225 315.498 72.4897 315.828C72.4528 316.586 72.1217 317.299 71.5669 317.816C71.3242 318.061 71.0344 318.254 70.7151 318.384L69.5793 317.248C69.3741 316.551 69.4438 315.802 69.7738 315.155C70.1039 314.508 70.6694 314.013 71.3539 313.77C72.1871 312.891 72.7133 311.766 72.8541 310.563C72.9948 309.36 72.7425 308.145 72.1348 307.097C68.3241 296.118 67.2043 284.384 68.8694 272.882C70.0681 273.737 71.4539 274.293 72.9111 274.502C74.3682 274.712 75.8545 274.571 77.2457 274.089Z" fill="#2D2420"/>
<path d="M77.2451 274.093C75.8328 274.567 74.3268 274.691 72.8558 274.457C71.3848 274.222 69.9925 273.634 68.7979 272.744C68.396 267.549 69.6376 262.359 72.3471 257.909H74.4767C73.5539 260.464 72.6311 263.091 71.7792 265.717C71.0694 269.976 71.7793 273.17 77.2451 274.093Z" fill="#6E5C64"/>
<path d="M78.6656 251.232C84.6993 244.985 90.662 247.044 96.6957 251.232C96.6957 252.415 97.2636 252.983 98.3994 252.936C112.951 274.231 108.337 296.166 102.446 318.455C102.31 319.039 102.12 319.61 101.878 320.158C101.878 320.158 101.878 320.159 101.878 320.514C101.756 320.91 101.589 321.291 101.381 321.649V322.075L100.884 322.856V323.282L100.387 323.85L99.9611 324.276L99.4641 324.702H98.9673C98.8328 324.858 98.6622 324.98 98.4703 325.056H97.9735H97.4056H96.8377H96.3409H95.7019H90.0942H89.1713H88.7454H87.6807H86.474C86.8289 323.779 86.4739 323.566 85.5511 323.495H84.6993C84.6993 322.288 84.2024 321.862 83.1377 321.862C83.1811 321.636 83.1716 321.403 83.11 321.182C83.0485 320.96 82.9365 320.756 82.7827 320.584H82.3568H81.576C81.576 319.023 81.0081 318.171 79.8014 317.39C79.8014 315.899 79.8013 314.409 81.292 313.557C91.3009 307.807 89.8812 298.295 89.5263 289.067C87.2548 282.962 85.7641 276.29 78.4526 273.876C72.9868 273.167 72.2769 269.759 73.5547 265.287C74.4065 262.661 75.3293 260.034 76.2521 257.479L76.678 256.698L80.0853 250.948L78.6656 251.232Z" fill="white"/>
<path d="M78.3099 309.512C80.6302 306.529 82.0942 302.971 82.5444 299.219C82.9947 295.467 82.4142 291.663 80.8653 288.216C81.8135 287.134 82.382 285.771 82.4845 284.336C82.5871 282.901 82.2179 281.472 81.4332 280.266C84.4146 281.685 84.9115 284.88 85.4084 287.79C85.9053 290.701 86.6152 290.417 88.4608 289.423C88.8157 298.651 90.2354 308.163 80.2265 313.913C79.3037 312.422 75.8964 312.351 78.3099 309.512Z" fill="#5B564A"/>
<path d="M80.3705 320.801H81.4352H81.8611C82.0149 320.972 82.127 321.176 82.1886 321.398C82.2501 321.619 82.2595 321.852 82.2161 322.078C83.2809 322.078 83.8487 322.504 83.7778 323.711H84.6295C85.3394 323.711 85.9073 323.711 85.5524 325.273C84.3456 325.273 83.3518 325.273 83.8487 323.711C82.358 324.137 81.6482 323.711 82.2161 322.007C80.4415 322.646 80.1576 322.007 80.5835 320.304C79.3767 321.298 79.0218 320.304 78.6668 319.452C78.3119 318.6 78.6668 317.89 78.6668 317.109C79.8026 318.387 80.6545 319.239 80.3705 320.801Z" fill="#523C2F"/>
<path d="M125.514 386.036C125.514 389.017 124.449 390.934 121.397 390.65C118.345 390.366 118.061 388.45 118.274 385.894C118.487 383.339 119.267 381.777 121.894 381.564C124.52 381.351 125.372 383.694 125.514 386.036Z" fill="#2D2420"/>
<path d="M126.158 362.608C122.821 363.602 122.182 360.833 121.26 358.704C122.111 352.599 125.022 352.457 129.21 355.935C128.642 358.349 129.494 361.543 126.158 362.608Z" fill="#2D2420"/>
<path d="M102.729 376.234C100.174 376.234 98.3994 375.524 98.3994 372.684C98.369 372.216 98.4375 371.748 98.6006 371.308C98.7637 370.868 99.0176 370.468 99.3458 370.133C99.674 369.798 100.069 369.536 100.505 369.364C100.942 369.192 101.409 369.114 101.878 369.135C102.351 369.041 102.839 369.052 103.307 369.169C103.775 369.286 104.211 369.505 104.584 369.81C104.958 370.116 105.259 370.5 105.466 370.935C105.673 371.371 105.781 371.847 105.782 372.33C105.887 372.792 105.889 373.273 105.785 373.736C105.682 374.199 105.476 374.634 105.184 375.007C104.892 375.381 104.52 375.685 104.095 375.898C103.671 376.11 103.204 376.224 102.729 376.234Z" fill="#2D2420"/>
<path d="M56.7312 359.198C62.8359 362.748 70.5022 363.316 75.4712 369.065C67.9468 366.936 60.4224 364.735 52.827 362.748C51.4073 362.322 49.1358 361.683 48.4969 363.386C47.858 365.09 49.5617 366.155 50.2715 367.575C49.5398 367.647 48.8027 367.647 48.071 367.575H47.716C47.0342 367.461 46.3674 367.27 45.7285 367.007L44.1668 366.297L42.7471 365.516L41.1854 364.593L39.8367 363.741C36.1537 361.161 31.8057 359.695 27.312 359.519C22.8183 359.342 18.3689 360.463 14.4951 362.748C12.728 363.561 10.8688 364.157 8.95822 364.522L7.3256 366.155L5.69297 367.787C5.34679 368.544 5.06197 369.328 4.84119 370.13C4.64221 370.784 4.47632 371.447 4.34424 372.118C3.93464 374.466 3.93464 376.868 4.34424 379.216C4.34424 379.855 4.34424 380.494 4.34424 381.133L4.77013 382.694C4.77013 383.333 4.77019 383.901 5.26708 384.54V385.25C5.40054 385.757 5.56645 386.255 5.76392 386.741C5.76392 387.45 6.26082 388.16 6.54475 388.941C8.40546 388.449 10.3505 388.366 12.2465 388.696C14.1426 389.027 15.9447 389.763 17.5293 390.856C19.1138 391.948 20.4434 393.37 21.4267 395.025C22.4101 396.679 23.024 398.527 23.2263 400.441C30.3248 404.132 37.4233 401.008 44.5217 400.441C45.0186 396.252 40.4046 395.046 39.1979 391.639C38.3705 390.063 38.0957 388.255 38.4175 386.505C38.7392 384.755 39.6389 383.163 40.9725 381.984C44.3088 379.216 47.6451 380.991 50.4845 383.546C53.3239 386.102 53.6078 390.006 56.8731 387.592C60.1384 385.179 57.654 382.056 56.3762 379.216C55.5954 377.512 55.0985 375.667 54.4596 373.892C62.6229 378.009 60.9903 385.179 59.7125 392.348C64.8944 393.626 68.2307 388.799 72.8447 388.87C66.456 395.968 56.7311 395.969 48.9228 400.086H44.2377C44.2848 400.737 44.1584 401.388 43.8716 401.974C43.5848 402.56 43.1479 403.06 42.6051 403.422C39.1978 403.422 35.5067 403.919 32.2414 403.848H29.047C26.5073 403.694 24.0556 402.861 21.9485 401.434L5.19603 389.58C2.11343 386.446 0.276634 382.297 0.02845 377.909C-0.219727 373.52 1.13776 369.19 3.8474 365.729C3.92075 365.476 4.05681 365.246 4.24297 365.06C4.42912 364.874 4.65929 364.738 4.91213 364.664L6.75771 362.89C11.6557 355.791 19.3221 356.288 26.5626 355.791C35.2937 355.294 44.0249 358.347 52.756 355.791C53.6788 358.347 54.6016 359.198 56.7312 359.198Z" fill="#2D2420"/>
<path d="M77.0317 370.771L79.5161 373.185C80.0382 375.774 79.9508 378.45 79.2609 381C78.571 383.55 77.2975 385.905 75.5409 387.879L77.2446 371.126L77.0317 370.771Z" fill="#2D2420"/>
<path d="M53.6109 373.042C54.1261 373.46 54.6718 373.84 55.2435 374.177C55.8824 375.952 56.3793 377.798 57.1602 379.501C58.4379 382.341 59.9285 386.6 57.657 387.877C55.3855 389.155 53.256 385.606 51.2684 383.831C49.2808 382.057 45.0927 379.501 41.7564 382.269C40.4228 383.448 39.5232 385.04 39.2014 386.79C38.8797 388.54 39.1545 390.348 39.9818 391.924C41.1886 395.331 45.8026 396.537 45.3057 400.726C38.2072 401.152 31.1087 404.275 24.0102 400.726C23.8079 398.812 23.194 396.964 22.2107 395.31C21.2273 393.655 19.8978 392.233 18.3132 391.141C16.7286 390.048 14.9265 389.312 13.0305 388.981C11.1345 388.651 9.18941 388.734 7.3287 389.226C7.3287 388.445 6.8318 387.735 6.54786 387.026C6.3504 386.54 6.18447 386.042 6.05102 385.535V384.825C6.05102 384.186 5.69604 383.618 5.55408 382.979V382.057C5.55408 381.205 5.12815 380.282 4.98618 379.43C5.02044 379.029 5.02044 378.625 4.98618 378.223C4.70655 376.246 4.70655 374.238 4.98618 372.261C15.279 376.875 32.9543 368.711 46.5834 367.292C47.2223 367.555 47.8891 367.746 48.5709 367.86H48.9259C49.6576 367.932 50.3947 367.932 51.1264 367.86C50.9924 368.871 51.156 369.9 51.5972 370.82C52.0385 371.741 52.7382 372.512 53.6109 373.042Z" fill="#6E5C64"/>
<path d="M4.13285 371.84C4.26492 371.169 4.43071 370.506 4.62969 369.852C4.85047 369.05 5.1354 368.266 5.48158 367.51L7.1142 365.877L8.74683 364.244C10.6574 363.879 12.5165 363.283 14.2836 362.469C18.1574 360.185 22.6069 359.064 27.1006 359.24C31.5943 359.417 35.9423 360.883 39.6253 363.463L40.9741 364.315L42.5357 365.238L43.9554 366.019L45.5171 366.729C31.746 368.29 14.4257 376.454 4.13285 371.84Z" fill="#B7A4AE"/>
<path d="M60.1383 392.634C61.416 385.536 63.0487 378.437 54.8854 374.178L53.2528 373.042C52.159 372.624 51.2366 371.851 50.6321 370.848C50.0276 369.845 49.7757 368.668 49.9165 367.506C49.2066 366.086 47.7159 364.311 48.1418 363.318C48.5678 362.324 51.0522 362.253 52.4719 362.678C60.0673 364.666 67.5917 366.867 75.1161 368.996L76.8198 370.629L75.1161 387.381L73.4835 389.085C69.0115 389.085 65.6751 393.841 60.1383 392.634Z" fill="#5B564A"/>
<path d="M167.538 239.876C167.545 240.723 167.401 241.565 167.112 242.361V243.071C166.706 243.906 166.084 244.616 165.31 245.128C164.535 245.64 163.638 245.935 162.711 245.981C161.252 245.758 159.921 245.019 158.959 243.9C157.998 242.78 157.469 241.352 157.469 239.876C157.469 238.4 157.998 236.973 158.959 235.853C159.921 234.733 161.252 233.995 162.711 233.772C163.514 233.763 164.302 233.984 164.982 234.411C165.835 235.032 166.517 235.859 166.964 236.815C167.411 237.77 167.608 238.824 167.538 239.876Z" fill="white"/>
<path d="M80.8648 288.432C80.4296 288.906 79.9041 289.289 79.3189 289.557C78.7338 289.825 78.1009 289.973 77.4575 289.993C76.0342 289.773 74.7366 289.051 73.7992 287.957C72.8619 286.864 72.3466 285.471 72.3466 284.031C72.3466 282.59 72.8619 281.198 73.7992 280.104C74.7366 279.01 76.0342 278.288 77.4575 278.068C78.2141 278.081 78.9566 278.275 79.6233 278.633C80.29 278.991 80.8616 279.503 81.2907 280.126C82.1828 281.35 82.6275 282.842 82.5499 284.354C82.4724 285.867 81.8774 287.306 80.8648 288.432Z" fill="white"/>
<path d="M214.532 285.947C206.377 292.031 196.697 295.741 186.564 296.665C178.324 296.571 170.353 293.722 163.92 288.573L161.79 287.082L161.01 286.586C164.78 283.69 168.167 280.327 171.09 276.577C176.197 267.789 178.173 257.529 176.697 247.473C176.37 241.914 174.556 236.545 171.444 231.927C170.593 230.649 169.67 229.443 168.747 228.307L166.262 225.467C165.34 224.474 164.133 223.551 163.281 222.486L162.571 221.35C161.919 220.315 161.643 219.087 161.79 217.872C161.722 217.544 161.722 217.206 161.79 216.878C163.423 215.672 172.083 206.514 172.083 206.514C177.017 202.173 182.234 198.166 187.7 194.518C200.548 188.981 213.396 186.497 226.245 193.169C229.933 194.625 233.325 196.742 236.254 199.416C239.132 203.341 241.361 207.703 242.855 212.335C244.86 218.639 246.029 225.178 246.333 231.785C246.333 253.081 234.976 270.401 217.94 283.391L214.958 285.521L214.532 285.947Z" fill="white"/>
</svg>
