<svg width="263" height="295" viewBox="0 0 263 295" fill="none" xmlns="http://www.w3.org/2000/svg">
<path d="M117.611 236.807C142.616 221.288 163.585 200.062 178.798 174.872C194.523 149.613 205.09 121.491 209.889 92.1289C212.656 77.2853 213.752 62.1785 213.157 47.0911C211.649 31.5549 209.26 16.1167 206 0.851423C205.97 0.652556 205.861 0.474143 205.699 0.355289C205.536 0.236434 205.333 0.186901 205.135 0.217683C204.936 0.248465 204.757 0.357044 204.638 0.519431C204.519 0.681817 204.47 0.884682 204.501 1.08355C205.004 15.9727 203.566 30.864 200.222 45.3819C198.007 59.4947 194.865 73.4464 190.817 87.1466C182.573 112.88 170.56 137.25 155.169 159.462C140.12 180.457 123.024 199.906 104.132 217.523C84.7515 236.614 62.0795 252.044 37.2096 263.071C35.2098 263.381 36.0787 267.341 37.8091 266.945C65.8286 261.156 92.76 250.985 117.611 236.807V236.807Z" fill="white"/>
<path d="M138.332 289.605C146.696 287.659 154.86 284.935 162.717 281.468C179.947 273.94 195.363 262.803 207.926 248.808C220.336 235.951 229.959 220.668 236.192 203.916C242.425 187.165 245.133 169.304 244.149 151.455C243.916 149.951 241.979 149.866 241.402 151.11C234.909 166.086 227.435 180.617 219.028 194.607C210.255 207.867 200.449 220.411 189.701 232.124C178.86 243.689 167.199 254.457 154.81 264.342C148.939 269.08 142.816 273.497 136.47 277.574C128.999 282.324 120.822 285.001 112.608 289.095C110.471 290.196 110.484 294.428 113.423 294.358C121.88 293.727 130.237 292.132 138.332 289.605V289.605Z" fill="white"/>
</svg>
